<?xml version="1.0" encoding="UTF-8"?>
<svg id="_圖層_1" data-name="圖層 1" xmlns="http://www.w3.org/2000/svg" viewBox="0 0 217.04 230.42">
  <defs>
    <style>
      .cls-1 {
        fill: #3278cc;
      }

      .cls-2 {
        fill: #ff89c7;
      }
    </style>
  </defs>
  <path class="cls-2" d="M107.1,141.57c-.07.11-.13.22-.2.33l.4.06c-.09-.12-.15-.25-.2-.39ZM217.03,55.5c.06,1.35-.26,2.55-.84,3.59-1.99,3.62-7.1,5.59-10.57,7.17-11.48,5.21-23.49,9.21-35.77,11.96-5.23,1.17-10.52,2.12-15.84,2.82-3.72.5-7.48.89-11.23,1.17l-.46.76c-2.89,4.81-5.78,9.6-8.66,14.41-.14.24-.28.47-.43.72-.53.87-1.05,1.74-1.58,2.61.41.88-.28,1.67-1.1,1.83-.64,1.05-1.26,2.1-1.89,3.15,3.13-1.73,6.38-3.16,9.72-4.34,4.5-1.6,9.17-2.74,13.9-3.51,2.56-.43,5.15-.74,7.74-.97,3.47-.3,6.94-.45,10.43-.47,1.8-.02,3.59,0,5.39.04,4.73.1,9.45.39,14.15.73,2.13.15,4.26.31,6.38.49.06,0,.12,0,.19.02.28.02.55.05.83.08,2.05.18,4.56,1.07,3.89,3.68-.08.29-.16.58-.28.85-.76,1.99-2.3,3.87-3.65,5.37-.85.94-1.78,1.8-2.76,2.6-1.03.84-2.12,1.59-3.25,2.26-.99.59-2,1.12-3.04,1.59-5.9,2.68-12.55,3.48-19.12,3.49-1.2,0-2.38-.02-3.56-.07h0c-1.26-.05-2.52-.11-3.76-.2-.74-.06-1.47-.1-2.2-.17-8.62-.69-17.15-2.33-25.41-4.86-2.53-.78-5.03-1.64-7.51-2.58-.13-.06-.26-.12-.36-.2-1.81,3.03-3.64,6.06-5.45,9.09-2.63,4.38-5.27,8.76-7.9,13.14-.22.38-.45.76-.67,1.14h0c-.08.36-.28.7-.56.94h0c-1.19,1.97-2.37,3.93-3.54,5.9,9.05-6.73,20.39-8.39,31.46-8,5.22.18,10.44.78,15.63,1.51,7.24,1.02,14.53,2.03,21.58,4,2.16.6,4.26,1.34,6.33,2.18,2.34.94,4.68,1.99,6.54,3.74,1.68,1.59,2.73,3.8,2.31,6.14-.43,2.42-2.34,4.37-4.54,5.34-2.56,1.14-5.44.97-8.16.61-3.43-.46-6.86-.98-10.29-1.46-6.99-1.01-13.99-2-20.99-3-14-2-28-4.01-41.99-6-.28-.04-.52-.15-.72-.29h0c-3.29,5.47-6.56,10.93-9.85,16.39-1.2,1.99-2.4,3.99-3.6,5.98h0v.02c-1.5,2.48-2.99,4.96-4.49,7.44l-.68,1.13c-3.15,5.21-6.3,10.42-9.44,15.64-1.25,2.09-2.51,4.18-3.76,6.28-1.34,2.24-2.68,4.48-4.01,6.73,1.99-1.42,4.13-2.51,6.36-3.32,2.84-1.05,5.84-1.66,8.9-1.94,1.05-.09,2.12-.15,3.18-.17,4.6-.1,9.26.44,13.67,1.26,6.3,1.19,12.5,2.89,18.86,3.82,6.04.88,12.2.43,18.21,1.47,3.42.6,7.95,2.09,9.75,5.16.67,1.17.97,2.56.66,4.21-.07.34-.15.67-.26,1.01-1.32,4.1-5.76,6.83-9.7,7.88-4.64,1.24-9.59.73-14.25-.17-5.95-1.17-11.78-3.01-17.62-4.61-1.43-.39-2.86-.78-4.29-1.17-11.34-3.09-22.67-6.17-34.02-9.26-.62.32-1.28.1-1.72-.33-2.03,3.46-4.07,6.92-6.07,10.39-.98,1.68-5.63,9.73-6.6,11.41-.95,1.66-3.47.1-2.52-1.54.96-1.69,5.62-9.74,6.59-11.42.42-.7.83-1.41,1.23-2.12h0c-.33-.35-.47-.87-.19-1.5,0-.02,0-.03,0-.05-4.17-4.87-8.41-9.71-13.16-14.04-4.68-4.26-9.92-7.94-15.77-10.42-5.43-2.3-10.75-4.27-15.25-8.24-8.21-7.25-12.42-18.03-15.46-28.28-.33-1.13.83-1.99,1.84-1.77,6.75,1.52,12.8,4.99,18.14,9.32,9.87,8.02,16.97,18.7,26,27.57,6.07,5.97,16.6,12.55,17.14,21.8h0c2.83-4.8,5.69-9.57,8.55-14.35.12-.21.26-.42.38-.63-.72-.28-1.23-1.04-.82-1.82-6.25-5.78-12.5-11.55-18.74-17.34-6.13-5.68-11.98-11.53-16.69-18.48-5.37-7.9-9.69-16.53-14.61-24.67-.66-1.16-1.33-2.33-1.99-3.5-2.02-3.93-4.83-7.76-6.72-11.85-1.36-2.94.81-5.03,3.63-5.57,2.74-.52,5.59-.21,8.2.78,5.52,2.1,9.92,6.48,13.58,10.96,9.22,11.3,17.37,23.69,24.87,36.18,3.66,6.1,7.4,12.29,10.45,18.72,1.47,3.12,2.76,6.78,2.62,10.29,0,0,0,0,0,0,.22-.37.44-.74.66-1.11l13.25-22.06c-13.1-7-24.31-17.32-32.48-29.71-3.61-5.47-6.39-11.3-8.86-17.35-1.23-3.01-2.48-6.04-4.15-8.84-1.74-2.91-4.01-5.03-6.5-7.28-2.23-2.02-4.16-4.4-4.36-7.52-.17-2.75,1.23-5.42,3.97-6.26,6.38-1.94,11.92,4.86,15.68,8.93,9.42,10.2,17.9,21.29,25.3,33.04,3.67,5.82,7.08,11.81,10.19,17.94,1.51,2.96,3.17,5.97,4.27,9.11.23.66.41,1.32.51,1.99h0c5.08-8.46,10.16-16.93,15.25-25.38h0c-.02-.06-.04-.09-.05-.14,0-.09-.04-.17-.06-.26-11.5-7.73-21.14-18.16-27.83-30.33-2.93-5.34-5.18-11.01-8.02-16.4-1.4-2.64-2.94-5.24-4.8-7.6-1.91-2.41-4.11-4.32-6.54-6.18-2.18-1.66-4.26-3.81-4.13-6.77.13-2.78,2.3-4.45,4.95-4.67,5.92-.5,11.72,3.32,15.87,7.13,4.49,4.14,8.23,9.18,11.72,14.16,3.54,5.04,6.73,10.33,9.55,15.82,5.13,10,9,20.64,11.53,31.58,0,0,0,0,0-.02.16-.28.33-.54.49-.82.98-1.62,1.95-3.24,2.92-4.86l4.9-8.15c2.47-4.11,4.95-8.24,7.42-12.35.13-.22.27-.44.4-.66-.02-.09-.03-.21-.02-.32.05-1.08.09-2.17.12-3.26-3.88-5.95-7.56-12.06-10.23-18.67-.65-1.61-1.22-3.24-1.7-4.87-1.61-5.4-2.38-10.92-2.56-16.63,0-.09,0-.17,0-.25,0-.09,0-.18,0-.27-.08-2.9-.04-5.8-.04-8.71,0-3.46-.02-6.92-.3-10.38-.08-.94-.17-1.88-.3-2.82-.15-1.09-4.14-23.46-5.36-30.03-.19-1.03.39-2.02,1.37-2.37,0,0,0,0,.02,0,0-.02-.02-.05-.04-.07.29-.12.62-.2.94-.25.07-.03.12-.05.19-.07,0,0,0,.03,0,.04.06,0,.11-.03.17-.03,3.65-.25,5.31,4.26,6.64,6.92,1.56,3.11,2.97,6.28,4.24,9.52,1.08,2.77,2.06,5.57,2.94,8.4.35,1.11.68,2.22,1,3.34,1.57,5.54,2.77,11.16,3.7,16.84.77,4.71,1.33,9.46,1.73,14.23.02.21.04.42.06.62.08,1.01.15,2,.22,3.01.62,9.1.68,18.27.46,27.36-.03,1.18-.06,2.36-.09,3.52,3.46-5.76,6.92-11.52,10.38-17.28,1.13-1.88,2.26-3.77,3.39-5.64,1.51-2.51,3.01-5.01,4.51-7.51.85-1.4,1.68-2.8,2.53-4.2.35-.59.7-1.18,1.06-1.77.05-.09.09-.16.15-.23-2.16-8.18-.22-16.62,3.47-24.06.27-.53.54-1.06.83-1.59.36-.67.74-1.34,1.13-1.99,4.45-7.49,10.16-14.28,15.69-21.05.58-.71,1.17-1.43,1.75-2.15.44-.55.87-1.09,1.31-1.63.13-.18.28-.36.42-.53,1.48-1.86,2.94-3.72,4.44-5.58,1.1-1.36,2.59-2.69,4.49-2.21,1.54.39,2.25,1.41,2.47,2.66.37,2.04-.55,4.7-1.27,6.26-.42.91-.85,1.82-1.27,2.74-.92,1.97-1.85,3.92-2.8,5.88-1.49,3.1-3.02,6.19-4.57,9.27-3.34,6.62-6.81,13.18-10.4,19.68-3.33,6.03-6.76,12.01-10.31,17.92-.98,1.63-3.5.09-2.52-1.54,0,0,0,0,0-.02,3.64-6.08,7.16-12.23,10.59-18.44,1.67-3.04,3.32-6.1,4.95-9.17,1.25-2.38,2.5-4.78,3.72-7.19,2.03-3.97,4.02-7.97,5.97-11.99.79-1.62,1.57-3.26,2.34-4.89.18-.38.36-.76.53-1.15.84-1.77,2.05-3.65,2.18-5.64,0-.1.02-.25.03-.41,0-.46-.04-1.04-.42-1.11-.55-.12-1.43,1.19-1.68,1.5-.23.29-.47.58-.69.87-1.4,1.75-2.78,3.5-4.18,5.25-.82,1.03-1.64,2.06-2.46,3.1-.47.58-.93,1.17-1.4,1.76-4.55,5.72-10.02,12.03-14.13,18.86-.64,1.04-1.24,2.12-1.8,3.19-3.73,7.15-5.69,14.84-3.44,23,.17.6-.02,1.06-.37,1.38,0,.25-.06.52-.22.79-.46.76-.9,1.51-1.36,2.26-.55.91-1.1,1.82-1.64,2.75-1.11,1.84-2.22,3.69-3.32,5.53,2.4-1.88,5.02-3.5,7.78-4.79.03-.02.07-.04.1-.06.22-.1.45-.2.67-.3,4.62-2.04,9.42-3.06,14.45-3.56,2.75-.28,5.51-.47,8.22-1,2.53-.49,4.92-1.33,7.27-2.37.22-.09.44-.2.66-.3,2.82-1.31,5.75-2.91,8.75-4.32,6.35-3,13.04-5.23,19.87-2.44.65.27,1.04.73,1.07,1.45ZM208.95,61.57c2.4-1.23,4.61-2.85,5.05-5.1-4.82-1.51-9.98-.32-14.55,1.64-2.69,1.16-5.26,2.56-7.87,3.89-.66.34-1.33.67-1.99,1-1.31.64-2.64,1.23-4.01,1.76-4.94,1.9-10.06,2.2-15.26,2.76-2.77.3-5.48.86-8.08,1.69h0c-.97.3-1.93.64-2.87,1.02-4.12,1.65-7.94,3.98-11.29,6.95-.66.57-1.28,1.17-1.9,1.79,1.35-.11,2.7-.26,4.05-.41,3.24-.36,6.46-.82,9.67-1.37,2.27-.38,4.52-.81,6.76-1.28h0c7.69-1.61,15.29-3.71,22.72-6.31,4.87-1.7,9.68-3.62,14.38-5.74,1.37-.62,3.33-1.34,5.18-2.29h0ZM198.01,101.6c.35-.68.45-.69-.23-.85-.57-.14-1.26-.1-1.84-.15-.37-.03-.74-.07-1.11-.09-4.11-.33-8.23-.65-12.35-.85-.82-.04-1.62-.08-2.44-.11-3.64-.15-7.31-.22-10.98-.15-5.02.09-10.03.43-14.96,1.17-4.33.64-8.59,1.59-12.75,2.92-3.67,1.18-7.26,2.67-10.72,4.52,9.96,3.5,20.37,5.66,30.92,6.35.45.03.89.06,1.35.09l.63.03c.09,0,.19.02.29.02,1.74.09,3.5.14,5.25.14,7.39,0,14.88-1,21.19-4.88l.31-.2c.52-.34,1.04-.69,1.55-1.07,1.44-1.09,2.78-2.36,3.9-3.77.76-.96,1.42-1.99,1.99-3.08ZM186.12,152.01c2.14-.87,3.89-3.11,2.66-5.4-1.06-1.97-3.41-3.1-5.37-3.95-5.54-2.42-11.48-3.79-17.41-4.83-9.95-1.75-20.17-3.32-30.29-3.23-9.2.09-18.64,1.94-26.06,7.68,13.21,1.89,26.44,3.78,39.65,5.67,6.41.91,12.83,1.83,19.24,2.75,3.31.47,6.61.94,9.92,1.42,2.46.34,5.27.85,7.66-.12ZM143.75,217.8c1.58-1.4,3.34-3.82,2.15-5.98-1.24-2.24-4.5-3.04-6.8-3.54-2.65-.58-5.38-.7-8.08-.81-5.68-.21-11.2-.74-16.78-1.87-5.84-1.19-11.63-2.72-17.54-3.52-2.99-.42-6.13-.63-9.23-.51h-.07c-3.28.13-6.53.63-9.57,1.63-2.06.68-4.04,1.61-5.86,2.8,8.99,2.45,17.97,4.89,26.96,7.34,3.44.94,6.89,1.87,10.33,2.81,5.33,1.45,10.66,3.11,16.08,4.21,4.21.85,8.73,1.36,12.96.28,2.01-.52,3.92-1.44,5.48-2.83ZM127.9,106.99v-.03l-.02.03h.02ZM127.33,90.84c.15-8.59,0-17.18-.64-25.74-.08-.94-.15-1.88-.24-2.81-.11-1.33-.25-2.65-.39-3.97-.02-.15-.04-.29-.05-.45-.32-2.8-.69-5.6-1.14-8.4-1.07-6.73-2.56-13.39-4.57-19.88-.75-2.44-1.59-4.85-2.49-7.23-.29-.77-.6-1.54-.91-2.3-1.23-3.01-2.57-5.96-4.06-8.83-.41-.8-1.08-2.59-1.95-3.67-.37-.46-1.11-.11-1.01.47,1.75,9.56,5.39,31.11,5.52,33.89.13,2.72.14,5.46.12,8.2,0,3.14-.06,6.28.04,9.39,0,.21.02.42.03.62.05,1.29.12,2.57.23,3.86.63,7.23,2.92,13.92,6.04,20.27,1.61,3.3,3.45,6.5,5.39,9.62.03-1.01.05-2.02.07-3.04ZM107.59,128.57c-2.65-10.83-6.64-21.3-11.9-31.15-2.63-4.92-5.57-9.69-8.8-14.25-3.32-4.71-6.91-9.42-11.18-13.31-2.14-1.94-4.55-3.69-7.23-4.8-1.8-.75-6.41-2.46-7.96-.47-.84,1.08-.09,2.72.66,3.61.93,1.13,2.2,1.92,3.36,2.81,2.13,1.64,4.02,3.53,5.68,5.65,6.96,8.9,10.08,20.13,16.19,29.58,5.59,8.67,12.83,16.25,21.18,22.31ZM90.33,161.5c1.21-2.34-1.14-6.11-2.09-8.06-1.53-3.18-3.13-6.33-4.81-9.43-3.35-6.21-7-12.26-10.92-18.13-7.04-10.52-14.98-20.45-23.71-29.62-2.1-2.21-4.37-4.67-7.36-5.61-1.28-.41-2.94-.65-4.07.29-.93.78-1.06,2.14-.89,3.26.46,2.96,3.21,4.87,5.28,6.74,2.18,1.96,3.96,4.23,5.42,6.76,2.95,5.12,4.68,10.86,7.28,16.17,2.63,5.39,5.83,10.51,9.54,15.23,7.19,9.15,16.15,16.78,26.33,22.41ZM72.66,189.47c1.37-4.78-1.8-10.36-3.99-14.45-3.66-6.8-7.52-13.49-11.62-20.03-3.6-5.78-7.36-11.45-11.28-17-3.7-5.24-7.43-10.62-11.7-15.42-3.47-3.89-7.76-7.85-13.05-8.84-1.35-.26-2.79-.27-4.14,0-.46.08-1.42.17-1.68.61-.34.57.33,1.38.62,1.87,1.74,3.06,3.51,6.11,5.25,9.16,3.59,6.26,7.17,12.52,10.76,18.78,3.5,6.07,7.07,12.11,11.66,17.44,4.53,5.26,9.73,9.91,14.82,14.62l14.36,13.28ZM60.1,209.03c-.41-4.11-3.14-7.89-6.11-10.76-4.24-4.11-8.94-7.65-13-11.97-4.04-4.3-7.75-8.89-11.65-13.31-7.09-8.05-15.25-15.87-25.65-19.09,1.6,5.04,3.51,10,6.16,14.6,2.66,4.64,6.1,8.94,10.55,11.98,4.94,3.37,10.87,4.8,16.08,7.65,9.35,5.08,16.72,12.91,23.61,20.91Z"/>
  <path class="cls-1" d="M214,56.47c-.45,2.25-2.65,3.87-5.05,5.1h0c-1.84.95-3.81,1.67-5.18,2.29-4.7,2.12-9.51,4.04-14.38,5.74-7.43,2.59-15.03,4.7-22.72,6.31h0c-2.24.47-4.49.9-6.76,1.28-3.21.55-6.43,1.01-9.67,1.37-1.35.15-2.7.29-4.05.41.62-.62,1.24-1.22,1.9-1.79,3.35-2.97,7.17-5.3,11.29-6.95.94-.38,1.9-.71,2.87-1.03h0c2.6-.82,5.31-1.38,8.08-1.68,5.21-.56,10.33-.86,15.26-2.76,1.37-.52,2.7-1.12,4.01-1.76.66-.32,1.33-.66,1.99-1,2.6-1.33,5.18-2.73,7.87-3.89,4.57-1.97,9.74-3.15,14.55-1.64Z"/>
  <path class="cls-1" d="M197.79,100.75c.67.16.58.17.23.85-.56,1.08-1.23,2.12-1.99,3.08-1.12,1.42-2.46,2.68-3.9,3.77-.5.38-1.03.73-1.55,1.07l-.31.2c-6.31,3.89-13.8,4.88-21.19,4.88-1.76,0-3.51-.06-5.25-.14-.1,0-.2,0-.29-.02l-.63-.03c-.46-.03-.9-.06-1.35-.09-10.55-.68-20.95-2.85-30.92-6.35,3.47-1.85,7.06-3.34,10.72-4.52,4.16-1.33,8.42-2.28,12.75-2.92,4.93-.74,9.95-1.08,14.96-1.17,3.67-.07,7.34,0,10.98.15.82.04,1.62.08,2.44.11,4.12.21,8.24.52,12.35.85.37.03.74.07,1.11.09.58.05,1.27,0,1.84.15Z"/>
  <path class="cls-1" d="M188.78,146.62c1.23,2.29-.52,4.52-2.66,5.4-2.38.98-5.2.47-7.66.12-3.31-.47-6.61-.95-9.92-1.42-6.41-.92-12.83-1.84-19.24-2.75-13.21-1.89-26.44-3.78-39.65-5.67,7.42-5.75,16.85-7.59,26.06-7.68,10.13-.09,20.34,1.48,30.29,3.23,5.93,1.04,11.87,2.4,17.41,4.83,1.96.85,4.3,1.99,5.37,3.95Z"/>
  <path class="cls-1" d="M184.9,2.97c.38.08.43.66.42,1.11,0,.16-.02.3-.03.41-.12,1.99-1.34,3.88-2.18,5.64-.17.39-.35.77-.53,1.15-.77,1.63-1.55,3.27-2.34,4.89-1.95,4.02-3.93,8.02-5.97,11.99-1.23,2.41-2.47,4.81-3.72,7.19-1.62,3.07-3.28,6.13-4.95,9.17-3.43,6.2-6.95,12.36-10.59,18.44l-.49-.29c.16-.27.23-.54.22-.79.35-.31.54-.78.37-1.38-2.25-8.16-.29-15.84,3.44-23,.56-1.07,1.17-2.15,1.8-3.19,4.11-6.83,9.58-13.14,14.13-18.86.47-.59.93-1.18,1.4-1.76.82-1.04,1.64-2.07,2.46-3.1,1.4-1.76,2.78-3.51,4.18-5.25.23-.29.47-.58.69-.87.25-.31,1.13-1.62,1.68-1.5Z"/>
  <path class="cls-2" d="M166.49,181.2c1.39,1.82,1.99,4.39,1.12,6.56-.56,1.41-1.61,2.34-2.9,2.94-3.04,1.42-7.46,1.04-10.35.63-.08,0-.14-.02-.22-.03-2.02-.3-4.02-.76-5.97-1.31-3.07-.86-6.09-1.94-9.13-2.93-5.42-1.76-10.76-2.76-16.46-2.98-6.05-.23-12.04-.31-18.01-1.48-4.66-.92-9.2-2.35-13.56-4.22-1.2-.51-2.38-1.05-3.55-1.63-.62-.3-.81-.83-.72-1.33l.68-1.13c.06-.04.11-.08.18-.1,1.3-.64,2.62-1.21,3.95-1.72,9.9-3.84,20.75-4.69,31.29-3.69,5.51.52,10.96,1.5,16.35,2.75,3.39.78,6.76,1.66,10.12,2.6,2.14.6,4.27,1.22,6.4,1.85,1.13.33,2.26.67,3.39,1.02,2.71.82,5.63,1.86,7.4,4.2ZM163.11,188.11c1.55-.62,2.43-1.79,1.71-3.86-.95-2.7-4.07-3.66-6.55-4.41-.09-.03-.18-.06-.27-.08-2.55-.77-5.11-1.51-7.67-2.24-.45-.12-.9-.25-1.35-.38-2.51-.7-5.06-1.39-7.64-2.01-16.36-4.03-33.78-6.11-49.56.41,4.85,2.11,9.95,3.62,15.17,4.51,6.08,1.04,12.22.82,18.33,1.22,5.1.34,9.94,1.46,14.78,3.04,2.73.88,5.45,1.85,8.21,2.66.76.23,1.53.43,2.3.63,1.02.26,2.05.48,3.1.66,1.92.33,6.71.92,9.43-.15Z"/>
  <path class="cls-1" d="M164.82,184.25c.72,2.07-.16,3.24-1.71,3.86-2.73,1.07-7.51.48-9.43.15-1.04-.18-2.08-.41-3.1-.66-.77-.2-1.54-.4-2.3-.63-2.75-.81-5.48-1.78-8.21-2.66-4.84-1.58-9.68-2.7-14.78-3.04-6.12-.4-12.25-.18-18.33-1.22-5.21-.89-10.32-2.4-15.17-4.51,15.78-6.52,33.2-4.44,49.56-.41,2.57.63,5.13,1.31,7.64,2.01.45.13.9.26,1.35.38,2.56.73,5.12,1.47,7.67,2.24.09.02.18.05.27.08,2.48.75,5.6,1.71,6.55,4.41Z"/>
  <path class="cls-1" d="M145.89,211.82c1.2,2.17-.57,4.59-2.15,5.98-1.56,1.39-3.47,2.31-5.48,2.83-4.23,1.08-8.75.58-12.96-.28-5.42-1.1-10.75-2.75-16.08-4.21-3.44-.94-6.89-1.87-10.33-2.81-8.99-2.45-17.97-4.89-26.96-7.34,1.82-1.2,3.8-2.12,5.86-2.8,3.05-1.01,6.3-1.5,9.57-1.63h.07c3.11-.11,6.24.09,9.23.51,5.92.81,11.7,2.34,17.54,3.52,5.59,1.13,11.1,1.66,16.78,1.87,2.71.1,5.43.23,8.08.81,2.3.5,5.56,1.3,6.8,3.54Z"/>
  <path class="cls-1" d="M126.7,65.1c.65,8.56.79,17.15.64,25.74-.02,1.02-.04,2.03-.07,3.04-1.94-3.13-3.77-6.33-5.39-9.62-3.13-6.35-5.41-13.04-6.04-20.27-.1-1.28-.18-2.56-.23-3.86,0-.2-.02-.41-.03-.62-.09-3.12-.05-6.25-.04-9.39.02-2.74,0-5.48-.12-8.2-.13-2.78-3.77-24.34-5.52-33.89-.1-.58.64-.92,1.01-.47.86,1.07,1.54,2.87,1.95,3.67,1.48,2.88,2.83,5.82,4.06,8.83.31.76.62,1.53.91,2.3.9,2.37,1.74,4.79,2.49,7.23,2.01,6.49,3.5,13.16,4.57,19.88.45,2.79.82,5.59,1.14,8.4,0,.15.03.29.05.45.14,1.32.28,2.64.39,3.97.09.93.16,1.87.24,2.81Z"/>
  <path class="cls-1" d="M95.69,97.42c5.26,9.85,9.25,20.32,11.9,31.15-8.35-6.06-15.59-13.64-21.18-22.31-6.11-9.45-9.22-20.68-16.19-29.58-1.66-2.12-3.55-4.01-5.68-5.65-1.16-.89-2.43-1.68-3.36-2.81-.74-.89-1.49-2.53-.66-3.61,1.55-1.99,6.16-.28,7.96.47,2.68,1.11,5.09,2.86,7.23,4.8,4.27,3.89,7.86,8.6,11.18,13.31,3.23,4.56,6.16,9.33,8.8,14.25Z"/>
  <path class="cls-1" d="M88.24,153.44c.95,1.96,3.3,5.73,2.09,8.06-10.18-5.62-19.14-13.26-26.33-22.41-3.7-4.72-6.91-9.84-9.54-15.23-2.59-5.31-4.32-11.05-7.28-16.17-1.46-2.54-3.25-4.81-5.42-6.76-2.07-1.87-4.83-3.78-5.28-6.74-.17-1.12-.04-2.48.89-3.26,1.12-.94,2.78-.7,4.07-.29,2.99.94,5.26,3.4,7.36,5.61,8.73,9.17,16.67,19.09,23.71,29.62,3.92,5.87,7.57,11.92,10.92,18.13,1.68,3.11,3.28,6.25,4.81,9.43Z"/>
  <path class="cls-1" d="M68.67,175.02c2.19,4.08,5.36,9.67,3.99,14.45l-14.36-13.28c-5.09-4.71-10.29-9.36-14.82-14.62-4.59-5.33-8.16-11.37-11.66-17.44-3.59-6.26-7.17-12.52-10.76-18.78-1.75-3.05-3.51-6.1-5.25-9.16-.28-.49-.96-1.3-.62-1.87.27-.44,1.23-.53,1.68-.61,1.35-.26,2.79-.25,4.14,0,5.29,1,9.58,4.96,13.05,8.84,4.27,4.8,8,10.17,11.7,15.42,3.92,5.56,7.68,11.23,11.28,17,4.09,6.54,7.96,13.23,11.62,20.03Z"/>
  <path class="cls-1" d="M53.99,198.27c2.96,2.87,5.7,6.65,6.11,10.76-6.9-8-14.27-15.83-23.61-20.91-5.21-2.85-11.14-4.27-16.08-7.65-4.45-3.04-7.89-7.33-10.55-11.98-2.64-4.6-4.56-9.56-6.16-14.6,10.4,3.22,18.56,11.05,25.65,19.09,3.89,4.42,7.61,9,11.65,13.31,4.07,4.32,8.77,7.86,13,11.97Z"/>
</svg>