<?xml version="1.0" encoding="UTF-8"?>
<svg id="_圖層_1" data-name="圖層 1" xmlns="http://www.w3.org/2000/svg" xmlns:xlink="http://www.w3.org/1999/xlink" viewBox="0 0 199 226.57">
  <defs>
    <style>
      .cls-1 {
        fill: #c4f161;
      }

      .cls-2 {
        fill: none;
      }

      .cls-3 {
        fill: #49ae51;
      }

      .cls-4 {
        fill: #4b924e;
      }

      .cls-5 {
        fill: #ef5826;
      }

      .cls-6 {
        fill: #8bca5e;
      }

      .cls-7 {
        fill: #ff9c21;
      }

      .cls-8 {
        clip-path: url(#clippath);
      }
    </style>
    <clipPath id="clippath">
      <path class="cls-2" d="M38.95,173.2c37.28,1.05,74.57,1.42,111.86,1.1-5.27,16.71-13.59,32.45-24.41,46.22.84,2.64-1.24,5.78-4,6.03-2.75.25-5.38-2.45-5.03-5.2-13.55,1.33-27.24,1.22-40.77-.34-5.44-.62-11.76-1.19-15.57,2.73-.87.9-1.67,2.05-2.9,2.26-2.65.43-3.53-3.43-3.25-6.1-2.3,1.65-5.72.62-7.61-1.48-1.9-2.1-2.65-4.96-3.34-7.71-3.08-12.2-6.18-24.6-5.73-37.17"/>
    </clipPath>
  </defs>
  <path class="cls-3" d="M195.62,47.32c-6.52,18.42-13.05,36.86-20.47,54.93-.77,1.87-1.54,3.74-2.33,5.6-1.24,2.93-2.5,5.85-3.8,8.75-2.45,5.51-5.03,10.99-8.32,16.04-.05.08-.1.16-.16.23-.55.83-1.13,1.66-1.72,2.46-.13.18-.27.37-.41.55-.11.15-.22.29-.33.43,0,0,0,0,0,0-.22.29-.45.58-.68.87-.16.2-.32.4-.48.59-.39.48-.79.96-1.2,1.43-.21.23-.41.47-.62.7-.21.23-.42.46-.63.69-.12.13-.25.27-.37.4-.13.14-.26.28-.39.42-.29.3-.59.61-.88.9-.16.17-.33.34-.5.49-.04.04-.08.08-.12.12-.2.19-.4.38-.59.57-.05.05-.11.1-.16.15-.15.14-.3.28-.44.42-.14.13-.28.26-.43.39-.05.05-.1.09-.15.14-.21.19-.41.37-.63.56-.23.2-.45.4-.68.59-.2.17-.4.34-.61.51-.23.19-.45.37-.68.56-.14.11-.28.23-.42.34-.16.13-.32.25-.48.38-.24.19-.49.38-.74.57-.25.19-.5.38-.75.56-.16.12-.33.24-.5.36-.11.08-.22.16-.33.24-.27.19-.54.38-.81.57-.21.15-.43.3-.65.44-.26.18-.52.35-.78.52-.24.15-.47.3-.71.46-.04.03-.09.05-.13.08-.2.13-.4.25-.6.37-.23.15-.47.29-.7.43-.17.1-.34.21-.51.3-.1.06-.19.12-.29.17-.16.1-.33.19-.5.29-.25.14-.49.28-.74.41-.21.12-.42.23-.63.35-.26.14-.52.28-.79.42-.29.15-.58.3-.87.45-.28.14-.56.28-.84.41-.56.27-1.12.54-1.69.8-.28.13-.57.26-.85.38-.87.38-1.76.75-2.65,1.09-.24.1-.49.19-.73.28-.05.02-.1.04-.15.05-.21.08-.43.16-.64.24-.09.03-.18.06-.26.09-.2.07-.4.14-.6.21-.16.05-.32.11-.47.16-.4.14-.81.27-1.21.4-.25.08-.49.15-.74.23-.08.02-.15.05-.23.07-.15.04-.29.09-.44.13-.22.07-.44.13-.66.19-1.5.42-3.01.79-4.53,1.1-.18.04-.37.07-.55.11-.16.03-.33.07-.49.1-.59.11-1.18.21-1.76.31-.24.04-.48.08-.71.11-.08.01-.16.02-.23.04-.23.04-.47.07-.7.1-.24.04-.47.07-.7.09-.24.03-.49.06-.74.09-.24.03-.48.05-.71.07-.21.02-.41.04-.62.06-.25.02-.5.04-.75.06-.21.02-.43.03-.64.05-.21.02-.41.03-.62.04-.3.02-.59.04-.89.05-.28.01-.56.02-.84.03-.23,0-.45.01-.67.02-3.45.07-6.92-.14-10.34-.66-.31-.05-.61-.09-.92-.15-.73,5.99-1.46,11.98-2.19,17.97-.07.58-.18,1.23-.63,1.6-.44.36-1.07.35-1.65.31-3.1-.19-6.19-.41-9.29-.66-3.61-.29-7.21-.62-10.81-.99-.84-.09-1.74-.19-2.38-.74-.33-.27-.55-.63-.7-1.02l-1.19,1.33-.04-14.16c-.54-.08-1.08-.18-1.62-.29-.16-.03-.32-.07-.48-.1-.21-.04-.41-.09-.62-.14-.12-.03-.23-.05-.35-.09-.12-.03-.23-.06-.34-.09-.16-.04-.32-.09-.48-.13-.18-.05-.35-.1-.52-.15-.3-.09-.6-.18-.9-.28-.52-.17-1.04-.35-1.55-.54-.17-.06-.34-.13-.51-.19-.11-.04-.21-.08-.32-.13-.13-.05-.26-.11-.39-.16-.15-.06-.3-.13-.46-.19-.16-.07-.31-.13-.46-.2-.29-.13-.58-.26-.86-.4-.16-.08-.33-.16-.49-.24-.25-.12-.5-.25-.74-.38-.82-.43-1.62-.88-2.41-1.36-.1-.06-.19-.12-.29-.18-.28-.17-.56-.35-.84-.53-.22-.14-.44-.29-.66-.44-.08-.05-.16-.11-.25-.17-.03-.02-.06-.04-.1-.07-.22-.15-.43-.3-.64-.45-.26-.19-.52-.37-.78-.57-.02-.01-.04-.02-.05-.04-.22-.16-.44-.33-.65-.5-.09-.07-.17-.13-.25-.2-.21-.16-.41-.32-.61-.49-.01-.01-.02-.02-.04-.03-.26-.21-.52-.43-.77-.64-.02-.01-.03-.02-.04-.04-.23-.19-.45-.39-.67-.58-1.3-1.15-2.55-2.37-3.73-3.64-.2-.21-.4-.43-.59-.65-.21-.23-.42-.47-.63-.71-.45-.52-.9-1.05-1.33-1.58-.15-.19-.3-.38-.45-.56-.08-.1-.15-.19-.23-.29-.17-.21-.34-.43-.5-.65-.28-.37-.56-.74-.83-1.11-.48-.67-.95-1.34-1.4-2.02-.15-.22-.3-.44-.44-.66-.17-.27-.35-.53-.52-.8-.1-.16-.21-.32-.31-.49-.08-.13-.16-.25-.24-.38-.13-.21-.26-.41-.38-.62-.03-.05-.06-.1-.09-.15-.12-.2-.24-.41-.36-.61-.1-.17-.21-.35-.3-.52-.11-.18-.21-.36-.31-.54-.57-1-1.12-2.02-1.65-3.04-.12-.23-.24-.45-.35-.68-.31-.6-.61-1.21-.9-1.81-.15-.31-.3-.62-.45-.93-.14-.29-.27-.57-.41-.86-.04-.09-.08-.17-.12-.26-.13-.29-.27-.58-.4-.87-.14-.3-.27-.6-.41-.9-.35-.78-.69-1.56-1.02-2.35-.11-.26-.22-.52-.33-.79-.66-1.56-1.3-3.14-1.92-4.72-.16-.42-.33-.84-.49-1.26-.21-.53-.41-1.06-.61-1.58-.61-1.59-1.21-3.17-1.81-4.76-.9-2.38-1.8-4.77-2.66-7.16-.17-.47-.34-.94-.51-1.41-.15-.41-.3-.83-.44-1.25-.04-.11-.08-.23-.12-.34-.13-.38-.27-.76-.4-1.14-.02-.05-.03-.1-.05-.15-.15-.42-.29-.85-.43-1.27-.14-.42-.28-.85-.42-1.27-.09-.27-.18-.54-.26-.82-.11-.35-.22-.71-.33-1.06-.04-.14-.09-.28-.13-.42-.12-.38-.23-.75-.34-1.13-.08-.27-.16-.55-.24-.82-.09-.32-.19-.65-.28-.98-.11-.38-.21-.76-.31-1.14-.11-.39-.21-.79-.31-1.18-2.03-7.97-3.09-16.14-4.15-24.3-1.46-11.19-2.91-22.39-4.36-33.58-.32-2.45-.63-4.98-.17-7.39.07-.39.17-.77.29-1.15.02-.06.04-.13.06-.19.92-2.79,3.54-5.25,6.46-4.97,1.51.14,2.7.89,3.63,1.98.35.4.66.86.94,1.35.35.6.64,1.27.9,1.95.58,1.54.94,3.23,1.17,4.78,1.96,13.19,3.91,26.39,5.87,39.58.17,1.14.34,2.27.51,3.41,1.42,9.58,2.86,19.23,5.21,28.61.93,3.71,2,7.37,3.27,10.97.38,1.08.78,2.16,1.19,3.22,1.36,3.49,2.96,6.92,4.79,10.21.39.7.79,1.4,1.19,2.08,1.6,2.67,3.35,5.25,5.28,7.68,4.36,5.5,9.56,10.26,15.66,13.75-.57-5.11-3.6-9.54-6.3-13.91-.27-.44-.54-.89-.81-1.34-.05-.08-.1-.16-.14-.24-.18-.3-.36-.6-.53-.9-.14-.24-.27-.47-.41-.71l-.62-1.08c-.26-.46-.51-.91-.77-1.37,0,0,0,0,0,0-.38-.7-.76-1.4-1.13-2.1-.24-.44-.47-.89-.7-1.33-2.89-5.62-5.39-11.4-7.55-17.31h0c-.38-1.05-.75-2.08-1.11-3.13h0c-.52-1.49-1.01-2.99-1.48-4.49-1.35-4.28-2.55-8.63-3.62-13.02h0c-2.26-9.31-3.94-18.81-5.25-28.4-1.4-10.24-2.39-20.58-3.21-30.84-.18-2.24-.35-4.48-.52-6.71-.07-.89-.13-1.81.14-2.66.04-.11.08-.22.12-.33.03-.07.06-.13.09-.19.02-.05.05-.1.08-.14.03-.06.07-.12.1-.17.04-.05.07-.1.11-.16.03-.04.06-.08.09-.12.06-.08.13-.15.2-.23.04-.04.07-.07.11-.11.04-.04.07-.07.11-.1.05-.04.1-.09.15-.13.14-.11.3-.22.46-.31.02,0,.03-.02.05-.02.06-.03.11-.06.17-.09.06-.03.12-.06.18-.09.12-.05.24-.1.36-.15.09-.03.17-.06.26-.09.05-.02.1-.03.15-.04.06-.02.12-.03.18-.04.02,0,.04-.01.05-.01.03,0,.06-.01.09-.02.07-.01.13-.02.2-.04.09-.01.17-.02.25-.04.05,0,.09-.01.14-.01,1.08-.1,2.21.11,3.14.63.07.04.15.09.22.13.05.03.1.06.15.1.04.02.08.05.12.08.12.08.24.16.36.26.06.05.12.1.18.15.01,0,.02.01.03.02.06.05.12.1.18.15.09.07.17.15.25.23.08.08.16.16.24.24.16.16.31.33.45.5.01.01.02.03.04.05.08.09.15.18.22.28.02.03.05.06.07.09.05.07.1.13.15.2.05.07.1.13.14.21.03.04.06.09.09.13.07.1.13.2.19.3.01.02.02.03.03.05.04.06.08.13.12.19.05.09.1.18.15.26.14.24.27.5.4.75.01.02.02.03.02.05.05.09.09.19.14.28.29.59.55,1.2.79,1.8,3.02,7.58,4.41,15.69,5.61,23.75.42,2.83.82,5.66,1.21,8.5.12.83.23,1.67.35,2.51,0,0,0,.02,0,.02,1.94,14.2,3.76,28.51,6.98,42.36,1.64,7.06,3.64,14,6.2,20.75.21.55.42,1.09.63,1.63.15.38.3.75.45,1.12.26.64.52,1.27.8,1.91h0c.19.45.38.9.58,1.35.19.45.4.9.6,1.34.2.44.41.89.62,1.33.21.44.42.89.63,1.33,1.12,2.31,3.18,4.99,5.64,4.25-1.03-5.23-2.02-10.47-2.97-15.71-1.17-6.43-2.28-12.86-3.34-19.31-2.33-14.19-4.4-28.44-6.2-42.71-1.52-12.06-2.85-24.14-3.99-36.24-.3-3.24-.54-6.73,1.12-9.53.05-.09.11-.18.17-.27.06-.1.12-.19.19-.28.07-.09.13-.18.2-.27.16-.22.34-.42.53-.62.06-.07.12-.13.19-.19.21-.22.44-.43.68-.62.08-.07.16-.13.24-.2.18-.14.37-.28.56-.41.09-.06.19-.13.28-.19.69-.44,1.44-.83,2.22-1.16.07-.03.15-.07.23-.1.11-.04.22-.09.32-.13.15-.06.29-.12.44-.17.18-.06.36-.13.54-.19.22-.08.44-.15.67-.22.16-.05.31-.1.47-.14.16-.05.31-.09.47-.13.07-.02.14-.04.21-.06.17-.05.35-.1.52-.14.12-.03.23-.06.34-.09.81-.21,1.69-.4,2.47-.08,1.21.5,1.62,1.97,1.87,3.26.03.16.06.32.09.49.12.62.23,1.25.34,1.87.05.27.1.55.14.83,0,.02,0,.04.01.06.07.44.15.88.22,1.33.02.09.03.18.04.27.04.22.07.44.1.66.05.32.1.64.15.96.04.28.08.55.12.83.05.38.11.76.16,1.14.04.32.09.64.13.95.01.09.02.18.04.27.02.18.05.37.07.55,0,.04.01.09.02.13.05.36.09.71.13,1.07.09.72.17,1.44.25,2.16.03.24.05.48.08.72.03.25.05.49.08.74.03.29.06.58.09.88.04.34.07.68.1,1.03.08.88.16,1.76.23,2.64.03.41.07.83.1,1.24.11,1.4.21,2.8.29,4.2.03.47.06.93.08,1.4.03.47.05.94.08,1.4.05.94.09,1.87.13,2.81.02.53.05,1.05.07,1.58.03.72.05,1.44.08,2.16.02.63.04,1.26.06,1.89.01.47.03.93.04,1.4.01.48.03.96.04,1.44.01.46.02.93.04,1.39.03,1.41.06,2.82.09,4.23.3,15.48.28,30.98,2.05,46.13.61,5.21,1.43,10.38,2.55,15.49,1.04,4.78,2.35,9.51,3.98,14.18,2.17-4.81,2.74-10.17,3.11-15.44.07-1.01.13-2.02.19-3.02.21-3.73.35-7.47.4-11.2.12-7.46-.03-14.92-.35-22.39h0c-.83-19.67-2.78-39.34-3.66-59.02-.04-.98-.07-2.01-.03-3.03,0-.11,0-.22.01-.33.02-.44.05-.88.1-1.32.02-.22.05-.44.08-.65.05-.32.1-.65.17-.96.02-.11.05-.21.07-.32.09-.38.2-.76.33-1.13.02-.06.04-.11.06-.17.03-.08.05-.15.09-.23.04-.09.07-.18.11-.27.12-.26.24-.52.38-.76,0,0,0-.01.01-.02.02-.05.05-.09.08-.13.03-.06.07-.12.1-.17.07-.1.13-.21.21-.31.07-.1.15-.2.23-.3.35-.45.76-.86,1.23-1.22,3.41-2.61,8.71-1.06,11.45,2.25.1.12.2.24.3.37.06.08.12.15.17.23.05.06.09.13.14.19h0c.06.09.12.17.17.25.04.05.07.09.09.14.05.07.1.15.14.22.07.1.13.21.19.31.13.21.24.43.36.65.11.22.22.44.32.66.32.69.59,1.4.82,2.13.03.1.06.19.09.29.07.24.14.48.21.72.06.23.12.46.17.69.13.52.23,1.06.33,1.59.04.2.07.4.1.6.03.2.06.4.09.6.06.4.12.81.16,1.21.02.16.04.31.05.47.03.25.06.49.08.74.72,6.81.79,13.66.87,20.51.14,12.21.27,24.46.03,36.68-.14,7.08-.41,14.16-.88,21.22-.18,2.79-.4,5.57-.65,8.35-.51,5.61-1.16,11.21-2,16.79.38-.54.76-1.08,1.14-1.64,1.39-4.56,2.78-9.13,4.18-13.69l2.99-9.81,7.69-25.24c4.68-15.35,9.36-30.7,14.04-46.06.77-2.52,1.54-5.04,2.31-7.57.1-.33.2-.66.31-.99.04-.11.07-.22.11-.33.04-.11.07-.22.11-.33.12-.33.24-.65.38-.97.04-.1.09-.2.13-.29.04-.1.09-.19.14-.29.04-.08.08-.16.12-.23.1-.2.22-.4.34-.59.02-.03.04-.06.06-.09.05-.09.12-.18.18-.27.06-.09.13-.18.19-.26.07-.1.15-.2.24-.29.02-.03.05-.06.07-.09.07-.08.14-.15.21-.23l.03-.03c.09-.09.18-.18.28-.26,2.88-2.52,7.31-1.57,10.94-.35,1.61.54,3.35,1.23,4.13,2.73.37.7.46,1.46.41,2.25,0,.09-.01.19-.02.29-.01.1-.02.19-.04.29-.02.11-.03.21-.05.32-.02.09-.03.17-.05.26,0,.02,0,.04-.01.06-.02.11-.05.21-.08.32,0,.04-.02.07-.03.11-.02.05-.03.11-.05.16,0,.04-.02.07-.03.11-.02.08-.05.17-.07.25,0,.02-.01.05-.02.07-.04.12-.07.23-.11.34-.05.17-.11.34-.17.5-.26.75-.52,1.53-.79,2.33-.11.34-.23.67-.34,1.01-.62,1.85-1.27,3.8-1.95,5.85-.09.28-.18.56-.28.84,0,.02-.01.04-.02.06-.14.43-.29.87-.43,1.3-.57,1.75-1.17,3.57-1.77,5.43-.13.4-.26.8-.39,1.21-.05.16-.1.32-.16.49-.2.61-.4,1.23-.6,1.85-.13.39-.26.79-.38,1.19-.12.35-.23.71-.35,1.07-.51,1.59-1.03,3.2-1.56,4.83-.23.7-.45,1.41-.68,2.12-.23.71-.46,1.43-.69,2.14-.07.2-.13.41-.19.61-.17.51-.33,1.03-.5,1.55-.5,1.55-1,3.12-1.51,4.69-.2.63-.41,1.26-.61,1.89-.47,1.47-.95,2.95-1.43,4.44h0c-3.49,10.83-7.07,21.83-10.45,31.81-2.1,6.19-4.12,11.99-6,17.1-.83,2.27-1.64,4.41-2.41,6.38,3.57-.9,6.73-2.9,9.37-5.49,1.88-1.85,3.5-4,4.82-6.28,2.12-3.66,3.57-7.65,4.8-11.71.6-2,1.16-4.01,1.71-6.02,2.83-10.21,5.79-20.38,8.89-30.5.62-2.04,1.25-4.08,1.89-6.12,1.67-5.35,3.38-10.69,5.12-16.02.21-.65.43-1.31.66-1.97.07-.19.14-.38.21-.57.01-.03.02-.05.03-.08.08-.21.16-.42.24-.63,0-.01.01-.03.02-.05.05-.13.1-.27.16-.4.03-.08.07-.16.1-.24.06-.15.13-.31.2-.46.05-.13.11-.26.17-.38,0-.01,0-.02.01-.04.02-.04.04-.09.06-.13,0-.01.01-.03.02-.04.05-.12.11-.23.16-.35.02-.05.05-.11.08-.16.07-.14.14-.27.21-.41.09-.16.18-.33.27-.49.19-.34.4-.67.62-1,.05-.07.1-.14.15-.21.16-.23.33-.45.5-.66.24-.3.49-.58.76-.85.05-.05.1-.1.15-.15.11-.11.22-.21.33-.31,2.72-2.46,7.37-3.19,9.92-.56.05.05.1.1.14.15.13.14.24.28.35.43.04.05.07.1.11.15.07.1.13.19.19.29.06.1.11.19.17.29.05.1.1.19.15.29.02.05.05.1.07.14.02.05.04.1.07.15.04.1.09.2.12.3.04.1.07.21.11.31.06.19.12.37.17.56.01.03.02.06.02.09.03.1.05.21.07.31.02.08.04.16.05.24.05.25.1.49.13.74.01.07.02.15.03.22,0,.04.01.08.02.12.06.45.1.9.12,1.34.38,6.26-.88,12.49-2.4,18.57-1.59,6.34-3.47,12.61-5.63,18.78h0c-2.21,6.32-4.71,12.54-7.5,18.63-1.02,2.24-2.09,4.47-3.19,6.68-1.31,2.63-2.68,5.22-4.1,7.79-1.99,3.61-4.11,7.23-5.81,10.98-1.35,2.99-2.42,6.07-2.94,9.32,3.22-2.35,6.04-5.09,8.55-8.11,3.82-4.59,6.92-9.82,9.61-15.33.75-1.54,1.46-3.09,2.15-4.66,1.78-4.05,3.38-8.18,4.92-12.27,2.36-6.25,4.68-12.53,6.98-18.8.94-2.57,1.89-5.14,2.83-7.71,2.7-7.37,5.42-14.85,6.22-22.65.03-.29.06-.59.08-.88.15-1.73.2-3.51.44-5.24.24-1.74.67-3.41,1.57-4.92.47-.79,1.07-1.48,1.75-2.05.31-.26.64-.5.99-.71.05-.03.1-.06.15-.09,3.61-2.16,8.8-1.9,11.75,1.22.83.88,1.46,1.86,1.9,2.92,2.01,4.79.36,11.04-1.49,16.25Z"/>
  <path class="cls-4" d="M160.54,132.88c-.55.83-1.13,1.66-1.72,2.46-.13.18-.27.37-.41.55-.11.15-.22.29-.33.43,0,0,0,0,0,0-.22.29-.45.58-.68.87-.16.2-.32.4-.48.59-.39.48-.79.96-1.2,1.43-.21.23-.41.47-.62.7-.21.23-.42.46-.63.69-.12.13-.25.27-.37.4-.13.14-.26.28-.39.42-.29.3-.59.61-.88.9-.16.17-.33.34-.5.49-.04.04-.08.08-.12.12-.2.19-.4.38-.59.57-.05.05-.11.1-.16.15-.15.14-.3.28-.44.42-.14.13-.28.26-.43.39-.05.05-.1.09-.15.14-.21.19-.41.37-.63.56-.23.2-.45.4-.68.59-.2.17-.4.34-.61.51-.23.19-.45.37-.68.56-.14.11-.28.23-.42.34-.16.13-.32.25-.48.38-.24.19-.49.38-.74.57-.25.19-.5.38-.75.56-.16.12-.33.24-.5.36-.11.08-.22.16-.33.24-.27.19-.54.38-.81.57-.21.15-.43.3-.65.44-.26.18-.52.35-.78.52-.24.15-.47.3-.71.46-.04.03-.09.05-.13.08-.2.13-.4.25-.6.37-.23.15-.47.29-.7.43-.17.1-.34.21-.51.3-.1.06-.19.12-.29.17-.16.1-.33.19-.5.29-.25.14-.49.28-.74.41-.21.12-.42.23-.63.35-.26.14-.52.28-.79.42-.29.15-.58.3-.87.45-.28.14-.56.28-.84.41-.56.27-1.12.54-1.69.8-.28.13-.57.26-.85.38-.87.38-1.76.75-2.65,1.09-.24.1-.49.19-.73.28-.05.02-.1.04-.15.05-.21.08-.43.16-.64.24-.09.03-.18.06-.26.09-.2.07-.4.14-.6.21-.16.05-.32.11-.47.16-.4.14-.81.27-1.21.4-.25.08-.49.15-.74.23-.08.02-.15.05-.23.07-.15.04-.29.09-.44.13-.22.07-.44.13-.66.19-1.5.42-3.01.79-4.53,1.1-.18.04-.37.07-.55.11-.16.03-.33.07-.49.1-.59.11-1.18.21-1.76.31-.24.04-.48.08-.71.11-.08.01-.16.02-.23.04-.23.04-.47.07-.7.1-.24.04-.47.07-.7.09-.24.03-.49.06-.74.09-.24.03-.48.05-.71.07-.21.02-.41.04-.62.06-.25.02-.5.04-.75.06-.21.02-.43.03-.64.05-.21.02-.41.03-.62.04-.3.02-.59.04-.89.05-.28.01-.56.02-.84.03-.23,0-.45.01-.67.02-3.45.07-6.92-.14-10.34-.66-2.72-.83-5.48-1.01-7.93.34-.72.4-1.34.87-1.87,1.42-1.23,1.26-1.99,2.88-2.52,4.68h0c-1.11,3.84-1.14,8.53-2.29,12.43-.02.07-.04.14-.06.2-3.61-.29-7.21-.62-10.81-.99-.84-.09-1.74-.19-2.38-.74-.33-.27-.55-.63-.7-1.02l-1.19,1.33-.04-14.16c-.54-.08-1.08-.18-1.62-.29-.16-.03-.32-.07-.48-.1-.21-.04-.41-.09-.62-.14-.12-.03-.23-.05-.35-.09-.12-.03-.23-.06-.34-.09-.16-.04-.32-.09-.48-.13-.18-.05-.35-.1-.52-.15-.3-.09-.6-.18-.9-.28-.52-.17-1.04-.35-1.55-.54-.17-.06-.34-.13-.51-.19-.11-.04-.21-.08-.32-.13-.13-.05-.26-.11-.39-.16-.15-.06-.3-.13-.46-.19-.16-.07-.31-.13-.46-.2-.29-.13-.58-.26-.86-.4-.16-.08-.33-.16-.49-.24-.25-.12-.5-.25-.74-.38-.82-.43-1.62-.88-2.41-1.36-.1-.06-.19-.12-.29-.18-.28-.17-.56-.35-.84-.53-.22-.14-.44-.29-.66-.44-.08-.05-.16-.11-.25-.17-.03-.02-.06-.04-.1-.07-.22-.15-.43-.3-.64-.45-.26-.19-.52-.37-.78-.57-.02-.01-.04-.02-.05-.04-.22-.16-.44-.33-.65-.5-.09-.07-.17-.13-.25-.2-.21-.16-.41-.32-.61-.49-.01-.01-.02-.02-.04-.03-.26-.21-.52-.43-.77-.64-.02-.01-.03-.02-.04-.04-.23-.19-.45-.39-.67-.58-1.3-1.15-2.55-2.37-3.73-3.64-.2-.21-.4-.43-.59-.65-.21-.23-.42-.47-.63-.71-.45-.52-.9-1.05-1.33-1.58-.15-.19-.3-.38-.45-.56-.08-.1-.15-.19-.23-.29-.17-.21-.34-.43-.5-.65-.28-.37-.56-.74-.83-1.11-.48-.67-.95-1.34-1.4-2.02-.15-.22-.3-.44-.44-.66-.17-.27-.35-.53-.52-.8-.1-.16-.21-.32-.31-.49-.08-.13-.16-.25-.24-.38-.13-.21-.26-.41-.38-.62-.03-.05-.06-.1-.09-.15-.12-.2-.24-.41-.36-.61-.1-.17-.21-.35-.3-.52-.11-.18-.21-.36-.31-.54-.57-1-1.12-2.02-1.65-3.04-.12-.23-.24-.45-.35-.68-.31-.6-.61-1.21-.9-1.81-.15-.31-.3-.62-.45-.93-.14-.29-.27-.57-.41-.86-.04-.09-.08-.17-.12-.26-.13-.29-.27-.58-.4-.87-.14-.3-.27-.6-.41-.9-.35-.78-.69-1.56-1.02-2.35-.11-.26-.22-.52-.33-.79-.66-1.56-1.3-3.14-1.92-4.72-.16-.42-.33-.84-.49-1.26-.21-.53-.41-1.06-.61-1.58-.61-1.59-1.21-3.17-1.81-4.76-.9-2.38-1.8-4.77-2.66-7.16-.17-.47-.34-.94-.51-1.41-.15-.41-.3-.83-.44-1.25-.04-.11-.08-.23-.12-.34-.13-.38-.27-.76-.4-1.14-.02-.05-.03-.1-.05-.15-.15-.42-.29-.85-.43-1.27-.14-.42-.28-.85-.42-1.27-.09-.27-.18-.54-.26-.82-.11-.35-.22-.71-.33-1.06-.04-.14-.09-.28-.13-.42-.12-.38-.23-.75-.34-1.13-.08-.27-.16-.55-.24-.82-.09-.32-.19-.65-.28-.98-.11-.38-.21-.76-.31-1.14-.11-.39-.21-.79-.31-1.18-2.03-7.97-3.09-16.14-4.15-24.3-1.46-11.19-2.91-22.39-4.36-33.58-.32-2.45-.63-4.98-.17-7.39.27.18.53.38.77.59,2.27,1.98,3.47,4.9,4.36,7.79,2.36,7.66,3.06,15.69,4.06,23.65.02.2.05.4.08.6,0,0,0,0,0,0,.05.44.11.88.17,1.32,1.02,7.66,2.47,15.25,4.36,22.74h0c.03.11.05.22.08.33.07.27.14.54.21.81h0c1.52,5.92,3.3,11.76,5.34,17.51,1.32,3.74,2.76,7.44,4.29,11.1h0c.4.94.8,1.88,1.21,2.81,1.07,2.43,2.18,4.84,3.34,7.23.97,1.99,1.97,3.97,3,5.93.59,1.12,1.28,2.28,2.08,3.34.08.11.16.21.24.32.39.51.8.98,1.24,1.42.34.34.69.65,1.05.93,1.44,1.13,3.1,1.76,4.94,1.46-.02-.12-.05-.25-.06-.37,4.36,5.5,9.56,10.26,15.66,13.75-.57-5.11-3.6-9.54-6.3-13.91-.27-.44-.54-.89-.81-1.34-.05-.08-.1-.16-.14-.24-.18-.3-.36-.6-.53-.9-.14-.24-.27-.47-.41-.71l-.62-1.08c-.26-.46-.51-.91-.77-1.37,0,0,0,0,0,0-.38-.7-.76-1.4-1.13-2.1-.24-.44-.47-.89-.7-1.33,1.38-1.17,2.99-2.12,4.62-2.77,1.53-.6,3.11-1.05,4.72-1.42.21.55.42,1.09.63,1.63.15.38.3.75.45,1.12.26.64.52,1.27.8,1.91h0c.19.45.38.9.58,1.35.19.45.4.9.6,1.34.2.44.41.89.62,1.33.21.44.42.89.63,1.33,1.12,2.31,3.18,4.99,5.64,4.25-1.03-5.23-2.02-10.47-2.97-15.71,1.44-.33,2.87-.72,4.26-1.23,1.88-.69,3.66-1.6,5.39-2.59,1.04,4.78,2.35,9.51,3.98,14.18,2.17-4.81,2.74-10.17,3.11-15.44.07-1.01.13-2.02.19-3.02.3-.16.59-.32.89-.47,2.2-1.13,4.6-2.07,7.04-2.53,1.11-.21,2.23-.31,3.34-.29,1.07.02,2.14.16,3.17.44-.51,5.61-1.16,11.21-2,16.79.38-.54.76-1.08,1.14-1.64,1.39-4.56,2.78-9.13,4.18-13.69,2.12,1.28,4,3.02,6.12,4.34,2.35,1.46,4.86,2.38,7.49,2.95-.83,2.27-1.64,4.41-2.41,6.38,3.57-.9,6.73-2.9,9.37-5.49,5.19.31,10.58.1,15.74.79-1.35,2.99-2.42,6.07-2.94,9.32,3.22-2.35,6.04-5.09,8.55-8.11,4.53,1.44,8.72,4.05,12.04,7.43h0c.99,1.01,1.9,2.08,2.72,3.21Z"/>
  <path class="cls-6" d="M47.45,48.87c.55,3.66,1.06,7.34,1.56,11.03-.32-.14-.64-.3-.96-.48-5.78-3.26-11.1-15.02-13.93-20.77-1.37-2.8-2.48-5.71-3.5-8.65h0c-.18-2.24-.35-4.48-.52-6.72-.07-.89-.13-1.81.14-2.66.82-2.61,4.48-3.33,6.87-2,2.39,1.33,3.72,3.95,4.73,6.49,3.01,7.58,4.41,15.68,5.61,23.75Z"/>
  <path class="cls-6" d="M70.56,11.39c2.8,14.67,3.38,29.69,3.66,44.74-.28-.06-.56-.1-.86-.13-4.43-.46-9.08,1.98-13.73,3.55-1.52-12.06-2.85-24.14-3.99-36.24-.3-3.24-.54-6.73,1.12-9.53,1.92-3.23,5.82-4.64,9.46-5.57.81-.21,1.7-.4,2.47-.08,1.21.5,1.62,1.97,1.87,3.26Z"/>
  <path class="cls-6" d="M102.04,44.36c.14,12.21.28,24.46.03,36.68-.23.1-.47.2-.7.31-2.69,1.2-6.98,3.98-9.98,3.72-3.35-.29-4.53-2.51-5.24-5.2h0c-.83-19.67-2.77-39.34-3.65-59.02-.18-4.08-.03-8.83,3.22-11.31,3.42-2.61,8.71-1.06,11.45,2.25,2.75,3.31,3.55,7.79,4,12.07.72,6.81.79,13.66.87,20.51Z"/>
  <path class="cls-6" d="M148.55,25.55c-3.91,11.4-9.15,27.93-14.62,44.9h0c-3.3,2.32-6.87,4.07-11.59,4.96-2.68.5-5.25,1.01-7.78,1.61,5.45-17.88,10.9-35.75,16.35-53.63.62-2.02,1.3-4.16,2.9-5.55,2.88-2.52,7.31-1.57,10.94-.35,1.61.54,3.35,1.23,4.13,2.73.85,1.62.27,3.59-.33,5.33Z"/>
  <path class="cls-6" d="M168.8,39.6c.38,6.26-.88,12.49-2.4,18.57-1.59,6.34-3.47,12.61-5.63,18.78h0c-.58.4-1.11.68-1.58.78-5.34,1.05-3.48-2.85-3.39-6.68.08-3.57-1.03-7.72-3.61-10.68-2.27-2.61-3.86-2.2-5.63-.76,1.67-5.35,3.38-10.69,5.12-16.02,1.14-3.48,2.4-7.12,5.12-9.58,2.72-2.46,7.37-3.19,9.92-.56,1.54,1.58,1.96,3.94,2.09,6.14Z"/>
  <path class="cls-6" d="M195.62,47.32c-6.52,18.42-13.05,36.86-20.47,54.93-.77,1.87-1.54,3.74-2.33,5.6-1.55-1.25-2.47-3.29-3-5.6-.22-.95-.37-1.94-.47-2.95-.11-1.1-.16-2.22-.16-3.3,0-1.04.02-2.03.07-2.95.19-3.47,4.59-19.97.74-21.72-.18-.08-.37-.13-.55-.15.94-2.57,1.89-5.14,2.83-7.71,2.7-7.37,5.42-14.85,6.22-22.65.03-.29.06-.59.08-.88.15-1.73.2-3.51.44-5.24.24-1.74.67-3.41,1.57-4.92.47-.79,1.07-1.48,1.75-2.05.31-.26.64-.5.99-.71.05-.03.1-.06.15-.09,3.61-2.16,8.8-1.9,11.75,1.22.83.88,1.46,1.86,1.9,2.92,2.01,4.79.36,11.04-1.49,16.25Z"/>
  <path class="cls-1" d="M176.4,66.01c.2,1.29.41,2.57.61,3.86.09.57.8.89,1.32.75.61-.17.84-.74.75-1.32-.2-1.29-.41-2.57-.61-3.86-.09-.57-.8-.89-1.32-.75-.61.17-.84.74-.75,1.32h0Z"/>
  <path class="cls-1" d="M184.73,51.85c-.24,1.66.16,3.14,1.21,4.45.36.45,1.14.38,1.51,0,.45-.45.36-1.06,0-1.51-.51-.64-.77-1.55-.66-2.37.08-.57-.14-1.15-.75-1.32-.5-.14-1.24.17-1.32.75h0Z"/>
  <path class="cls-1" d="M186.96,41.2c.43-1.97,1.02-3.88,1.8-5.74.22-.54-.24-1.17-.75-1.32-.61-.18-1.1.22-1.32.75-.77,1.86-1.37,3.77-1.8,5.74-.29,1.34,1.77,1.92,2.07.57h0Z"/>
  <path class="cls-1" d="M176.8,83.91c1.43-1.16,2.87-2.31,4.3-3.47.45-.37.37-1.13,0-1.51-.44-.45-1.07-.36-1.51,0-1.43,1.16-2.87,2.31-4.3,3.47-.45.37-.37,1.13,0,1.51.44.45,1.07.36,1.51,0h0Z"/>
  <path class="cls-1" d="M168.69,100.16c.98-1.29,1.96-2.57,2.94-3.86.35-.46.07-1.19-.38-1.47-.55-.33-1.12-.07-1.47.38-.98,1.29-1.96,2.57-2.94,3.86-.35.46-.07,1.19.38,1.47.55.33,1.12.07,1.47-.38h0Z"/>
  <path class="cls-1" d="M155.44,126.08c.81-.97,1.62-1.94,2.42-2.91.37-.44.44-1.08,0-1.51-.38-.38-1.14-.45-1.51,0-.81.97-1.62,1.94-2.42,2.91-.37.44-.44,1.08,0,1.51.38.38,1.14.45,1.51,0h0Z"/>
  <path class="cls-1" d="M159.73,108.32c.15.6.02.95-.37,1.08-.32.06-.56-.06-.74-.37,0,0,.02.2.02.2,0,.32-.01.61.05.93.13.68.57,1.29,1.27,1.46,1.34.33,1.91-1.73.57-2.07.05.01.32.28.28.29-.04.02-.05-.36-.04-.14,0-.2.02-.41,0-.61-.03-.7-.31-1.38-.97-1.69-1.14-.54-2.81.8-1.94,1.99.34.47.93.7,1.47.38.46-.27.73-1,.38-1.47h0Z"/>
  <path class="cls-1" d="M140.95,144.87c.64-.17,1.29-.34,1.93-.51.56-.15.9-.76.75-1.32-.15-.56-.76-.9-1.32-.75-.64.17-1.29.34-1.93.51-.56.15-.9.76-.75,1.32.15.56.76.9,1.32.75h0Z"/>
  <path class="cls-1" d="M118.59,151.42c.98-.27,1.97-.54,2.95-.8,1.33-.36.76-2.43-.57-2.07-.98.27-1.97.54-2.95.8-1.33.36-.76,2.43.57,2.07h0Z"/>
  <path class="cls-1" d="M125.59,127.37c.42.54.84,1.07,1.26,1.61.35.44,1.16.39,1.51,0,.43-.47.37-1.04,0-1.51-.42-.54-.84-1.07-1.26-1.61-.35-.44-1.16-.39-1.51,0-.43.47-.37,1.04,0,1.51h0Z"/>
  <path class="cls-1" d="M133.4,109.42c.48.97.96,1.94,1.44,2.92.61,1.24,2.46.15,1.85-1.08-.48-.97-.96-1.94-1.44-2.92-.61-1.24-2.46-.15-1.85,1.08h0Z"/>
  <path class="cls-1" d="M145.32,99.64c.63-1.2,1.54-2.16,2.71-2.85,1.19-.7.11-2.55-1.08-1.85-1.48.86-2.68,2.11-3.48,3.62-.64,1.22,1.21,2.3,1.85,1.08h0Z"/>
  <path class="cls-1" d="M147.61,77.97c-.14-.13-.08-.02.18.34.06.23.04.44-.08.63.05-.09.02-.05-.09.11.08-.07.04-.05-.11.07.09-.05.05-.04-.13.04.11-.03.06-.03-.15,0,.11,0,.06,0-.15-.02-.09-.02-.16-.05-.23-.11-.07-.06-.08-.06-.02,0-.1-.14-.12-.16-.07-.06-.06-.16-.08-.19-.04-.08.01.04.02.08.03.13-.02-.18-.02-.21-.01-.09,0,.04,0,.09,0,.13,0,.09,0,.18,0,.26-.01.56.5,1.1,1.07,1.07.59-.03,1.06-.47,1.07-1.07.01-.48-.05-.94-.25-1.38-.25-.53-.8-.92-1.39-.92-1.18,0-2.2,1.53-1.17,2.46.42.37,1.11.44,1.51,0,.38-.41.45-1.11,0-1.51h0Z"/>
  <path class="cls-1" d="M151.79,63.78c.61-.07,1.15.19,1.31.78.37,1.33,2.44.76,2.07-.57-.4-1.44-1.86-2.54-3.38-2.35-.57.07-1.07.44-1.07,1.07,0,.53.49,1.14,1.07,1.07h0Z"/>
  <path class="cls-1" d="M158.08,49.13c.11.07.12.08.05.02.06.05.11.1.16.15-.09-.09.12.18.14.24-.06-.13.06.22.06.27-.03-.24-.04.33,0,.09-.09.57.15,1.15.75,1.32.51.14,1.22-.17,1.32-.75.21-1.27-.28-2.5-1.4-3.19-.49-.3-1.18-.11-1.47.38-.3.51-.11,1.16.38,1.47h0Z"/>
  <path class="cls-1" d="M162.27,58.24c.49-.48.98-.96,1.47-1.44.4-.39.42-1.13,0-1.51-.43-.4-1.09-.42-1.51,0-.49.48-.98.96-1.47,1.44-.4.39-.42,1.13,0,1.51.43.4,1.09.42,1.51,0h0Z"/>
  <path class="cls-1" d="M127.95,49.41c-.29,1.02.15,2.07,1.03,2.64.47.31,1.2.11,1.47-.38.28-.53.12-1.14-.38-1.47-.1-.07-.09-.06.03.03-.04-.04-.07-.07-.11-.11.09.11.1.12.04.02-.05-.11-.05-.09.01.04-.02-.05-.03-.1-.04-.15.02.16.02.17.01.05,0-.12,0-.1-.02.05,0-.05.02-.1.04-.15.15-.54-.19-1.19-.75-1.32-.57-.13-1.15.17-1.32.75h0Z"/>
  <path class="cls-1" d="M134.43,40.99c.83-.44,1.66-.89,2.49-1.33,1.22-.65.14-2.5-1.08-1.85-.83.44-1.66.89-2.49,1.33-1.22.65-.14,2.5,1.08,1.85h0Z"/>
  <path class="cls-1" d="M135.33,26.51c.32.65.65,1.29.97,1.94.26.52.99.66,1.47.38.53-.31.64-.95.38-1.47-.32-.65-.65-1.29-.97-1.94-.26-.52-.99-.66-1.47-.38-.53.31-.64.95-.38,1.47h0Z"/>
  <path class="cls-1" d="M126.41,73.12c1.67-.51,3.05-1.54,4.02-2.99.77-1.15-1.08-2.22-1.85-1.08-.65.97-1.62,1.66-2.74,2-1.32.4-.76,2.47.57,2.07h0Z"/>
  <path class="cls-1" d="M115.58,76.85c-.05,1.38.52,2.74,1.57,3.64,1.04.9,2.56-.61,1.51-1.51-.65-.56-.97-1.26-.94-2.12.05-1.38-2.09-1.38-2.14,0h0Z"/>
  <path class="cls-1" d="M116.71,96.41c.81-.17,1.61-.34,2.42-.51.57-.12.89-.78.75-1.32-.16-.59-.75-.87-1.32-.75-.81.17-1.61.34-2.42.51-.57.12-.89.78-.75,1.32.16.59.75.87,1.32.75h0Z"/>
  <path class="cls-1" d="M109.33,112.06c.87,1.05,2.18,1.41,3.49,1.22.57-.08.89-.81.75-1.32-.17-.62-.74-.83-1.32-.75-.55.08-1.07-.27-1.4-.67-.37-.45-1.13-.38-1.51,0-.44.44-.37,1.07,0,1.51h0Z"/>
  <path class="cls-1" d="M101.37,135.62c.48.81.95,1.63,1.43,2.44.7,1.19,2.55.11,1.85-1.08-.48-.81-.95-1.63-1.43-2.44-.7-1.19-2.55-.11-1.85,1.08h0Z"/>
  <path class="cls-1" d="M109.76,133.11c.65,1.15,1.04,2.37,1.23,3.68.08.57.81.89,1.32.75.61-.17.83-.74.75-1.32-.22-1.48-.72-2.89-1.45-4.19-.68-1.2-2.53-.12-1.85,1.08h0Z"/>
  <path class="cls-1" d="M119.72,141.74c.79-.83,1.57-1.66,2.36-2.48.95-1-.56-2.52-1.51-1.51-.79.83-1.57,1.66-2.36,2.48-.95,1,.56,2.52,1.51,1.51h0Z"/>
  <path class="cls-1" d="M127.99,147.75c.5,1.12,1,2.25,1.5,3.37.24.53,1.01.65,1.47.38.54-.32.62-.93.38-1.47-.5-1.12-1-2.25-1.5-3.37-.24-.53-1.01-.65-1.47-.38-.54.32-.62.93-.38,1.47h0Z"/>
  <path class="cls-1" d="M100.77,153.34c-.62,1.43-.38,3.17.89,4.18.45.36,1.07.44,1.51,0,.37-.37.45-1.15,0-1.51-.45-.36-.81-1-.56-1.59.23-.53.16-1.15-.38-1.47-.45-.26-1.24-.15-1.47.38h0Z"/>
  <path class="cls-1" d="M71.25,156.51c.67.95,1.35,1.9,2.02,2.85.33.47.93.69,1.47.38.47-.27.72-.99.38-1.47-.67-.95-1.35-1.9-2.02-2.85-.33-.47-.93-.69-1.47-.38-.47.27-.72.99-.38,1.47h0Z"/>
  <path class="cls-1" d="M78.28,149.07c.74,1.02,1.47,2.04,2.21,3.07.34.47.93.7,1.47.38.46-.27.72-.99.38-1.47-.74-1.02-1.47-2.04-2.21-3.07-.34-.47-.93-.7-1.47-.38-.46.27-.72.99-.38,1.47h0Z"/>
  <path class="cls-1" d="M86.31,167.11c.5-.96.99-1.93,1.49-2.89.63-1.22-1.22-2.31-1.85-1.08-.5.96-.99,1.93-1.49,2.89-.63,1.22,1.22,2.31,1.85,1.08h0Z"/>
  <path class="cls-1" d="M87.57,145.56c.95.24,1.9.47,2.85.71,1.34.33,1.91-1.73.57-2.07-.95-.24-1.9-.47-2.85-.71-1.34-.33-1.91,1.73-.57,2.07h0Z"/>
  <path class="cls-1" d="M89.72,127.19c.72-.05,1.3.13,1.87.57.46.35,1.2.07,1.47-.38.32-.55.08-1.11-.38-1.47-.83-.64-1.91-.94-2.95-.87-.58.04-1.07.46-1.07,1.07,0,.55.49,1.11,1.07,1.07h0Z"/>
  <path class="cls-1" d="M97.02,136.6c1.39-.15,2.38-1.14,2.53-2.53.06-.56-.54-1.09-1.07-1.07-.63.03-1.01.47-1.07,1.07.03-.28,0-.03-.02.03-.05.19.07-.1,0,0-.04.05-.07.11-.1.17.09-.18.04-.04-.04.03-.03.03-.2.15-.07.07.13-.08-.06.03-.09.05-.19.12.18-.03-.04.02-.07.02-.31.05-.03.02-.56.06-1.1.45-1.07,1.07.02.53.47,1.13,1.07,1.07h0Z"/>
  <path class="cls-1" d="M90.65,100.42c.13.46.45.88.89,1.09.55.26,1.08.25,1.64,0,.23-.11.43-.41.49-.64.07-.26.04-.6-.11-.83-.34-.53-.92-.64-1.47-.38.29-.13.18-.07.08-.05.09-.01.19-.03.28-.04-.06,0-.12,0-.18,0,.09.01.19.03.28.04-.03,0-.06,0-.09-.02-.1-.03-.06-.01.13.06-.03-.02-.08-.05-.12-.07.15.12.19.15.13.09-.06-.06-.03-.02.09.13-.1-.24.06.22.01.05-.15-.54-.77-.93-1.32-.75-.55.18-.91.74-.75,1.32h0Z"/>
  <path class="cls-1" d="M94.76,86.39c.64.65,1.28,1.3,1.92,1.95.97.98,2.48-.53,1.51-1.51-.64-.65-1.28-1.3-1.92-1.95-.97-.98-2.48.53-1.51,1.51h0Z"/>
  <path class="cls-1" d="M88.5,66.95c.65.65,1.29,1.29,1.94,1.94.98.98,2.49-.54,1.51-1.51-.65-.65-1.29-1.29-1.94-1.94-.98-.98-2.49.54-1.51,1.51h0Z"/>
  <path class="cls-1" d="M93.9,54.28c.63.66,1.26,1.32,1.9,1.98.96,1,2.47-.52,1.51-1.51-.63-.66-1.26-1.32-1.9-1.98-.96-1-2.47.52-1.51,1.51h0Z"/>
  <path class="cls-1" d="M87.82,37.18c.48.65.96,1.3,1.43,1.95.34.47.93.7,1.47.38.46-.27.73-1,.38-1.47-.48-.65-.96-1.3-1.43-1.95-.34-.47-.93-.7-1.47-.38-.46.27-.73,1-.38,1.47h0Z"/>
  <path class="cls-1" d="M94.72,26.19c.27,1.14.54,2.29.81,3.43.31,1.34,2.38.77,2.07-.57-.27-1.14-.54-2.29-.81-3.43-.31-1.34-2.38-.77-2.07.57h0Z"/>
  <path class="cls-1" d="M90.36,14.91c-.35,1.3-.19,2.62.44,3.8.65,1.22,2.5.14,1.85-1.08-.36-.68-.43-1.41-.23-2.15.36-1.33-1.7-1.9-2.07-.57h0Z"/>
  <path class="cls-1" d="M96.43,38.56v2.42c0,1.38,2.14,1.38,2.14,0v-2.42c0-1.38-2.14-1.38-2.14,0h0Z"/>
  <path class="cls-1" d="M100.63,68.35c.33-.32.66-.64.99-.95.4-.39.42-1.13,0-1.51-.43-.4-1.08-.42-1.51,0-.33.32-.66.64-.99.95-.4.39-.42,1.13,0,1.51.43.4,1.08.42,1.51,0h0Z"/>
  <path class="cls-1" d="M95.39,111.47c1.23-.31,2.12-1.2,2.59-2.35.22-.54-.24-1.18-.75-1.32-.61-.17-1.1.21-1.32.75.06-.16-.03.05-.05.08-.04.08-.09.15-.14.22.08-.12-.03.03-.07.07-.06.06-.12.12-.19.18-.04.04-.13.09-.03.03-.07.05-.15.1-.23.14-.05.03-.22.1-.08.05-.1.04-.2.07-.3.09-.56.14-.9.77-.75,1.32.16.57.75.89,1.32.75h0Z"/>
  <path class="cls-1" d="M68.35,112.21c.65.48,1.29.97,1.94,1.45.46.35,1.2.07,1.47-.38.32-.55.08-1.12-.38-1.47-.65-.48-1.29-.97-1.94-1.45-.46-.35-1.2-.07-1.47.38-.32.55-.08,1.12.38,1.47h0Z"/>
  <path class="cls-1" d="M67.96,97.06c.29.21.58.42.87.63.21.15.58.17.83.11.25-.07.52-.26.64-.49.13-.25.2-.55.11-.83-.09-.28-.25-.47-.49-.64-.29-.21-.58-.42-.87-.63-.21-.15-.58-.17-.83-.11-.25.07-.52.26-.64.49-.13.25-.2.55-.11.83.09.28.25.47.49.64h0Z"/>
  <path class="cls-1" d="M65.06,74.01c.16.32.32.65.48.97.25.5,1,.68,1.47.38.51-.33.65-.93.38-1.47-.16-.32-.32-.65-.48-.97-.25-.5-1-.68-1.47-.38-.51.33-.65.93-.38,1.47h0Z"/>
  <path class="cls-1" d="M69.32,64.05c.16.48.32.97.48,1.45.18.53.75.93,1.32.75.53-.17.94-.75.75-1.32-.16-.48-.32-.97-.48-1.45-.18-.53-.75-.93-1.32-.75-.53.17-.94.75-.75,1.32h0Z"/>
  <path class="cls-1" d="M59.1,52.81c-.04.33-.07.63.04.95.11.3.26.58.5.79.49.45,1.11.63,1.76.48.55-.12.92-.79.75-1.32-.19-.58-.73-.88-1.32-.75-.19.04.27,0,.08-.02.05,0,.28.06.11,0-.12-.04.23.13.09.04-.16-.11.18.19.05.04-.03-.03-.14-.16-.02,0,.12.16.02,0,0-.02.07.17.09.22.06.14,0-.02-.02-.05-.02-.07,0,.06.02.12.02.18,0-.11,0-.07-.03.13.04-.3.05-.55-.11-.83-.13-.22-.38-.43-.64-.49-.27-.06-.58-.05-.83.11-.22.14-.46.37-.49.64h0Z"/>
  <path class="cls-1" d="M60.23,37.63c.48.81.97,1.62,1.45,2.43.71,1.18,2.56.11,1.85-1.08-.48-.81-.97-1.62-1.45-2.43-.71-1.18-2.56-.11-1.85,1.08h0Z"/>
  <path class="cls-1" d="M63.92,23.34c.17.81.35,1.61.52,2.42.12.57.78.9,1.32.75.58-.16.87-.75.75-1.32-.17-.81-.35-1.61-.52-2.42-.12-.57-.78-.9-1.32-.75-.58.16-.87.75-.75,1.32h0Z"/>
  <path class="cls-1" d="M70.7,42.31c1.12-1.05,1.87-2.44,2.1-3.96.09-.58-.14-1.14-.75-1.32-.5-.14-1.23.18-1.32.75-.18,1.19-.67,2.19-1.55,3.01-1.01.95.51,2.46,1.51,1.51h0Z"/>
  <path class="cls-1" d="M72.26,61.13c.17-1.13.34-2.26.51-3.39.09-.57-.14-1.15-.75-1.32-.51-.14-1.23.17-1.32.75-.17,1.13-.34,2.26-.51,3.39-.09.57.14,1.15.75,1.32.51.14,1.23-.17,1.32-.75h0Z"/>
  <path class="cls-1" d="M72.81,84.63c0-.07,0-.15,0-.22,0-.06.02-.16,0-.04.01-.07.03-.14.06-.21.05-.16,0-.01.05-.1,0-.02.11-.18.07-.12-.04.06.08-.09.09-.1.01-.02.16-.14.1-.1-.06.04.17-.09.17-.09.51-.27.67-.98.38-1.47-.3-.52-.95-.66-1.47-.38-1.01.54-1.66,1.69-1.58,2.84.04.58.46,1.07,1.07,1.07.55,0,1.11-.49,1.07-1.07h0Z"/>
  <path class="cls-1" d="M75.28,109.05c-.03-.11-.05-.36-.02-.46,0,0,.1-.31.04-.18.03-.07.07-.14.11-.2.07-.11.08-.13.04-.06.37-.44.43-1.08,0-1.51-.38-.38-1.14-.44-1.51,0-.72.84-1,1.9-.72,2.98.14.56.77.9,1.32.75.57-.16.89-.76.75-1.32h0Z"/>
  <path class="cls-1" d="M78.14,127.56c.32-.81.64-1.62.96-2.43.21-.54-.23-1.18-.75-1.32-.61-.17-1.1.21-1.32.75-.32.81-.64,1.62-.96,2.43-.21.54.23,1.18.75,1.32.61.17,1.1-.21,1.32-.75h0Z"/>
  <path class="cls-1" d="M53.79,130.18c.65.32,1.29.65,1.94.97.52.26,1.16.14,1.47-.38.28-.48.13-1.2-.38-1.47-.65-.32-1.29-.65-1.94-.97-.52-.26-1.16-.14-1.47.38-.28.48-.13,1.2.38,1.47h0Z"/>
  <path class="cls-1" d="M51.14,115.26c.48.16.97.33,1.45.49.53.18,1.19-.21,1.32-.75.14-.59-.18-1.12-.75-1.32-.48-.16-.97-.33-1.45-.49-.53-.18-1.19.21-1.32.75-.14.59.18,1.12.75,1.32h0Z"/>
  <path class="cls-1" d="M63.72,129.05c.17-.65.33-1.29.5-1.94.14-.56-.18-1.16-.75-1.32-.55-.15-1.17.19-1.32.75-.17.65-.33,1.29-.5,1.94-.14.56.18,1.16.75,1.32.55.15,1.17-.19,1.32-.75h0Z"/>
  <path class="cls-1" d="M44.35,96.85c.48.17.96.34,1.45.51.53.19,1.2-.21,1.32-.75.14-.6-.18-1.12-.75-1.32-.48-.17-.96-.34-1.45-.51-.53-.19-1.2.21-1.32.75-.14.6.18,1.12.75,1.32h0Z"/>
  <path class="cls-1" d="M45.84,82.46c.8.65,1.6,1.31,2.4,1.96.45.37,1.08.44,1.51,0,.38-.38.45-1.15,0-1.51-.8-.65-1.6-1.31-2.4-1.96-.45-.37-1.08-.44-1.51,0-.38.38-.45,1.15,0,1.51h0Z"/>
  <path class="cls-1" d="M39.62,64.9c-.28.96-.16,1.89.25,2.79.24.53,1,.65,1.47.38.54-.32.62-.94.38-1.47-.16-.35-.14-.76-.04-1.14.16-.56-.2-1.17-.75-1.32-.57-.16-1.16.19-1.32.75h0Z"/>
  <path class="cls-1" d="M47.67,62.92c.58-1.32,1.16-2.64,1.74-3.97.23-.53.15-1.14-.38-1.47-.45-.27-1.23-.14-1.47.38-.58,1.32-1.16,2.64-1.74,3.97-.23.53-.15,1.14.38,1.47.45.27,1.23.14,1.47-.38h0Z"/>
  <path class="cls-1" d="M39.64,55.05c-.4-.78-.3-1.63.15-2.35.74-1.17-1.12-2.25-1.85-1.08-.87,1.39-.89,3.07-.15,4.52.63,1.23,2.48.15,1.85-1.08h0Z"/>
  <path class="cls-1" d="M37.39,35.72c.65,1.13,1.3,2.26,1.95,3.39.69,1.2,2.54.12,1.85-1.08-.65-1.13-1.3-2.26-1.95-3.39-.69-1.2-2.54-.12-1.85,1.08h0Z"/>
  <path class="cls-1" d="M32.42,29.52c.35.46.7.93,1.05,1.39.34.44.94.72,1.47.38.44-.28.75-.99.38-1.47-.35-.46-.7-.93-1.05-1.39-.34-.44-.94-.72-1.47-.38-.44.28-.75.99-.38,1.47h0Z"/>
  <path class="cls-1" d="M39.86,26.23c.32-.97.65-1.94.97-2.91.44-1.31-1.63-1.87-2.07-.57-.32.97-.65,1.94-.97,2.91-.44,1.31,1.63,1.87,2.07.57h0Z"/>
  <path class="cls-1" d="M9.78,35.71c.32.48.65.97.97,1.45.31.47.96.71,1.47.38.46-.3.72-.97.38-1.47-.32-.48-.65-.97-.97-1.45-.31-.47-.96-.71-1.47-.38-.46.3-.72.97-.38,1.47h0Z"/>
  <path class="cls-1" d="M19.39,41.52c.48-.65.97-1.29,1.45-1.94.35-.46.07-1.2-.38-1.47-.55-.32-1.12-.08-1.47.38-.48.65-.97,1.29-1.45,1.94-.35.46-.07,1.2.38,1.47.55.32,1.12.08,1.47-.38h0Z"/>
  <path class="cls-1" d="M19.36,28.39c-.06-.98.19-1.89.86-2.63.91-1.03-.59-2.55-1.51-1.51-1.02,1.15-1.58,2.6-1.48,4.15.09,1.37,2.23,1.38,2.14,0h0Z"/>
  <path class="cls-1" d="M13.85,57.15c-.22,1.44.52,2.77,1.93,3.24.55.18,1.17-.21,1.32-.75.16-.58-.2-1.13-.75-1.32-.07-.02-.12-.06-.03,0,0,0-.22-.15-.14-.09.07.06-.07-.07-.08-.09-.11-.13.09.19-.05-.07-.03-.06-.07-.12-.1-.18.05.11.02.03,0-.03-.04-.2,0,.05-.02-.07,0-.04.02-.27-.01-.07.09-.57-.14-1.15-.75-1.32-.51-.14-1.23.17-1.32.75h0Z"/>
  <path class="cls-1" d="M24.33,68.25c.47-.66.93-1.32,1.4-1.98.33-.47.08-1.19-.38-1.47-.54-.31-1.13-.09-1.47.38-.47.66-.93,1.32-1.4,1.98-.33.47-.08,1.19.38,1.47.54.31,1.13.09,1.47-.38h0Z"/>
  <path class="cls-1" d="M18.15,84.94c.82.72,1.95,1.03,3.01.66.55-.19.91-.73.75-1.32-.15-.53-.77-.94-1.32-.75-.06.02-.41.09-.29.08-.04,0-.34-.02-.18,0,0,0-.31-.08-.19-.04-.06-.02-.32-.21-.27-.16-.43-.38-1.09-.43-1.51,0-.39.39-.44,1.13,0,1.51h0Z"/>
  <path class="cls-1" d="M27.63,96.27c-.15-1.4.14-2.7.92-3.88.76-1.16-1.1-2.23-1.85-1.08-.95,1.46-1.39,3.22-1.21,4.96.06.58.45,1.07,1.07,1.07.53,0,1.13-.49,1.07-1.07h0Z"/>
  <path class="cls-1" d="M27.83,107.1c-.48-1.63-1.19-3.18-2.15-4.59-.77-1.13-2.63-.06-1.85,1.08.86,1.26,1.5,2.61,1.93,4.07.39,1.32,2.45.76,2.07-.57h0Z"/>
  <path class="cls-1" d="M33.51,115.16c.04-.48.08-.96.12-1.44.05-.56-.53-1.1-1.07-1.07-.62.03-1.02.47-1.07,1.07-.04.48-.08.96-.12,1.44-.05.56.53,1.1,1.07,1.07.62-.03,1.02-.47,1.07-1.07h0Z"/>
  <path class="cls-1" d="M29.09,125.77c.67.46,1.33.92,2,1.37.48.33,1.19.09,1.47-.38.31-.53.09-1.14-.38-1.47-.67-.46-1.33-.92-2-1.37-.48-.33-1.19-.09-1.47.38-.31.53-.09,1.14.38,1.47h0Z"/>
  <path class="cls-1" d="M37.67,138.61c.46.91,1.35,1.59,2.34,1.83.54.13,1.19-.17,1.32-.75.13-.55-.16-1.18-.75-1.32-.08-.02-.16-.04-.24-.07-.16-.05.12.07-.03,0-.08-.04-.15-.08-.22-.12-.02-.01-.23-.16-.14-.09.08.06-.07-.07-.08-.08-.06-.06-.12-.12-.17-.18.07.09.02.03-.01-.03-.05-.09-.1-.17-.15-.27-.25-.5-1-.68-1.47-.38-.51.33-.66.93-.38,1.47h0Z"/>
  <path class="cls-1" d="M40.82,134.13c.32.48.65.97.97,1.45.31.47.96.71,1.47.38.46-.3.72-.97.38-1.47-.32-.48-.65-.97-.97-1.45-.31-.47-.96-.71-1.47-.38-.46.3-.72.97-.38,1.47h0Z"/>
  <path class="cls-1" d="M50.09,148.62v-2.91c0-1.38-2.14-1.38-2.14,0v2.91c0,1.38,2.14,1.38,2.14,0h0Z"/>
  <path class="cls-1" d="M56.24,157.4c.51-.9.76-1.93.63-2.96-.07-.57-.44-1.07-1.07-1.07-.52,0-1.14.49-1.07,1.07.09.68,0,1.28-.34,1.88-.68,1.2,1.17,2.28,1.85,1.08h0Z"/>
  <path class="cls-1" d="M59.08,149.88c.25,1.51,1.08,2.9,2.28,3.84.45.36,1.07.44,1.51,0,.37-.37.46-1.16,0-1.51-.96-.75-1.53-1.7-1.73-2.9-.1-.57-.8-.89-1.32-.75-.6.17-.84.74-.75,1.32h0Z"/>
  <path class="cls-1" d="M65.93,161.67c.32.16.65.32.97.48.5.25,1.18.15,1.47-.38.26-.49.15-1.2-.38-1.47-.32-.16-.65-.32-.97-.48-.5-.25-1.18-.15-1.47.38-.26.49-.15,1.2.38,1.47h0Z"/>
  <path class="cls-1" d="M71.47,168.03c.14,1.38.64,2.58,1.55,3.62.91,1.04,2.42-.48,1.51-1.51-.51-.59-.84-1.33-.92-2.11-.06-.58-.45-1.07-1.07-1.07-.53,0-1.13.49-1.07,1.07h0Z"/>
  <path class="cls-1" d="M79.5,176.79c.65-1.13,1.29-2.26,1.94-3.39.69-1.2-1.16-2.28-1.85-1.08-.65,1.13-1.29,2.26-1.94,3.39-.69,1.2,1.16,2.28,1.85,1.08h0Z"/>
  <path class="cls-1" d="M89.83,172.9c.16.32.32.65.48.97.25.5,1,.68,1.47.38.52-.33.65-.93.38-1.47-.16-.32-.32-.65-.48-.97-.25-.5-1-.68-1.47-.38-.52.33-.65.93-.38,1.47h0Z"/>
  <path class="cls-1" d="M89.54,158.04c.33.32.65.64.98.96.4.39,1.12.43,1.51,0,.39-.42.43-1.1,0-1.51-.33-.32-.65-.64-.98-.96-.4-.39-1.12-.43-1.51,0-.39.42-.43,1.1,0,1.51h0Z"/>
  <path class="cls-1" d="M77.61,136.39c.61.47,1.1,1.15,1.38,1.86.21.54.72.91,1.32.75.51-.14.96-.78.75-1.32-.5-1.28-1.27-2.3-2.36-3.14-.46-.35-1.2-.07-1.47.38-.32.55-.08,1.11.38,1.47h0Z"/>
  <path class="cls-1" d="M66.47,141.81c.23.26.46.53.69.79.37.42,1.14.41,1.51,0,.42-.45.39-1.06,0-1.51l-.69-.79c-.37-.42-1.14-.41-1.51,0-.42.45-.39,1.06,0,1.51h0Z"/>
  <path class="cls-1" d="M110.48,152.1c.27-1.32-1.19-2.15-2.27-1.44-.62.4-.76,1.18-.56,1.86.08.27.23.52.38.75.08.11.15.24.24.35.15.2-.06.22.11-.18-.23.53-.15,1.15.38,1.47.46.27,1.23.15,1.47-.38.31-.71.26-1.38-.15-2.04-.1-.17-.24-.4-.37-.53-.01-.04-.03-.09-.04-.13-.02.36-.16.59-.43.69-.24.06-.6-.05-.71-.3-.05-.18-.1-.36-.15-.54,0-.05.02-.1.03-.14-.11.57.16,1.16.75,1.32.53.15,1.2-.18,1.32-.75h0Z"/>
  <path class="cls-5" d="M4.45,8.41c-.64-.78-1.9-.04-2.49.78-2.71,3.72-2.61,9.25.24,12.87,2.85,3.62,8.19,5.02,12.45,3.26,1.74-.72,3.31-1.95,4.16-3.62,1.22-2.39.8-5.31-.2-7.8-1.24-3.08-3.49-5.9-6.58-7.11-3.09-1.21-7.06-.43-8.93,2.32l1.34-.69Z"/>
  <path class="cls-5" d="M29.67,8.1c-3.26,1.62-4.19,6.35-2.27,9.45,1.92,3.1,5.98,4.45,9.57,3.8.98-.18,1.97-.5,2.69-1.2.93-.9,1.25-2.27,1.24-3.56-.02-2.72-1.39-5.39-3.58-6.99-2.19-1.6-5.15-2.1-7.75-1.3l.1-.2Z"/>
  <path class="cls-5" d="M58.72.2c-3.95-.06-6.77,4.69-5.64,8.48,1.13,3.79,5.08,6.2,9.01,6.59,3.38.34,7.2-.84,8.82-3.83,1.83-3.35.06-7.87-3.18-9.89-3.24-2.02-7.45-1.9-11.06-.63l2.04-.72Z"/>
  <path class="cls-5" d="M87.65,1.01c-2.7.97-4.69,3.64-4.85,6.5-.16,2.86,1.53,5.74,4.11,7,1.44.7,3.08.92,4.68.89,1.32-.02,2.67-.21,3.86-.78,3.61-1.74,4.66-7,2.45-10.34-2.22-3.35-6.88-4.57-10.7-3.35l.46.08Z"/>
  <path class="cls-5" d="M153.96,18.95c-.51,1.97-1.61,3.75-3.31,4.84-.56.36-1.17.64-1.81.84-1.24.39-2.58.51-3.88.46-3.95-.15-7.91-1.8-10.48-4.81-.48-.57-.91-1.18-1.28-1.83-1.58-2.81-2.03-6.27-.91-9.27,1.1-2.94,4.31-5.28,7.23-4.88,1.94-.38,3.98-.29,5.88.25,1.02.29,2.01.71,2.92,1.26,3.43,2.06,5.74,5.89,5.96,9.89.06,1.09-.05,2.21-.33,3.27Z"/>
  <path class="cls-5" d="M170.39,35.91c-.41.89-.99,1.7-1.71,2.36-.35.32-.73.6-1.14.83-1.36.78-2.96,1.11-4.53,1.04-3.11-.13-6.14-2.06-7.46-4.8-.3-.63-.52-1.3-.62-2.01-.45-3.13,1.71-6.44,4.63-7.34.61-.19,1.25-.27,1.92-.23l-.5.24c3.27-1.36,7.51,0,9.28,3.1,1.17,2.06,1.13,4.67.13,6.81Z"/>
  <path class="cls-5" d="M187.61,17.97c-2.59.57-4.79,2.65-5.51,5.2s.08,5.47,2,7.3c1.31,1.26,3.05,1.98,4.8,2.48,1.31.37,2.67.64,4.03.49,4.47-.51,7.3-6.08,5.55-10.22-1.75-4.14-7.08-6.12-11.33-4.67l.46-.58Z"/>
  <g class="cls-8">
    <rect class="cls-7" x="32.16" y="166.26" width="125.09" height="62.06"/>
    <path class="cls-5" d="M35.56,181.87c15.17,1,30.34,1.94,45.51,2.82,15.08.87,30.16,1.69,45.25,2.45,8.54.43,17.08.84,25.62,1.23,1.38.06,1.37-2.08,0-2.14-15.18-.7-30.36-1.45-45.54-2.26-15.08-.81-30.16-1.68-45.24-2.6-8.53-.52-17.07-1.07-25.6-1.63-1.38-.09-1.37,2.05,0,2.14h0Z"/>
    <path class="cls-5" d="M40.41,217.31c13.47-.09,26.94-.02,40.4.2,13.37.23,26.74.61,40.1,1.16,7.58.31,15.16.67,22.74,1.08,1.38.07,1.37-2.07,0-2.14-13.45-.73-26.91-1.3-40.37-1.7-13.37-.4-26.74-.65-40.11-.74-7.59-.05-15.18-.05-22.76,0-1.38,0-1.38,2.15,0,2.14h0Z"/>
    <path class="cls-5" d="M37.37,182.9c2.86,3.7,5.72,7.4,8.58,11.1.36.46,1.14.36,1.51,0,3.24-3.17,6.07-6.73,8.43-10.6-.56.07-1.12.14-1.68.22,4.35,3.57,8.71,7.13,13.06,10.7.43.35,1.1.47,1.51,0,2.75-3.12,5.51-6.25,8.26-9.37h-1.51c3.98,4.75,8.37,9.13,13.13,13.11.56.47,1.26.38,1.68-.22,2.85-4.06,5.71-8.11,8.56-12.17-.56.07-1.12.14-1.68.22,3.85,3.28,7.13,7.16,9.7,11.51.45.76,1.37.62,1.85,0,2.8-3.63,5.61-7.26,8.41-10.89h-1.85c2.89,4.79,5.78,9.58,8.67,14.36.42.69,1.43.69,1.85,0,2.53-4.2,5.06-8.4,7.58-12.6h-1.85c2.41,3.38,4.83,6.77,7.24,10.15.46.64,1.41.74,1.85,0,2.06-3.46,4.12-6.92,6.18-10.38.71-1.19-1.14-2.27-1.85-1.08-2.06,3.46-4.12,6.92-6.18,10.38h1.85c-2.41-3.38-4.83-6.77-7.24-10.15-.46-.64-1.41-.73-1.85,0-2.53,4.2-5.06,8.4-7.58,12.6h1.85c-2.89-4.79-5.78-9.58-8.67-14.36-.45-.75-1.37-.62-1.85,0-2.8,3.63-5.61,7.26-8.41,10.89h1.85c-2.67-4.5-6.06-8.55-10.04-11.95-.56-.47-1.26-.38-1.68.22-2.85,4.06-5.71,8.11-8.56,12.17.56-.07,1.12-.14,1.68-.22-4.76-3.97-9.15-8.36-13.13-13.11-.36-.42-1.16-.41-1.51,0-2.75,3.12-5.51,6.25-8.26,9.37h1.51c-4.35-3.57-8.71-7.13-13.06-10.7-.53-.44-1.3-.42-1.68.22-2.27,3.72-4.98,7.12-8.09,10.17h1.51c-2.86-3.7-5.72-7.4-8.58-11.1-.36-.46-1.14-.37-1.51,0-.46.45-.35,1.06,0,1.51h0Z"/>
    <path class="cls-5" d="M44.56,215.99c3.26-3.08,6.52-6.16,9.78-9.24-.56-.07-1.12-.14-1.68-.22,2.32,3.15,4.64,6.3,6.96,9.44.41.56,1.14.73,1.68.22,3.9-3.67,7.81-7.35,11.71-11.02-.56-.07-1.12-.14-1.68-.22,2.37,4.02,5.07,7.83,8.07,11.41.35.41,1.17.42,1.51,0,3.13-3.83,6.56-7.39,10.27-10.66h-1.51c2.52,2.71,4.52,5.87,5.86,9.32.33.86,1.42,1.07,1.96.26,2.23-3.38,4.76-6.53,7.56-9.46-.56-.07-1.12-.14-1.68-.22,1.8,3.38,3.59,6.76,5.39,10.15.3.57,1.25.74,1.68.22,2.95-3.56,5.91-7.12,8.86-10.68-.6-.16-1.19-.32-1.79-.47,1.36,4.08,3.23,7.97,5.59,11.56.4.62,1.49.77,1.85,0,1.51-3.2,3.45-6.18,5.8-8.82-.56-.07-1.12-.14-1.68-.22,2.28,3.95,4.56,7.91,6.83,11.86.69,1.19,2.54.12,1.85-1.08-2.28-3.95-4.56-7.91-6.83-11.86-.33-.57-1.22-.74-1.68-.22-2.47,2.78-4.55,5.89-6.14,9.26h1.85c-2.26-3.44-4.07-7.14-5.37-11.05-.23-.7-1.24-1.13-1.79-.47-2.95,3.56-5.91,7.12-8.86,10.68.56.07,1.12.14,1.68.22-1.8-3.38-3.59-6.76-5.39-10.15-.32-.6-1.22-.7-1.68-.22-2.92,3.05-5.56,6.36-7.89,9.89.65.09,1.3.17,1.96.26-1.48-3.81-3.63-7.27-6.41-10.27-.41-.44-1.09-.37-1.51,0-3.71,3.27-7.14,6.83-10.27,10.66h1.51c-2.88-3.44-5.45-7.11-7.73-10.97-.36-.61-1.18-.69-1.68-.22-3.9,3.67-7.81,7.35-11.71,11.02.56.07,1.12.14,1.68.22-2.32-3.15-4.64-6.3-6.96-9.44-.41-.56-1.14-.73-1.68-.22-3.26,3.08-6.52,6.16-9.78,9.24-1,.95.51,2.46,1.51,1.51h0Z"/>
    <path d="M35.56,177.95c15.4.6,30.79,1.19,46.19,1.79,15.4.6,30.79,1.19,46.19,1.79,8.65.34,17.3.67,25.94,1.01,1.38.05,1.38-2.09,0-2.14-15.4-.6-30.79-1.19-46.19-1.79-15.4-.6-30.79-1.19-46.19-1.79-8.65-.34-17.3-.67-25.94-1.01-1.38-.05-1.38,2.09,0,2.14h0Z"/>
    <path d="M45.73,221.33c11.09-.23,22.19-.34,33.28-.34,11.09,0,22.19.13,33.28.36,6.26.13,12.51.31,18.77.51,1.38.05,1.38-2.1,0-2.14-11.09-.37-22.18-.62-33.28-.76-11.09-.14-22.19-.16-33.28-.06-6.26.05-12.52.15-18.77.28-1.38.03-1.38,2.17,0,2.14h0Z"/>
  </g>
</svg>