<?xml version="1.0" encoding="UTF-8"?>
<svg id="_圖層_1" data-name="圖層 1" xmlns="http://www.w3.org/2000/svg" xmlns:xlink="http://www.w3.org/1999/xlink" viewBox="0 0 171.33 268.41">
  <defs>
    <style>
      .cls-1 {
        fill: #ff6056;
      }

      .cls-2 {
        fill: #f37b30;
      }

      .cls-3 {
        fill: #fff2d0;
      }

      .cls-4 {
        fill: none;
      }

      .cls-5 {
        fill: #f05922;
      }

      .cls-6 {
        fill: #f7981d;
      }

      .cls-7 {
        fill: #fffbe6;
      }

      .cls-8 {
        fill: #ff9a56;
      }

      .cls-9 {
        fill: #43642f;
      }

      .cls-10 {
        fill: #791f20;
      }

      .cls-11 {
        fill: #435526;
      }

      .cls-12 {
        clip-path: url(#clippath);
      }
    </style>
    <clipPath id="clippath">
      <path class="cls-4" d="M68.14,207.94c10.77-8.26,25.47-11.15,38.57-7.57,2.24.61,4.51,1.44,6.18,3.05,1.68,1.61,2.63,4.16,1.79,6.32-.62,1.6-2.08,2.73-2.91,4.24-1.33,2.45-.77,5.56.62,7.98,1.39,2.42,3.49,4.32,5.42,6.34,5.66,5.92,10.16,13.97,8.62,22.01-1.32,6.88-6.94,12.36-13.39,15.1-6.44,2.75-13.64,3.14-20.64,2.96-7.69-.2-15.56-1.12-22.45-4.54-6.9-3.42-12.73-9.73-13.88-17.34-1.22-8.05,2.95-16.13,8.84-21.76,2.85-2.72,6.47-6.04,5.37-9.83-.41-1.41-1.44-2.55-1.98-3.92-.54-1.36-.34-3.27,1.01-3.83"/>
    </clipPath>
  </defs>
  <g>
    <path class="cls-11" d="M170.49,163.23c-.16.66-.4,1.31-.66,1.94-4.66,11.51-12.43,21.96-22.91,28.63-10.48,6.67-23.75,9.27-35.68,5.81-4.16-1.2-8.19-3.18-11.29-6.16-.2-.19-.39-.38-.58-.58-.3-.32-.6-.64-.88-.98.17-2.09.53-4.22,1.06-6.36,2.53-10.21,8.89-20.58,16.67-26.83,9.42-7.56,22-11.04,33.96-9.41,6.8.93,13.55,3.58,18.33,8.49.95.98,1.85,2.11,2.07,3.45.11.66.04,1.33-.11,1.98Z"/>
    <path class="cls-11" d="M80.59,194.52c-.42.46-.84.9-1.27,1.33-.2.21-.41.41-.61.61-3.36,3.25-7.12,5.74-11.67,7.22-4.6,1.5-9.6.9-14.35-.06-8.14-1.65-16.2-4.43-22.89-9.34-6.7-4.92-11.94-12.17-13.2-20.38.06-.03.11-.06.17-.09,2.93-1.52,5.99-2.82,9.14-3.85,9.16-3.02,19.03-3.81,28.3-1.34.4.11.81.22,1.21.34,10.36,3.14,19.54,10.77,23.62,20.66.65,1.58,1.18,3.22,1.55,4.9Z"/>
    <path class="cls-11" d="M129.9,129.55c-.02,3-1.37,5.82-2.86,8.43-2.97,5.22-6.65,10.13-11.41,13.79-4.22,3.25-8.51,6.63-13.61,7.2-.13.02-.25.03-.38.04-.53.05-1.07.06-1.62.04.79-2.85,1.68-5.68,2.76-8.44,1.62-4.17,3.64-8.15,6.32-11.72,4.45-5.93,10.9-10.64,18.23-11.73.55-.08,1.15-.14,1.63.13.07.04.14.09.21.14.58.47.73,1.35.72,2.12Z"/>
    <path class="cls-10" d="M112.13,108.15s0,0,0,0c0,0,0,0,0,0h0s0,0,0,0h0s0,.01,0,.02c0,0,0,.01,0,.02-2.5,8.52-4.63,17.14-6.4,25.84-1.12,5.49-2.09,11.02-2.91,16.56-.42,2.79-.79,5.6-1.13,8.4-.03.22-.05.43-.08.65,0,.07-.02.15-.03.22-1.01,8.52-1.68,17.08-1.99,25.65h0c-.09,2.45-.15,4.89-.18,7.34-.04,3.25-.04,6.5.02,9.75l-6.41-.47c3.5-21.07,3.44-42.96,7.01-63.89,1.6-9.37,3.92-18.54,7.61-27.36.73-1.74,1.43-4.2,3.01-4.88,1.23-.54,1.92.86,1.51,2.14Z"/>
    <path class="cls-10" d="M71.45,146.25c5.6,19.08,8.28,39.01,7.93,58.88l4-.3c-3.16-19.02-1.67-39.11-9.12-56.9-.45-1.08-.89-2.62-1.88-3.04-.78-.34-1.21.55-.93,1.35.04.1-.04-.1,0,0h0Z"/>
    <g>
      <path class="cls-7" d="M64.49,75.55c-10.35-.97-20.98-4.29-28.08-11.88-7.1-7.59-9.45-20.19-3.25-28.53,4.84-6.51,14-9.06,21.84-6.99,7.85,2.07,14.26,8.22,17.71,15.57-1.91-8.8-2.58-18.17.42-26.67C76.13,8.56,83.43,1.16,92.38.12c9.93-1.15,19.59,5.92,23.58,15.09,3.99,9.17,3.14,19.83.04,29.33,5.54-10.85,16.47-18.77,28.5-20.65,8.68-1.36,18.65.88,23.62,8.13,2.56,3.73,3.52,8.38,3.44,12.9-.15,8.33-3.77,16.55-9.83,22.28-6.06,5.73-14.46,8.89-22.79,8.58,6.92,1.06,13.89,2.95,19.58,7.02,5.69,4.08,9.92,10.68,9.71,17.67-.34,11.04-11.41,19.1-22.31,20.87-12.84,2.08-27.49-3.22-33.29-14.86,1.49,9.95-.23,21.06-7.43,28.09-7.75,7.58-21.19,8.33-29.74,1.67-8.55-6.66-11.11-19.88-5.66-29.24-5.14,3.42-11.11,5.92-17.29,5.86-6.18-.06-12.53-3.03-15.56-8.42-3.42-6.08-1.96-14.05,2.17-19.66,4.14-5.61,10.49-9.2,17-11.69l8.38,2.48Z"/>
      <path class="cls-2" d="M87.12,68.08c.74-4.39,3.87-8.3,7.99-9.99,3.1-1.27,6.63-1.3,9.86-.43,3.08.84,5.96,2.51,8.02,4.95,4.33,5.14,4.1,13.48-.38,18.5s-12.59,6.22-18.43,2.88c-5.84-3.34-8.9-10.8-7.28-17.33l.21,1.42Z"/>
    </g>
    <g>
      <path class="cls-3" d="M23.47,136.13c-7.02-.66-14.24-2.91-19.06-8.06-4.82-5.15-6.42-13.71-2.21-19.37,3.29-4.42,9.5-6.15,14.83-4.75,5.33,1.4,9.68,5.58,12.02,10.57-1.3-5.98-1.75-12.34.28-18.1,2.04-5.77,7-10.79,13.07-11.49,6.74-.78,13.3,4.02,16.01,10.24,2.71,6.22,2.13,13.46.02,19.91,3.76-7.36,11.18-12.74,19.35-14.02,5.89-.92,12.66.6,16.04,5.52,1.74,2.53,2.39,5.69,2.33,8.76-.1,5.66-2.56,11.24-6.67,15.13-4.11,3.89-9.82,6.04-15.47,5.82,4.7.72,9.43,2,13.29,4.77,3.86,2.77,6.74,7.25,6.59,12-.23,7.5-7.74,12.97-15.15,14.17-8.72,1.41-18.66-2.18-22.6-10.09,1.01,6.75-.16,14.3-5.04,19.07-5.26,5.14-14.39,5.66-20.19,1.14-5.8-4.52-7.54-13.49-3.84-19.86-3.49,2.33-7.55,4.02-11.74,3.98s-8.51-2.06-10.57-5.71c-2.32-4.12-1.33-9.54,1.48-13.35,2.81-3.81,7.12-6.24,11.54-7.94l5.69,1.68Z"/>
      <path class="cls-2" d="M38.84,131.06c.5-2.98,2.63-5.64,5.42-6.78,2.11-.86,4.5-.89,6.7-.29,2.09.57,4.05,1.71,5.44,3.36,2.94,3.49,2.78,9.15-.26,12.56-3.04,3.4-8.55,4.22-12.51,1.95-3.96-2.27-6.04-7.33-4.94-11.77l.14.96Z"/>
    </g>
    <path class="cls-9" d="M170.49,163.23c-.16.66-.4,1.31-.66,1.94-4.66,11.51-12.43,21.96-22.91,28.63-10.48,6.67-23.75,9.27-35.68,5.81-4.16-1.2-8.19-3.18-11.29-6.16-.2-.41-.39-.84-.55-1.27l.19.39c22.03-.95,42.62-11.02,61.41-22.56,3.32-2.04,6.63-4.15,9.49-6.78Z"/>
    <path class="cls-9" d="M101.49,159.8s.06-.09.09-.14c0,.07-.02.15-.03.22h0l-.06-.08Z"/>
    <path class="cls-9" d="M129.9,129.55c-.02,3-1.37,5.82-2.86,8.43-2.97,5.22-6.65,10.13-11.41,13.79-4.22,3.25-8.51,6.63-13.61,7.2,7.66-11.61,16.81-22.24,27.15-31.54.58.47.73,1.35.72,2.12Z"/>
    <path class="cls-9" d="M78.71,196.47c-3.36,3.25-7.12,5.74-11.67,7.22-4.6,1.5-9.6.9-14.35-.06-8.14-1.65-16.2-4.43-22.89-9.34-6.7-4.92-11.94-12.17-13.2-20.38.06-.03.11-.06.17-.09,3.04.92,5.89,2.53,8.69,4.08,7.31,4.03,14.93,7.79,23.15,9.2,3.93.68,7.95.8,11.89,1.43,6.04.97,11.89,3.15,17.09,6.36.42.26.86.56,1.04,1.02.07.18.09.37.07.56Z"/>
    <g class="cls-12">
      <rect class="cls-6" x="46.61" y="195.88" width="87.79" height="73.09"/>
      <path class="cls-5" d="M52.49,249.94c2.54-8.51,13.04-13.73,21.2-9.77,4.02,1.95,7.15,5.64,8.47,9.9.64,2.06.93,4.36.53,6.5-.33,1.77-1.25,4.15-3.2,4.65-2.5.65-4.07-2.16-4.39-4.2-.42-2.68-.01-5.67.5-8.31,1-5.14,3.3-10.21,7.55-13.47,3.83-2.93,8.9-4.19,13.49-2.37,4.06,1.61,6.92,5.29,8.74,9.13,2.13,4.48,2.88,9.48,2.86,14.41-.01,5.75-1.17,11.49-3.37,16.8-.54,1.29-1.15,2.55-1.8,3.78-.71,1.32,1.3,2.5,2.01,1.17,3.03-5.68,4.85-11.94,5.35-18.35.45-5.73-.07-11.73-2.22-17.1-1.84-4.6-4.86-9.04-9.36-11.37-5-2.59-10.88-1.94-15.58,1.01-5.13,3.23-8.25,8.67-9.62,14.47-.7,2.95-1.13,6.14-.96,9.18.16,2.91,1.3,5.97,4.15,7.2,2.59,1.12,5.18-.13,6.67-2.35,1.41-2.11,1.81-4.78,1.66-7.27-.32-5.17-2.99-10.13-7.04-13.34-4.11-3.26-9.33-4.47-14.45-3.26-4.93,1.17-9.42,4.43-11.93,8.85-.62,1.1-1.12,2.29-1.48,3.5-.43,1.44,1.82,2.05,2.24.62h0Z"/>
      <path class="cls-5" d="M62.21,218.84c5.88,3.64,12.91,5.36,19.81,4.91,3.39-.22,6.78-.92,9.93-2.2,3.17-1.29,6.17-3.28,7.42-6.6,1.11-2.93.43-6.5-2.41-8.16-2.6-1.52-6.06-.87-7.38,1.99-1.36,2.93-.41,6.47,1.4,8.99,1.96,2.73,4.78,4.56,7.93,5.65,3.98,1.38,8.35,1.64,12.52,1.81,4.66.19,9.33.03,13.97-.46.62-.07,1.16-.49,1.16-1.16,0-.58-.53-1.23-1.16-1.16-6.95.74-14.19.9-21.12-.15-5.36-.81-11.79-3.36-12.91-9.39-.4-2.14.48-5.03,3.16-4.58,2.67.45,3.49,3.22,2.77,5.54-.85,2.72-3.45,4.4-5.96,5.43-2.75,1.13-5.72,1.82-8.68,2.07-6.72.57-13.53-.99-19.28-4.55-1.28-.79-2.45,1.22-1.17,2.01h0Z"/>
    </g>
  </g>
  <path class="cls-1" d="M46.52,101.49c.58,5.32.73,10.67.45,16.02-.09,1.66,2.49,1.65,2.57,0,.27-5.35.12-10.7-.45-16.02-.18-1.63-2.75-1.65-2.57,0h0Z"/>
  <path class="cls-1" d="M37.42,107.06c.84,3.92,1.69,7.83,2.53,11.75.35,1.62,2.83.93,2.48-.68l-2.53-11.75c-.35-1.62-2.83-.93-2.48.68h0Z"/>
  <path class="cls-1" d="M13.13,121.19c6.2,3.42,12.66,6.36,19.3,8.82,1.56.58,2.23-1.91.68-2.48-6.44-2.38-12.67-5.24-18.68-8.56-1.45-.8-2.75,1.42-1.3,2.22h0Z"/>
  <path class="cls-1" d="M18.78,135.32c3.62,2.18,7.86,2.84,11.98,1.93,1.62-.36.93-2.84-.68-2.48-3.45.76-6.98.14-10-1.67-1.42-.86-2.72,1.37-1.3,2.22h0Z"/>
  <path class="cls-1" d="M15.81,150.86c5.04-2.65,10.13-5.2,15.26-7.66,1.49-.71.19-2.94-1.3-2.22-5.14,2.46-10.23,5.01-15.26,7.66-1.47.77-.17,2.99,1.3,2.22h0Z"/>
  <path class="cls-1" d="M25.01,150.04c-1.88,1.27.04,3.77,1.9,2.59,1.08-.69,2.02-1.72,2.98-2.57,1.1-.96,2.19-1.93,3.29-2.89,1.25-1.1-.58-2.91-1.82-1.82-.97.86-1.95,1.71-2.92,2.57-.49.43-.97.86-1.46,1.28-.4.35-1.04,1.16-1.59,1.25.33.04.66.09.99.13l-.16-.1c.2.26.39.51.59.77,0,0,0,0,0,0-.21.37-.43.74-.64,1.11.04-.03.09-.06.13-.09,1.36-.92.08-3.16-1.3-2.22h0Z"/>
  <path class="cls-1" d="M40.21,149.18c-1.04,6.14-2.08,12.28-3.12,18.41-.27,1.62,2.21,2.32,2.48.68,1.04-6.14,2.08-12.28,3.12-18.41.27-1.62-2.21-2.32-2.48-.68h0Z"/>
  <path class="cls-1" d="M46.74,148.64c-.62,5.34-1.23,10.69-1.85,16.03-.19,1.64,2.39,1.63,2.57,0,.62-5.34,1.23-10.69,1.85-16.03.19-1.64-2.39-1.63-2.57,0h0Z"/>
  <path class="cls-1" d="M33.94,148.88c-1.39,2.34-2.5,4.83-3.31,7.43-.5,1.59,1.99,2.26,2.48.68.75-2.4,1.77-4.66,3.05-6.81.85-1.43-1.38-2.72-2.22-1.3h0Z"/>
  <path class="cls-1" d="M61.81,146.41c5.41,2.94,11.23,5.04,17.28,6.19,1.62.31,2.31-2.17.68-2.48-5.84-1.12-11.44-3.1-16.66-5.93-1.46-.79-2.76,1.43-1.3,2.22h0Z"/>
  <path class="cls-1" d="M70.32,139.39c-.43-.16-.86-.32-1.29-.48-1.35-.5-2.33,1.76-.99,2.35,3.44,1.51,6.88,3.03,10.32,4.54,1.5.66,2.81-1.56,1.3-2.22-3.44-1.51-6.88-3.03-10.32-4.54-.33.78-.66,1.57-.99,2.35.43.16.86.32,1.29.48,1.56.58,2.23-1.91.68-2.48h0Z"/>
  <path class="cls-1" d="M61.37,151.84c.45,2.45,1.44,4.74,2.94,6.74.98,1.31,3.22.03,2.22-1.3-1.38-1.85-2.26-3.85-2.68-6.13-.3-1.63-2.78-.94-2.48.68h0Z"/>
  <path class="cls-1" d="M64.66,126.32c4.09-3.97,8.42-7.67,12.99-11.07,1.32-.98.03-3.21-1.3-2.22-4.75,3.53-9.27,7.35-13.52,11.47-1.19,1.16.63,2.98,1.82,1.82h0Z"/>
  <path class="cls-1" d="M69.24,129.49c4.01-2,8.13-3.73,12.36-5.21,1.55-.54.89-3.03-.68-2.48-4.44,1.55-8.77,3.38-12.98,5.47-1.48.74-.18,2.96,1.3,2.22h0Z"/>
  <path class="cls-1" d="M62.7,114.94c-1.69,2.23-3.39,4.45-5.08,6.68-1,1.32,1.23,2.6,2.22,1.3,1.69-2.23,3.39-4.45,5.08-6.68,1-1.32-1.23-2.6-2.22-1.3h0Z"/>
  <path class="cls-8" d="M127.7,59.77c6.65-3.31,13.45-6.27,20.4-8.89,1.54-.58.87-3.07-.68-2.48-7.16,2.69-14.17,5.74-21.01,9.15-1.48.74-.18,2.96,1.3,2.22h0Z"/>
  <path class="cls-8" d="M123.74,86.38c4.39,5.62,9.34,10.75,14.81,15.33,1.26,1.06,3.09-.76,1.82-1.82-5.46-4.58-10.42-9.71-14.81-15.33-1.02-1.3-2.83.53-1.82,1.82h0Z"/>
  <path class="cls-8" d="M92.5,100.44c.77-2.05,1.54-4.1,2.31-6.14.58-1.55-1.9-2.22-2.48-.68-.77,2.05-1.54,4.1-2.31,6.14-.58,1.55,1.9,2.22,2.48.68h0Z"/>
  <path class="cls-8" d="M65.27,94.88c2.98-2.67,5.96-5.35,8.95-8.02,1.24-1.11-.59-2.92-1.82-1.82-2.98,2.67-5.96,5.35-8.95,8.02-1.24,1.11.59,2.92,1.82,1.82h0Z"/>
  <path class="cls-8" d="M50.03,48.37c5.1,3.54,10.39,6.79,15.86,9.74,1.46.79,2.76-1.44,1.3-2.22-5.46-2.95-10.76-6.2-15.86-9.74-1.36-.95-2.65,1.28-1.3,2.22h0Z"/>
  <path class="cls-8" d="M98.25,21.83c-.06,6.6-.11,13.2-.17,19.8-.01,1.66,2.56,1.66,2.57,0,.06-6.6.11-13.2.17-19.8.01-1.66-2.56-1.66-2.57,0h0Z"/>
  <path class="cls-8" d="M123.22,52.91c2.97-2.68,5.95-5.37,8.92-8.05,1.23-1.11-.59-2.93-1.82-1.82-2.97,2.68-5.95,5.37-8.92,8.05-1.23,1.11.59,2.93,1.82,1.82h0Z"/>
  <path class="cls-8" d="M128.44,74.88c2.04.2,4.08.41,6.11.61,1.65.16,1.64-2.41,0-2.57-2.04-.2-4.08-.41-6.11-.61-1.65-.16-1.64,2.41,0,2.57h0Z"/>
  <path class="cls-8" d="M112.44,94.43c.32,2.67.86,5.27,1.68,7.83.5,1.57,2.99.9,2.48-.68-.75-2.33-1.3-4.72-1.59-7.15-.19-1.62-2.77-1.64-2.57,0h0Z"/>
  <path class="cls-8" d="M76.2,95.91c1.1-1.1,2.2-2.2,3.3-3.3,1.17-1.17-.65-3-1.82-1.82-1.1,1.1-2.2,2.2-3.3,3.3-1.17,1.17.65,3,1.82,1.82h0Z"/>
  <path class="cls-8" d="M59.46,87.55c.95-.28,1.91-.56,2.86-.84,1.59-.47.91-2.95-.68-2.48-.95.28-1.91.56-2.86.84-1.59.47-.91,2.95.68,2.48h0Z"/>
  <path class="cls-8" d="M45.15,60.22c2.2.45,4.41.9,6.61,1.36,1.62.33,2.31-2.15.68-2.48l-6.61-1.36c-1.62-.33-2.31,2.15-.68,2.48h0Z"/>
  <path class="cls-8" d="M59.5,41.29c1.42,1.88,2.85,3.76,4.27,5.63.99,1.3,3.23.02,2.22-1.3-1.42-1.88-2.85-3.76-4.27-5.63-.99-1.3-3.23-.02-2.22,1.3h0Z"/>
</svg>