<svg width="9123" height="443" viewBox="0 0 9123 443" fill="none" xmlns="http://www.w3.org/2000/svg">
<path d="M9122.85 14.2233V442.513H0V14.2233C179.89 24.1233 561.74 9.61328 764.46 23.4233C821.85 27.3333 885.61 33.9733 954.88 44.8633C1041.19 58.4333 1129.03 58.4333 1215.34 44.8733C1284.62 33.9733 1348.38 27.3333 1405.78 23.4233C1610.52 9.43328 1711.5 31.6233 1878.41 18.2733C1921.97 14.7933 1965.65 12.9133 2009.34 12.9133H2477.81C2521.5 12.9133 2565.18 14.7933 2608.74 18.2733C2775.65 31.6233 2876.63 9.43328 3081.37 23.4233C3138.77 27.3333 3202.53 33.9733 3271.8 44.8633C3358.11 58.4333 3445.95 58.4333 3532.26 44.8733C3601.54 33.9733 3665.3 27.3333 3722.7 23.4233C3957.32 7.43328 4760.91 -20.1367 5400.16 23.4233C5457.55 27.3333 5521.31 33.9733 5590.58 44.8633C5676.89 58.4333 5764.73 58.4333 5851.04 44.8733C5920.32 33.9733 5984.08 27.3333 6041.48 23.4233C6246.22 9.43328 6347.2 31.6233 6514.12 18.2733C6557.68 14.7933 6601.35 12.9133 6645.05 12.9133H7113.51C7157.21 12.9133 7200.88 14.7933 7244.44 18.2733C7411.36 31.6233 7512.33 9.43328 7717.07 23.4233C7774.47 27.3333 7838.23 33.9733 7907.5 44.8633C7993.81 58.4333 8081.65 58.4333 8167.96 44.8733C8237.24 33.9733 8301 27.3333 8358.4 23.4233C8564.66 9.36328 8943.79 24.0133 9122.85 14.2233Z" fill="#8BCA5E"/>
</svg>
