<?xml version="1.0" encoding="UTF-8"?>
<svg id="_圖層_1" data-name="圖層 1" xmlns="http://www.w3.org/2000/svg" xmlns:xlink="http://www.w3.org/1999/xlink" viewBox="0 0 768.92 1244.12">
  <defs>
    <style>
      .cls-1 {
        fill: none;
      }

      .cls-2 {
        fill: #ff986d;
      }

      .cls-3 {
        fill: #3c90f5;
      }

      .cls-4 {
        fill: #ee5d4d;
      }

      .cls-5 {
        clip-path: url(#clippath-1);
      }

      .cls-6 {
        clip-path: url(#clippath-2);
      }

      .cls-7 {
        fill: #fff;
      }

      .cls-8 {
        fill: #fd9985;
      }

      .cls-9 {
        fill: #fdbf3d;
      }

      .cls-10 {
        fill: #fff76d;
      }

      .cls-11 {
        opacity: .63;
      }

      .cls-12 {
        fill: #e0ecfd;
      }

      .cls-13 {
        fill: #c7d7fa;
      }

      .cls-14 {
        clip-path: url(#clippath);
      }
    </style>
    <clipPath id="clippath">
      <polygon class="cls-3" points="632.32 1136.7 620.75 1171.96 599.54 1174.85 577.62 1181.42 565.77 1188.5 554.02 1197.66 544.95 1210.24 539.08 1223.65 536.29 1235.71 535.99 1243.18 763.48 1243.08 719.75 1138.77 632.32 1136.7"/>
    </clipPath>
    <clipPath id="clippath-1">
      <polygon class="cls-3" points="396.55 1136.7 384.99 1171.96 363.77 1174.85 341.86 1181.42 330 1188.5 318.25 1197.66 309.19 1210.24 303.31 1223.65 300.52 1235.71 300.22 1243.18 527.71 1243.08 483.99 1138.77 396.55 1136.7"/>
    </clipPath>
    <clipPath id="clippath-2">
      <path class="cls-1" d="M588.18,385.86c0-51.34-41.62-92.95-92.95-92.95h-12.71c-32.78,0-60.8,20.33-72.17,49.06l-.06-.02-137.31,231.83,125.72,67.76,50.22-135.6,95.86.81,43.39-120.89Z"/>
    </clipPath>
  </defs>
  <g>
    <polygon class="cls-8" points="723.68 1147.91 640.66 1173.84 629.06 1136.7 626.85 1129.62 709.87 1103.7 718.45 1131.16 723.68 1147.91"/>
    <polygon class="cls-4" points="718.45 1131.16 629.06 1136.7 626.85 1129.62 709.87 1103.7 718.45 1131.16"/>
  </g>
  <g>
    <polygon class="cls-3" points="632.32 1136.7 620.75 1171.96 599.54 1174.85 577.62 1181.42 565.77 1188.5 554.02 1197.66 544.95 1210.24 539.08 1223.65 536.29 1235.71 535.99 1243.18 763.48 1243.08 719.75 1138.77 632.32 1136.7"/>
    <g class="cls-14">
      <polygon class="cls-4" points="768.92 1210.24 517.56 1216.68 517.56 1247.36 768.92 1247.36 768.92 1210.24"/>
    </g>
  </g>
  <g>
    <polygon class="cls-3" points="396.55 1136.7 384.99 1171.96 363.77 1174.85 341.86 1181.42 330 1188.5 318.25 1197.66 309.19 1210.24 303.31 1223.65 300.52 1235.71 300.22 1243.18 527.71 1243.08 483.99 1138.77 396.55 1136.7"/>
    <g class="cls-5">
      <polygon class="cls-4" points="533.15 1210.24 281.8 1216.68 281.8 1247.36 533.15 1247.36 533.15 1210.24"/>
    </g>
  </g>
  <g>
    <path class="cls-4" d="M7.78,351.38S-11.13,213.34,79.64,183.09c90.76-30.25,79.42,69.96,79.42,69.96h139.92S221.45,434.58,7.78,351.38Z"/>
    <path class="cls-4" d="M183.63,101.78s11.35-81.31,153.16,5.67c0,0-121.02,85.09-192.87,39.71-71.85-45.38,39.71-45.38,39.71-45.38Z"/>
    <path class="cls-4" d="M293.3,323.02s5.46-67.86,48.95-54.63c43.49,13.24,23.95,145.18-6.3,165.98,0,0-188.25-101.27-42.65-111.35Z"/>
    <path class="cls-4" d="M514.54,94.22S431.34-47.6,367.05,26.15c-30.69,35.2,18.91,45.38,18.91,45.38,0,0-81.31,0-58.62,24.58,22.69,24.58,122.91,24.58,187.2-1.89Z"/>
    <path class="cls-4" d="M155.44,251.35c14.49-2.37,29.32,3.12,40.72,11.9,11.84,9.12,20.39,21.85,27.33,34.91,7.46,14.02,13.52,28.79,18.44,43.88,4.98,15.28,8.79,30.94,11.65,46.75,2.88,15.89,4.8,31.93,6,48.03.15,1.98.29,3.97.41,5.95.14,2.19,3.58,2.21,3.43,0-1.07-16.53-2.85-33.02-5.58-49.35-2.7-16.15-6.34-32.15-11.19-47.79-4.87-15.71-10.94-31.07-18.41-45.73-6.88-13.51-15.23-26.7-26.79-36.7-11.31-9.79-26.11-16.48-41.29-15.77-1.9.09-3.79.31-5.67.61-.92.15-1.43,1.29-1.2,2.11.27.97,1.19,1.35,2.11,1.2h0Z"/>
    <path class="cls-4" d="M218.43,444.09c-1.09-12.72-.91-25.54.54-38.23,1.43-12.58,4.14-25.02,8.01-37.08,3.86-12.04,8.87-23.78,15.14-34.77,5.84-10.24,13.8-20.27,25.64-23.56,5.23-1.45,10.95-1.38,15.87,1.08,4.32,2.16,8.06,5.86,9.55,10.52.36,1.12.6,2.27.68,3.44.06.93.74,1.72,1.72,1.72.88,0,1.78-.79,1.72-1.72-.38-5.5-3.22-10.52-7.46-14-4.49-3.68-10.06-5.59-15.87-5.44-13.12.34-23.69,9.4-30.77,19.73-3.65,5.32-6.67,11.09-9.47,16.89-2.89,6-5.48,12.15-7.74,18.4-4.5,12.44-7.73,25.33-9.62,38.42-1.91,13.14-2.52,26.46-1.72,39.72.1,1.62.22,3.25.36,4.87.08.92.73,1.72,1.72,1.72.87,0,1.8-.79,1.72-1.72h0Z"/>
    <path class="cls-4" d="M185.27,99.77c-6.83-7.13-18.27-5.78-25.73-.38-9.42,6.82-11.9,19.11-12.54,30.03-.76,12.97-.24,26.12.54,39.08.79,13.05,2.16,26.06,4.02,39,3.78,26.24,9.67,52.15,17.16,77.58,7.52,25.51,16.65,50.53,26.93,75.04,10.32,24.61,21.78,48.72,34.05,72.41,1.51,2.91,3.03,5.81,4.56,8.71,1.03,1.96,4,.22,2.97-1.73-12.05-22.81-23.39-46-33.7-69.64-10.33-23.69-19.6-47.86-27.44-72.49-7.77-24.41-14.12-49.29-18.6-74.52-4.47-25.21-7.03-50.76-7.29-76.37-.06-6.15-.11-12.32.33-18.46.41-5.75,1.35-11.66,3.86-16.91,2.18-4.58,5.38-8.3,9.93-10.63,3.97-2.02,8.78-2.91,13.11-1.64,2.1.62,3.9,1.76,5.41,3.34,1.53,1.6,3.96-.83,2.43-2.43h0Z"/>
    <path class="cls-4" d="M386.82,70.05c-9.35-5.67-21.37-6.82-32.03-5.58-5.52.64-10.96,1.94-16.01,4.31-5.29,2.47-9.86,6.45-13.84,10.67-9.06,9.61-15.15,21.55-20.19,33.64-5.61,13.45-9.89,27.43-13.04,41.66-6.3,28.5-8.12,57.81-7.87,86.94.27,30.22,2.71,60.39,5.11,90.5,2.59,32.42,5.46,64.82,8.61,97.19.39,4.03.79,8.06,1.19,12.09.22,2.18,3.65,2.2,3.43,0-3.16-31.75-6.05-63.53-8.67-95.33-2.44-29.64-4.99-59.33-5.93-89.07-.91-28.79-.22-57.79,4.5-86.26,2.31-13.92,5.59-27.68,10.06-41.06,4.3-12.87,9.48-25.76,16.9-37.18,6.39-9.84,14.93-19.16,26.43-22.7,10.48-3.22,22.53-3.35,32.97.12,2.32.77,4.53,1.77,6.63,3.04,1.89,1.15,3.62-1.82,1.73-2.97h0Z"/>
  </g>
  <g>
    <polygon class="cls-12" points="355.7 439.62 326.41 661.92 323.56 683.54 185.53 681.65 153.38 439.62 355.7 439.62"/>
    <path class="cls-13" d="M326.41,661.92l-2.85,21.62-138.03-1.9-32.15-242.03h15.74c10.45,44.48,36.97,153.79,50.44,177.74,14.73,26.19,87.54,41.03,106.85,44.56Z"/>
  </g>
  <g>
    <g>
      <g>
        <path d="M438.41,283.48h0c29.3,0,53.05-23.75,53.05-53.05v-33.39h0c-29.3,0-53.05,23.75-53.05,53.05v33.39Z"/>
        <path class="cls-8" d="M516.35,234.48c0-19.47-14.16-35.25-31.62-35.25s-31.62,15.78-31.62,35.25,14.16,35.25,31.62,35.25c.57,0,1.14-.02,1.7-.05v27.84h29.27v-55.9c.43-2.3.65-4.69.65-7.14Z"/>
        <path d="M467.22,231.66c0,1.01-.82,1.83-1.83,1.83s-1.83-.82-1.83-1.83.82-1.83,1.83-1.83,1.83.82,1.83,1.83Z"/>
        <path d="M491,231.66c0,1.01-.82,1.83-1.83,1.83s-1.83-.82-1.83-1.83.82-1.83,1.83-1.83,1.83.82,1.83,1.83Z"/>
        <path d="M548.63,283.03h0c-29.3,0-53.05-23.75-53.05-53.05v-33.39h0c29.3,0,53.05,23.75,53.05,53.05v33.39Z"/>
        <path d="M493.11,211h-24.7c-6.31,0-11.43-5.12-11.43-11.43h0c0-6.31,5.12-11.43,11.43-11.43h24.7c6.31,0,11.43,5.12,11.43,11.43h0c0,6.31-5.12,11.43-11.43,11.43Z"/>
      </g>
      <path class="cls-4" d="M486.43,269.68s12.88-.92,15.93-5.09c0,0,1.45,2.21,1.96,2.9.44.59-17.79,15.45-17.79,15.45l-.1-13.25Z"/>
    </g>
    <ellipse cx="547.47" cy="263.4" rx="16.38" ry="18.97"/>
  </g>
  <g>
    <rect class="cls-8" x="397.3" y="1119.39" width="86.98" height="46.33"/>
    <polygon class="cls-4" points="484.28 1119.39 484.28 1144.24 397.3 1131.82 397.3 1119.39 484.28 1119.39"/>
  </g>
  <g>
    <path class="cls-8" d="M291.52,593.9c-19.49,4.7-38.41,11.76-56.22,20.98-1.87.97-3.78,2.01-5.06,3.67-3.43,4.47-.48,11.45,4.43,14.21,4.91,2.76,10.88,2.51,16.5,2.18,11.55-.67,23.1-1.34,34.65-2.02-4.56,12.61-18.75,18.98-31.99,21.09-13.25,2.11-27.11,1.42-39.64,6.21-5.25,2.01-10.41,5.23-12.82,10.32-2.4,5.08-.93,12.23,4.19,14.55,4.65,2.11,10.13-.3,15.16.61,3.85.7,7.05,3.25,10.39,5.29,9.77,5.94,22.02,7.66,33.05,4.64,2.06-.56,4.17-1.29,6.28-.94,2.51.42,4.48,2.29,6.49,3.86,15.72,12.27,38.85,8.2,56.61-.88,25.83-13.2,46.71-35.82,57.81-62.62-27.24-20.9-57.08-38.41-88.62-51.99-3.41,5.1-6.31,7.13-11.2,10.83h0Z"/>
    <path d="M223.75,686.84c11.12-.36,22.26-.81,33.35-1.76,9.93-.86,19.97-2.53,28.88-7.2,4.48-2.35,8.59-5.44,11.89-9.3.71-.84-.5-2.06-1.21-1.21-13.25,15.54-35.79,15.96-54.55,16.97-6.11.33-12.23.59-18.35.79-1.1.04-1.11,1.75,0,1.72h0Z"/>
    <path d="M273.48,695.48c3.93.63,7.85.12,11.73-.59,3.36-.62,6.72-1.27,10.05-2.02,6.41-1.43,12.8-3.28,18.63-6.37,3.26-1.72,6.29-3.85,8.95-6.4.8-.77-.41-1.98-1.21-1.21-9.3,8.89-22.48,11.59-34.69,13.93-4.27.82-8.65,1.7-13,1.01-1.08-.17-1.55,1.48-.46,1.66h0Z"/>
    <path class="cls-4" d="M244.22,615.5c.95,4.78,2.09,9.53,3.41,14.23-2.23.7-4.61,1.16-6.91.74s-4.52-1.87-5.35-4.05c-.92-2.43.06-5.27,1.85-7.15,1.79-1.88,4.25-2.97,6.71-3.81l.3.05Z"/>
    <path class="cls-4" d="M210.04,683.9c-1.11-3.62-1.57-7.73.29-11.03,1.86-3.3,6.73-4.99,9.59-2.51,1.41,1.22,2.02,3.1,2.57,4.88.79,2.54,1.57,5.08,2.36,7.61-4.82.73-9.67,1.26-14.54,1.6l-.28-.55Z"/>
  </g>
  <path class="cls-9" d="M741.51,1049.33l-.51-1.71-28.67-96.32c-2.03-.29-3.97-.63-5.85-1.02,1.95.34,3.89.69,5.85,1.02l-9.56-32.14-7.5-25.21-25.19-84.61-34.51-115.92-39.45-132.51c-7.57-25.42-27.69-44.52-52.4-51.3-6.18-1.7-12.66-2.63-19.29-2.69l-68.1-.64-1.83-.02-49.63-.47-8.33,303.55-.22,8.07-8.47,308.6,9.45.14,86.98,1.3,85.27,1.28,57.4.86h0l91.42,1.37,47.64.72-24.51-82.34Z"/>
  <polygon points="485.86 1047.96 485.56 1046.24 468.37 945.71 445.05 809.34 442.34 793.47 416.22 640.69 432.23 798.73 433.3 809.34 457.28 1046.09 457.45 1047.81 464.7 1119.38 465.37 1126.01 484.28 1126.71 499.41 1127.27 485.86 1047.96"/>
  <path d="M598.56,1127.67c-1.07-4.95-2.13-9.89-3.21-14.84-2.86-13.18-5.73-26.37-8.6-39.56-.02-.06-.03-.1-.04-.16-1.79-8.21-3.58-16.42-5.38-24.64-.13-.57-.25-1.14-.38-1.71-2.26-10.35-4.53-20.7-6.81-31.04-3.05-13.83-19.42-87.44-22.9-103.12,0,0,0,0,0,0l-.13-.56s-.02-.1-.03-.14h0c-2.63-11.71-5.27-23.42-7.92-35.12-5.08-22.4-10.2-44.77-15.41-67.14-.02-.09-.05-.19-.06-.28-4.18-17.86-8.4-35.72-12.79-53.53-.17-.72-.36-1.44-.53-2.16-3.11-12.58-6.23-25.17-9.86-37.61-.96-3.24-1.89-6.52-3.14-9.65-.32-.8-.65-1.59-1.1-2.31-2.79-4.54-3.67-8.98-3.68-14.35-.05-15.36,4.35-30.65,7.94-45.46,1.15-4.73,3.42-10.77.19-15.16-2.43-3.33-6.96-4.06-10.8-4.06-2.31,0-4.68.23-6.94.71-.62-12.03-1.24-24.06-1.86-36.09-1.02-19.63-2.03-39.26-3.05-58.89-.23-4.54-.47-9.08-.7-13.63-.06-1.09-1.78-1.1-1.72,0,.63,12.38,1.28,24.77,1.92,37.15,1.01,19.63,2.03,39.26,3.04,58.89.24,4.55.48,9.09.71,13.63.03.57.52.96,1.09.83,6.6-1.63,18.58-2.08,18.23,7.51-.11,3.1-1.19,6.29-1.91,9.3-.87,3.58-1.75,7.16-2.59,10.74-1.75,7.46-3.35,14.97-4.36,22.57-.86,6.49-1.51,13.35-.18,19.82.62,3.04,2.23,5.57,3.49,7.84,1.2,2.17,1.88,4.83,2.63,7.24,3.43,11,6.2,22.22,9.01,33.4.88,3.52,1.76,7.05,2.63,10.57,3.46,14.05,6.82,28.13,10.13,42.21.83,3.5,1.64,7,2.45,10.5,4.23,18.08,8.38,36.17,12.5,54.26,3.62,15.92,7.22,31.84,10.79,47.77h0c2.17,9.78,18.09,81.27,20.25,91.06,3.26,14.77,6.49,29.54,9.73,44.31.13.57.26,1.14.38,1.71,1,4.57,2,9.15,3,13.72,1.03,4.7,2.05,9.4,3.07,14.09,2.17,9.9,4.32,19.81,6.47,29.71,1.53,7.06,2.83,14.22,4.59,21.23.08.3.14.61.2.92.23,1.07,1.89.62,1.65-.46Z"/>
  <g class="cls-6">
    <rect class="cls-4" x="219.56" y="288.35" width="380.07" height="359.27"/>
    <g>
      <path class="cls-7" d="M253.48,288.08c.05,3.27.11,6.55.16,9.82.15,8.83.3,17.66.44,26.48.22,13.14.44,26.28.66,39.42.27,15.92.53,31.84.8,47.77.29,17.56.59,35.12.88,52.67.3,17.6.59,35.21.89,52.81.28,16.53.55,33.05.83,49.58.23,13.87.47,27.74.7,41.61.17,10.04.34,20.09.5,30.13.08,4.72.08,9.46.24,14.18,0,.21,0,.41.01.62.04,2.21,3.47,2.21,3.43,0-.05-3.27-.11-6.55-.16-9.82-.15-8.83-.3-17.66-.44-26.48-.22-13.14-.44-26.28-.66-39.42-.27-15.92-.53-31.84-.8-47.77-.29-17.56-.59-35.12-.88-52.67-.3-17.6-.59-35.21-.89-52.81-.28-16.53-.55-33.05-.83-49.58-.23-13.87-.47-27.74-.7-41.61-.17-10.04-.34-20.09-.5-30.13-.08-4.72-.08-9.46-.24-14.18,0-.21,0-.41-.01-.62-.04-2.21-3.47-2.21-3.43,0h0Z"/>
      <path class="cls-7" d="M298.94,288.08c.05,3.27.11,6.55.16,9.82.15,8.83.3,17.66.44,26.48.22,13.14.44,26.28.66,39.42.27,15.92.53,31.84.8,47.77.29,17.56.59,35.12.88,52.67.3,17.6.59,35.21.89,52.81.28,16.53.55,33.05.83,49.58.23,13.87.46,27.74.7,41.61.17,10.04.34,20.09.5,30.13.08,4.72.08,9.46.24,14.18,0,.21,0,.41.01.62.04,2.21,3.47,2.21,3.43,0-.05-3.27-.11-6.55-.16-9.82-.15-8.83-.3-17.66-.44-26.48-.22-13.14-.44-26.28-.66-39.42-.27-15.92-.53-31.84-.8-47.77-.29-17.56-.59-35.12-.88-52.67-.3-17.6-.59-35.21-.89-52.81-.28-16.53-.55-33.05-.83-49.58-.23-13.87-.47-27.74-.7-41.61-.17-10.04-.34-20.09-.5-30.13-.08-4.72-.08-9.46-.24-14.18,0-.21,0-.41-.01-.62-.04-2.21-3.47-2.21-3.43,0h0Z"/>
      <path class="cls-7" d="M344.39,288.08c.05,3.27.11,6.55.16,9.82.15,8.83.3,17.66.44,26.48.22,13.14.44,26.28.66,39.42.27,15.92.53,31.84.8,47.77.29,17.56.59,35.12.88,52.67.3,17.6.59,35.21.89,52.81.28,16.53.55,33.05.83,49.58.23,13.87.46,27.74.7,41.61.17,10.04.34,20.09.5,30.13.08,4.72.08,9.46.24,14.18,0,.21,0,.41.01.62.04,2.21,3.47,2.21,3.43,0-.05-3.27-.11-6.55-.16-9.82-.15-8.83-.3-17.66-.44-26.48-.22-13.14-.44-26.28-.66-39.42-.27-15.92-.53-31.84-.8-47.77-.29-17.56-.59-35.12-.88-52.67-.3-17.6-.59-35.21-.89-52.81-.28-16.53-.55-33.05-.83-49.58-.23-13.87-.46-27.74-.7-41.61-.17-10.04-.34-20.09-.5-30.13-.08-4.72-.08-9.46-.24-14.18,0-.21,0-.41-.01-.62-.04-2.21-3.47-2.21-3.43,0h0Z"/>
      <path class="cls-7" d="M389.85,288.08c.05,3.27.11,6.55.16,9.82.15,8.83.3,17.66.44,26.48.22,13.14.44,26.28.66,39.42.27,15.92.53,31.84.8,47.77.29,17.56.59,35.12.88,52.67.3,17.6.59,35.21.89,52.81.28,16.53.55,33.05.83,49.58.23,13.87.46,27.74.7,41.61.17,10.04.34,20.09.51,30.13.08,4.72.08,9.46.24,14.18,0,.21,0,.41.01.62.04,2.21,3.47,2.21,3.43,0-.05-3.27-.11-6.55-.16-9.82-.15-8.83-.3-17.66-.44-26.48-.22-13.14-.44-26.28-.66-39.42-.27-15.92-.53-31.84-.8-47.77-.29-17.56-.59-35.12-.88-52.67-.3-17.6-.59-35.21-.89-52.81-.28-16.53-.55-33.05-.83-49.58l-.7-41.61c-.17-10.04-.34-20.09-.5-30.13-.08-4.72-.08-9.46-.24-14.18,0-.21,0-.41-.01-.62-.04-2.21-3.47-2.21-3.43,0h0Z"/>
      <path class="cls-7" d="M435.3,288.08c.05,3.27.11,6.55.16,9.82.15,8.83.3,17.66.44,26.48.22,13.14.44,26.28.66,39.42.27,15.92.53,31.84.8,47.77.29,17.56.59,35.12.88,52.67.3,17.6.59,35.21.89,52.81.28,16.53.55,33.05.83,49.58.23,13.87.46,27.74.7,41.61.17,10.04.34,20.09.51,30.13.08,4.72.08,9.46.24,14.18,0,.21,0,.41.01.62.04,2.21,3.47,2.21,3.43,0-.05-3.27-.11-6.55-.16-9.82-.15-8.83-.3-17.66-.44-26.48-.22-13.14-.44-26.28-.66-39.42-.27-15.92-.53-31.84-.8-47.77-.29-17.56-.59-35.12-.88-52.67-.3-17.6-.59-35.21-.89-52.81-.28-16.53-.55-33.05-.83-49.58-.23-13.87-.46-27.74-.7-41.61-.17-10.04-.34-20.09-.5-30.13-.08-4.72-.08-9.46-.24-14.18,0-.21,0-.41-.01-.62-.04-2.21-3.47-2.21-3.43,0h0Z"/>
      <path class="cls-7" d="M480.76,288.08c.05,3.27.11,6.55.16,9.82.15,8.83.3,17.66.44,26.48.22,13.14.44,26.28.66,39.42.27,15.92.53,31.84.8,47.77.29,17.56.59,35.12.88,52.67.3,17.6.59,35.21.89,52.81.28,16.53.55,33.05.83,49.58.23,13.87.46,27.74.7,41.61.17,10.04.34,20.09.5,30.13.08,4.72.08,9.46.24,14.18,0,.21,0,.41.01.62.04,2.21,3.47,2.21,3.43,0-.05-3.27-.11-6.55-.16-9.82-.15-8.83-.3-17.66-.44-26.48-.22-13.14-.44-26.28-.66-39.42-.27-15.92-.53-31.84-.8-47.77-.29-17.56-.59-35.12-.88-52.67-.3-17.6-.59-35.21-.89-52.81-.28-16.53-.55-33.05-.83-49.58-.23-13.87-.46-27.74-.7-41.61-.17-10.04-.34-20.09-.5-30.13-.08-4.72-.08-9.46-.24-14.18,0-.21,0-.41-.01-.62-.04-2.21-3.47-2.21-3.43,0h0Z"/>
      <path class="cls-7" d="M526.21,288.08c.05,3.27.11,6.55.16,9.82.15,8.83.3,17.66.44,26.48.22,13.14.44,26.28.66,39.42.27,15.92.53,31.84.8,47.77.29,17.56.59,35.12.88,52.67.3,17.6.59,35.21.89,52.81.28,16.53.55,33.05.83,49.58.23,13.87.46,27.74.7,41.61.17,10.04.34,20.09.5,30.13.08,4.72.08,9.46.24,14.18,0,.21,0,.41.01.62.04,2.21,3.47,2.21,3.43,0l-.16-9.82c-.15-8.83-.3-17.66-.44-26.48-.22-13.14-.44-26.28-.66-39.42-.27-15.92-.53-31.84-.8-47.77-.29-17.56-.59-35.12-.88-52.67-.3-17.6-.59-35.21-.89-52.81-.28-16.53-.55-33.05-.83-49.58-.23-13.87-.46-27.74-.7-41.61-.17-10.04-.34-20.09-.5-30.13-.08-4.72-.08-9.46-.24-14.18,0-.21,0-.41-.01-.62-.04-2.21-3.47-2.21-3.43,0h0Z"/>
      <path class="cls-7" d="M571.67,288.08c.05,3.27.11,6.55.16,9.82.15,8.83.3,17.66.44,26.48.22,13.14.44,26.28.66,39.42.27,15.92.53,31.84.8,47.77.29,17.56.59,35.12.88,52.67.3,17.6.59,35.21.89,52.81.28,16.53.55,33.05.83,49.58.23,13.87.46,27.74.7,41.61.17,10.04.34,20.09.5,30.13.08,4.72.08,9.46.24,14.18,0,.21,0,.41.01.62.04,2.21,3.47,2.21,3.43,0-.05-3.27-.11-6.55-.16-9.82-.15-8.83-.3-17.66-.44-26.48-.22-13.14-.44-26.28-.66-39.42-.27-15.92-.53-31.84-.8-47.77-.29-17.56-.59-35.12-.88-52.67-.3-17.6-.59-35.21-.89-52.81-.28-16.53-.55-33.05-.83-49.58-.23-13.87-.46-27.74-.7-41.61-.17-10.04-.34-20.09-.5-30.13-.08-4.72-.08-9.46-.24-14.18,0-.21,0-.41-.01-.62-.04-2.21-3.47-2.21-3.43,0h0Z"/>
    </g>
    <g>
      <path class="cls-7" d="M234.81,632.45c3.27-.05,6.55-.11,9.82-.16,8.83-.15,17.66-.3,26.48-.44,13.14-.22,26.28-.44,39.42-.66,15.92-.27,31.84-.53,47.77-.8,17.56-.29,35.12-.59,52.67-.88,17.6-.3,35.21-.59,52.81-.89,16.53-.28,33.05-.55,49.58-.83,13.87-.23,27.74-.47,41.61-.7,10.04-.17,20.09-.34,30.13-.5,4.72-.08,9.46-.08,14.18-.24.21,0,.41,0,.62-.01,2.21-.04,2.21-3.47,0-3.43-3.27.05-6.55.11-9.82.16-8.83.15-17.66.3-26.48.44-13.14.22-26.28.44-39.42.66-15.92.27-31.84.53-47.77.8-17.56.29-35.12.59-52.67.88-17.6.3-35.21.59-52.81.89-16.53.28-33.05.55-49.58.83-13.87.23-27.74.47-41.61.7-10.04.17-20.09.34-30.13.5-4.72.08-9.46.08-14.18.24-.21,0-.41,0-.62.01-2.21.04-2.21,3.47,0,3.43h0Z"/>
      <path class="cls-7" d="M234.81,587c3.27-.05,6.55-.11,9.82-.16,8.83-.15,17.66-.3,26.48-.44,13.14-.22,26.28-.44,39.42-.66,15.92-.27,31.84-.53,47.77-.8,17.56-.29,35.12-.59,52.67-.88,17.6-.3,35.21-.59,52.81-.89,16.53-.28,33.05-.55,49.58-.83,13.87-.23,27.74-.46,41.61-.7,10.04-.17,20.09-.34,30.13-.5,4.72-.08,9.46-.08,14.18-.24.21,0,.41,0,.62-.01,2.21-.04,2.21-3.47,0-3.43-3.27.05-6.55.11-9.82.16-8.83.15-17.66.3-26.48.44-13.14.22-26.28.44-39.42.66-15.92.27-31.84.53-47.77.8-17.56.29-35.12.59-52.67.88-17.6.3-35.21.59-52.81.89-16.53.28-33.05.55-49.58.83-13.87.23-27.74.47-41.61.7-10.04.17-20.09.34-30.13.5-4.72.08-9.46.08-14.18.24-.21,0-.41,0-.62.01-2.21.04-2.21,3.47,0,3.43h0Z"/>
      <path class="cls-7" d="M234.81,541.54c3.27-.05,6.55-.11,9.82-.16,8.83-.15,17.66-.3,26.48-.44,13.14-.22,26.28-.44,39.42-.66,15.92-.27,31.84-.53,47.77-.8,17.56-.29,35.12-.59,52.67-.88,17.6-.3,35.21-.59,52.81-.89,16.53-.28,33.05-.55,49.58-.83,13.87-.23,27.74-.46,41.61-.7,10.04-.17,20.09-.34,30.13-.5,4.72-.08,9.46-.08,14.18-.24.21,0,.41,0,.62-.01,2.21-.04,2.21-3.47,0-3.43-3.27.05-6.55.11-9.82.16-8.83.15-17.66.3-26.48.44-13.14.22-26.28.44-39.42.66-15.92.27-31.84.53-47.77.8-17.56.29-35.12.59-52.67.88-17.6.29-35.21.59-52.81.88-16.53.28-33.05.55-49.58.83-13.87.23-27.74.47-41.61.7-10.04.17-20.09.34-30.13.5-4.72.08-9.46.08-14.18.24-.21,0-.41,0-.62.01-2.21.04-2.21,3.47,0,3.43h0Z"/>
      <path class="cls-7" d="M234.81,496.09c3.27-.05,6.55-.11,9.82-.16,8.83-.15,17.66-.3,26.48-.44,13.14-.22,26.28-.44,39.42-.66,15.92-.27,31.84-.53,47.77-.8,17.56-.29,35.12-.59,52.67-.88,17.6-.3,35.21-.59,52.81-.89,16.53-.28,33.05-.55,49.58-.83,13.87-.23,27.74-.46,41.61-.7,10.04-.17,20.09-.34,30.13-.5,4.72-.08,9.46-.08,14.18-.24.21,0,.41,0,.62-.01,2.21-.04,2.21-3.47,0-3.43-3.27.05-6.55.11-9.82.16-8.83.15-17.66.3-26.48.44-13.14.22-26.28.44-39.42.66-15.92.27-31.84.53-47.77.8-17.56.29-35.12.59-52.67.88-17.6.29-35.21.59-52.81.88-16.53.28-33.05.55-49.58.83-13.87.23-27.74.47-41.61.7-10.04.17-20.09.34-30.13.5-4.72.08-9.46.08-14.18.24-.21,0-.41,0-.62.01-2.21.04-2.21,3.47,0,3.43h0Z"/>
      <path class="cls-7" d="M234.81,450.63c3.27-.05,6.55-.11,9.82-.16,8.83-.15,17.66-.3,26.48-.44,13.14-.22,26.28-.44,39.42-.66,15.92-.27,31.84-.53,47.77-.8,17.56-.29,35.12-.59,52.67-.88,17.6-.3,35.21-.59,52.81-.89,16.53-.28,33.05-.55,49.58-.83,13.87-.23,27.74-.46,41.61-.7,10.04-.17,20.09-.34,30.13-.5,4.72-.08,9.46-.08,14.18-.24.21,0,.41,0,.62-.01,2.21-.04,2.21-3.47,0-3.43-3.27.05-6.55.11-9.82.16-8.83.15-17.66.3-26.48.44-13.14.22-26.28.44-39.42.66-15.92.27-31.84.53-47.77.8-17.56.29-35.12.59-52.67.88-17.6.3-35.21.59-52.81.89-16.53.28-33.05.55-49.58.83-13.87.23-27.74.47-41.61.7-10.04.17-20.09.34-30.13.5-4.72.08-9.46.08-14.18.24-.21,0-.41,0-.62.01-2.21.04-2.21,3.47,0,3.43h0Z"/>
      <path class="cls-7" d="M234.81,405.18c3.27-.05,6.55-.11,9.82-.16,8.83-.15,17.66-.3,26.48-.44,13.14-.22,26.28-.44,39.42-.66,15.92-.27,31.84-.53,47.77-.8,17.56-.29,35.12-.59,52.67-.88,17.6-.3,35.21-.59,52.81-.88,16.53-.28,33.05-.55,49.58-.83,13.87-.23,27.74-.46,41.61-.7,10.04-.17,20.09-.34,30.13-.5,4.72-.08,9.46-.08,14.18-.24.21,0,.41,0,.62-.01,2.21-.04,2.21-3.47,0-3.43-3.27.05-6.55.11-9.82.16-8.83.15-17.66.3-26.48.44-13.14.22-26.28.44-39.42.66-15.92.27-31.84.53-47.77.8-17.56.29-35.12.59-52.67.88-17.6.3-35.21.59-52.81.89-16.53.28-33.05.55-49.58.83-13.87.23-27.74.46-41.61.7-10.04.17-20.09.34-30.13.5-4.72.08-9.46.08-14.18.24-.21,0-.41,0-.62.01-2.21.04-2.21,3.47,0,3.43h0Z"/>
      <path class="cls-7" d="M234.81,359.72c3.27-.05,6.55-.11,9.82-.16,8.83-.15,17.66-.3,26.48-.44,13.14-.22,26.28-.44,39.42-.66,15.92-.27,31.84-.53,47.77-.8,17.56-.29,35.12-.59,52.67-.88,17.6-.3,35.21-.59,52.81-.88,16.53-.28,33.05-.55,49.58-.83,13.87-.23,27.74-.46,41.61-.7,10.04-.17,20.09-.34,30.13-.5,4.72-.08,9.46-.08,14.18-.24.21,0,.41,0,.62-.01,2.21-.04,2.21-3.47,0-3.43-3.27.05-6.55.11-9.82.16-8.83.15-17.66.3-26.48.44-13.14.22-26.28.44-39.42.66-15.92.27-31.84.53-47.77.8-17.56.29-35.12.59-52.67.88-17.6.3-35.21.59-52.81.89-16.53.28-33.05.55-49.58.83-13.87.23-27.74.46-41.61.7-10.04.17-20.09.34-30.13.5-4.72.08-9.46.08-14.18.24-.21,0-.41,0-.62.01-2.21.04-2.21,3.47,0,3.43h0Z"/>
      <path class="cls-7" d="M234.81,314.27c3.27-.05,6.55-.11,9.82-.16,8.83-.15,17.66-.3,26.48-.44,13.14-.22,26.28-.44,39.42-.66,15.92-.27,31.84-.53,47.77-.8,17.56-.29,35.12-.59,52.67-.88,17.6-.3,35.21-.59,52.81-.89,16.53-.28,33.05-.55,49.58-.83,13.87-.23,27.74-.46,41.61-.7,10.04-.17,20.09-.34,30.13-.5,4.72-.08,9.46-.08,14.18-.24.21,0,.41,0,.62-.01,2.21-.04,2.21-3.47,0-3.43-3.27.05-6.55.11-9.82.16-8.83.15-17.66.3-26.48.44-13.14.22-26.28.44-39.42.66-15.92.27-31.84.53-47.77.8-17.56.29-35.12.59-52.67.88-17.6.3-35.21.59-52.81.89-16.53.28-33.05.55-49.58.83-13.87.23-27.74.46-41.61.7-10.04.17-20.09.34-30.13.5-4.72.08-9.46.08-14.18.24-.21,0-.41,0-.62.01-2.21.04-2.21,3.47,0,3.43h0Z"/>
    </g>
    <g class="cls-11">
      <path class="cls-2" d="M496.34,292.29c-17.37-2.38-35.75-.26-50.93,8.51-18.24,10.54-29.97,29.24-40.93,47.23-46.06,75.67-91.36,151.8-135.89,228.37,24.08,11.97,48.17,23.93,72.25,35.9-9.93-14.5-20.27-30.4-19.46-47.96.84-18.08,13.22-33.16,22.59-48.65,15.13-25.02,23.19-53.6,35.79-79.98,13.55-28.39,32.21-53.97,50.76-79.37,17.29-23.68,35.85-48.39,62.73-60.07l3.09-3.98Z"/>
    </g>
  </g>
  <path d="M720.76,1142.31c1.38,3.36,2.76,6.72,4.15,10.08,3.32,8.07,6.64,16.14,9.95,24.2,4,9.72,7.99,19.44,11.99,29.16,3.46,8.41,6.91,16.81,10.37,25.22,1.15,2.79,2.3,5.58,3.44,8.37.35.86.71,1.72,1.06,2.57.17.42.31.99.56,1.37.03.05.05.12.07.17.28-.36.55-.72.83-1.09h-223.49c-1,0-2.04-.08-3.03,0-.13.01-.26,0-.39,0l.86.86c-.12-2.16.05-4.37.27-6.52.53-5.26,1.78-10.67,3.6-15.76,2.53-7.09,6.3-13.75,11.13-19.53,6.29-7.51,14.25-13.4,23.02-17.7,12.16-5.96,25.66-8.88,39.08-10.1,2.06-.19,4.12-.33,6.18-.45.39-.02.71-.25.83-.63,3.31-10.2,6.62-20.4,9.92-30.6.47-1.46.95-2.92,1.42-4.38.34-1.05-1.32-1.51-1.66-.46-3.31,10.2-6.62,20.4-9.92,30.6-.47,1.46-.95,2.92-1.42,4.38l.83-.63c-14.33.79-28.75,3.25-42.01,8.9-9.48,4.04-18.26,9.79-25.3,17.36-5.44,5.85-9.74,12.68-12.74,20.08-2.22,5.47-3.71,11.23-4.47,17.09-.34,2.64-.75,5.54-.48,8.21,0,.04,0,.08,0,.12.03.46.37.86.86.86h217.71c2.94,0,5.88.05,8.81,0,.13,0,.26,0,.39,0,.5,0,1.05-.56.83-1.09-1.38-3.36-2.76-6.72-4.15-10.08-3.32-8.07-6.64-16.14-9.95-24.2-4-9.72-7.99-19.44-11.99-29.16-3.46-8.41-6.91-16.81-10.37-25.22-1.69-4.1-3.27-8.27-5.07-12.32-.03-.06-.05-.12-.07-.17-.41-1.01-2.08-.57-1.66.46h0Z"/>
  <path d="M541.95,1216.68c1.86-.04,3.71-.08,5.57-.13,5.01-.11,10.01-.23,15.02-.34,7.45-.17,14.9-.34,22.36-.51,9.03-.21,18.06-.41,27.09-.62,9.96-.23,19.91-.45,29.87-.68,9.98-.23,19.97-.46,29.95-.68,9.37-.21,18.74-.43,28.12-.64,7.87-.18,15.73-.36,23.6-.54,5.7-.13,11.39-.26,17.09-.39,2.68-.06,5.36-.08,8.04-.18.12,0,.23,0,.35,0,1.1-.03,1.11-1.74,0-1.72-1.86.04-3.71.08-5.57.13-5.01.11-10.01.23-15.02.34-7.45.17-14.9.34-22.36.51-9.03.21-18.06.41-27.09.62-9.96.23-19.91.45-29.87.68-9.98.23-19.97.46-29.95.68-9.37.21-18.74.43-28.12.64-7.87.18-15.73.36-23.6.54-5.7.13-11.39.26-17.09.39-2.68.06-5.36.08-8.04.18-.12,0-.23,0-.35,0-1.1.03-1.11,1.74,0,1.72h0Z"/>
  <path class="cls-4" d="M577.05,1178.85c3.08,3.63,6.17,7.26,9.25,10.89.72.84,1.93-.38,1.21-1.21-3.08-3.63-6.17-7.26-9.25-10.89-.72-.84-1.93.38-1.21,1.21h0Z"/>
  <path class="cls-4" d="M593.02,1172.38c3.28,4.06,6.56,8.12,9.83,12.18.29.36.91.3,1.21,0,.36-.35.29-.86,0-1.21-3.28-4.06-6.56-8.12-9.83-12.18-.29-.36-.91-.3-1.21,0-.36.35-.29.86,0,1.21h0Z"/>
  <path class="cls-4" d="M613.43,1172.68c-2.85-2.22-5.49-4.81-7.1-8.08-1.51-3.06-1.93-6.83-.55-10.02,1.28-2.97,4.76-5.73,7.89-3.47,2.71,1.97,3.63,5.89,3.87,9.03.33,4.29-.64,8.59-2.8,12.31-.41.71.44,1.67,1.17,1.17,3.29-2.22,7.07-4.2,11.13-4.28,3.38-.07,6.53,1.4,8.36,4.3,1.62,2.58,1.67,5.8-.67,7.97-2.79,2.59-6.91,2.37-10.24,1.07-4.18-1.64-7.88-4.7-10.78-8.07-.6-.69-1.61.06-1.44.84,1.2,5.4,2.23,10.84,3.11,16.31.17,1.09,1.83.63,1.66-.46-.87-5.47-1.91-10.9-3.11-16.31-.48.28-.96.56-1.44.84,4.97,5.78,15.15,13.27,22.72,7.6,2.95-2.21,3.82-5.91,2.39-9.26-1.44-3.37-4.67-5.87-8.29-6.4-5.14-.74-10.11,1.56-14.26,4.37.39.39.78.78,1.17,1.17,2.2-3.8,3.29-8.21,3.07-12.6-.19-3.72-1.17-8.07-4.13-10.61-3.16-2.7-7.31-1.51-9.68,1.62-2.38,3.14-2.73,7.45-1.64,11.15,1.34,4.55,4.73,8.16,8.39,11.01.86.67,2.09-.54,1.21-1.21h0Z"/>
  <path class="cls-4" d="M612.38,1172.65c-6.88-2.86-13.76-5.71-20.65-8.57-1.02-.42-1.46,1.24-.46,1.66,6.88,2.85,13.76,5.71,20.65,8.57,1.02.42,1.46-1.24.46-1.66h0Z"/>
  <path class="cls-4" d="M630.16,1150.57c13.49,4.11,27,8.16,40.52,12.15,13.53,3.99,27.07,7.91,40.63,11.77,7.66,2.18,15.32,4.34,22.99,6.48,1.07.3,1.52-1.36.46-1.66-13.58-3.79-27.15-7.64-40.7-11.56-13.55-3.92-27.08-7.89-40.59-11.94-7.63-2.28-15.25-4.58-22.86-6.91-1.06-.32-1.51,1.33-.46,1.66h0Z"/>
  <path d="M485.03,1142.31c1.38,3.36,2.76,6.72,4.15,10.08,3.32,8.07,6.64,16.14,9.95,24.2,4,9.72,7.99,19.44,11.99,29.16,3.46,8.41,6.91,16.81,10.37,25.22,1.15,2.79,2.3,5.58,3.44,8.37.35.86.71,1.72,1.06,2.57.17.42.31.99.56,1.37.03.05.05.12.07.17.28-.36.55-.72.83-1.09h-223.49c-1,0-2.04-.08-3.03,0-.13.01-.26,0-.39,0,.29.29.57.57.86.86-.12-2.16.05-4.37.27-6.52.53-5.26,1.78-10.67,3.6-15.76,2.53-7.09,6.3-13.75,11.13-19.53,6.29-7.51,14.25-13.4,23.02-17.7,12.16-5.96,25.66-8.88,39.08-10.1,2.06-.19,4.12-.33,6.18-.45.4-.02.71-.25.83-.63,3.31-10.2,6.62-20.4,9.92-30.6.47-1.46.95-2.92,1.42-4.38.34-1.05-1.32-1.51-1.66-.46-3.31,10.2-6.62,20.4-9.92,30.6-.47,1.46-.95,2.92-1.42,4.38l.83-.63c-14.33.79-28.75,3.25-42.01,8.9-9.48,4.04-18.26,9.79-25.3,17.36-5.44,5.85-9.74,12.68-12.74,20.08-2.22,5.47-3.71,11.23-4.47,17.09-.34,2.64-.75,5.54-.48,8.21,0,.04,0,.08,0,.12.03.46.37.86.86.86h217.71c2.94,0,5.88.05,8.81,0,.13,0,.26,0,.39,0,.5,0,1.05-.56.83-1.09-1.38-3.36-2.76-6.72-4.15-10.08-3.32-8.07-6.64-16.14-9.95-24.2-4-9.72-7.99-19.44-11.99-29.16-3.46-8.41-6.91-16.81-10.37-25.22-1.69-4.1-3.27-8.27-5.07-12.32-.03-.06-.05-.12-.07-.17-.41-1.01-2.08-.57-1.66.46h0Z"/>
  <path d="M306.23,1216.68c1.86-.04,3.71-.08,5.57-.13,5.01-.11,10.01-.23,15.02-.34,7.45-.17,14.9-.34,22.36-.51,9.03-.21,18.06-.41,27.09-.62,9.96-.23,19.91-.45,29.87-.68,9.98-.23,19.97-.46,29.95-.68,9.37-.21,18.74-.43,28.12-.64,7.87-.18,15.73-.36,23.6-.54,5.7-.13,11.39-.26,17.09-.39,2.68-.06,5.36-.08,8.04-.18.12,0,.23,0,.35,0,1.1-.03,1.11-1.74,0-1.72-1.86.04-3.71.08-5.57.13-5.01.11-10.01.23-15.02.34-7.45.17-14.9.34-22.36.51-9.03.21-18.06.41-27.09.62-9.96.23-19.91.45-29.87.68-9.98.23-19.97.46-29.95.68-9.37.21-18.74.43-28.12.64-7.87.18-15.73.36-23.6.54-5.7.13-11.39.26-17.09.39-2.68.06-5.36.08-8.04.18-.12,0-.23,0-.35,0-1.1.03-1.11,1.74,0,1.72h0Z"/>
  <path class="cls-4" d="M341.32,1178.85c3.08,3.63,6.17,7.26,9.25,10.89.72.84,1.93-.38,1.21-1.21-3.08-3.63-6.17-7.26-9.25-10.89-.72-.84-1.93.38-1.21,1.21h0Z"/>
  <path class="cls-4" d="M357.29,1172.38c3.28,4.06,6.56,8.12,9.83,12.18.29.36.91.3,1.21,0,.36-.35.29-.86,0-1.21-3.28-4.06-6.56-8.12-9.83-12.18-.29-.36-.91-.3-1.21,0-.36.35-.29.86,0,1.21h0Z"/>
  <path class="cls-4" d="M377.7,1172.68c-2.85-2.22-5.49-4.81-7.1-8.08-1.51-3.06-1.93-6.83-.55-10.02,1.28-2.97,4.76-5.73,7.89-3.47,2.71,1.97,3.63,5.89,3.87,9.03.33,4.29-.64,8.59-2.8,12.31-.41.71.44,1.67,1.17,1.17,3.29-2.22,7.07-4.2,11.13-4.28,3.38-.07,6.53,1.4,8.36,4.3,1.62,2.58,1.67,5.8-.67,7.97-2.79,2.59-6.91,2.37-10.24,1.07-4.18-1.64-7.88-4.7-10.78-8.07-.6-.69-1.61.06-1.44.84,1.2,5.4,2.23,10.84,3.11,16.31.17,1.09,1.83.63,1.66-.46-.87-5.47-1.91-10.9-3.11-16.31-.48.28-.96.56-1.44.84,4.97,5.78,15.15,13.27,22.72,7.6,2.95-2.21,3.82-5.91,2.39-9.26-1.44-3.37-4.67-5.87-8.29-6.4-5.14-.74-10.11,1.56-14.26,4.37.39.39.78.78,1.17,1.17,2.2-3.8,3.29-8.21,3.07-12.6-.19-3.72-1.17-8.07-4.13-10.61-3.16-2.7-7.31-1.51-9.68,1.62-2.38,3.14-2.73,7.45-1.64,11.15,1.34,4.55,4.73,8.16,8.39,11.01.86.67,2.09-.54,1.21-1.21h0Z"/>
  <path class="cls-4" d="M376.65,1172.65c-6.88-2.86-13.76-5.71-20.65-8.57-1.02-.42-1.46,1.24-.46,1.66,6.88,2.85,13.76,5.71,20.65,8.57,1.02.42,1.46-1.24.46-1.66h0Z"/>
  <path class="cls-4" d="M394.43,1150.57c13.49,4.11,27,8.16,40.52,12.15,13.53,3.99,27.07,7.91,40.63,11.77,7.66,2.18,15.32,4.34,22.99,6.48,1.07.3,1.52-1.36.46-1.66-13.58-3.79-27.15-7.64-40.7-11.56-13.55-3.92-27.08-7.89-40.59-11.94-7.63-2.28-15.25-4.58-22.86-6.91-1.06-.32-1.51,1.33-.46,1.66h0Z"/>
  <path d="M455.78,507.92c1.16-3.43,2.33-6.86,3.49-10.28,2.79-8.23,5.59-16.46,8.38-24.68,3.36-9.89,6.72-19.78,10.07-29.68,2.92-8.59,5.83-17.18,8.75-25.78.95-2.8,1.9-5.6,2.85-8.41.46-1.34.98-2.68,1.37-4.05.02-.06.04-.12.06-.18.36-1.05-1.3-1.5-1.66-.46-1.16,3.43-2.33,6.86-3.49,10.28-2.79,8.23-5.59,16.46-8.38,24.68-3.36,9.89-6.72,19.78-10.07,29.68-2.92,8.59-5.83,17.18-8.75,25.78-.95,2.8-1.9,5.6-2.85,8.41-.46,1.34-.98,2.68-1.37,4.05-.02.06-.04.12-.06.18-.36,1.05,1.3,1.5,1.66.46h0Z"/>
  <path d="M391.63,1047.45c3.14.02,6.27.03,9.41.05,8.46.05,16.92.09,25.38.14,12.59.07,25.18.14,37.77.2,15.26.08,30.51.16,45.77.25,16.82.09,33.65.18,50.47.27,16.87.09,33.73.18,50.6.27,15.83.09,31.67.17,47.5.26,13.29.07,26.58.14,39.87.22,9.62.05,19.25.1,28.87.16,4.53.02,9.06.13,13.59.07.2,0,.4,0,.59,0,1.11,0,1.11-1.71,0-1.72-3.14-.02-6.27-.03-9.41-.05-8.46-.05-16.92-.09-25.38-.14-12.59-.07-25.18-.14-37.77-.2-15.26-.08-30.51-.16-45.77-.25-16.82-.09-33.65-.18-50.47-.27-16.87-.09-33.73-.18-50.6-.27-15.83-.09-31.67-.17-47.5-.26-13.29-.07-26.58-.14-39.87-.22-9.62-.05-19.25-.1-28.87-.16-4.53-.02-9.06-.13-13.59-.07-.2,0-.4,0-.59,0-1.11,0-1.11,1.71,0,1.72h0Z"/>
  <path class="cls-9" d="M541.34,207.59c-3.42,12.06-23.97,16.79-45.91,10.57-21.94-6.22-36.95-21.03-33.53-33.09,3.42-12.06,23.97-16.79,45.91-10.57,21.94,6.22,36.95,21.03,33.53,33.09Z"/>
  <path d="M521.51,214.15c-4.89,0-10.27-.88-15.64-2.6-7.48-2.39-14.05-6.12-18.49-10.49-4.47-4.4-6.25-8.93-5.03-12.77,1.23-3.83,5.31-6.49,11.5-7.48,6.15-.98,13.66-.2,21.14,2.19,7.48,2.39,14.05,6.12,18.49,10.49,4.47,4.4,6.25,8.93,5.03,12.77h0c-1.23,3.83-5.31,6.49-11.5,7.48-1.74.28-3.58.41-5.5.41ZM499.37,180.74c-1.9,0-3.73.14-5.45.41-6.06.97-10.05,3.54-11.23,7.24-1.18,3.7.57,8.11,4.94,12.42,4.4,4.33,10.92,8.03,18.35,10.4,7.43,2.38,14.88,3.15,20.98,2.18,6.06-.97,10.05-3.54,11.23-7.24h0c1.18-3.7-.57-8.11-4.94-12.42-4.4-4.33-10.92-8.03-18.35-10.41-5.34-1.71-10.68-2.59-15.53-2.59Z"/>
  <path d="M49.81,317.45c.97-.57,1.95-1.13,2.92-1.7,2.67-1.55,5.34-3.1,8-4.65,3.93-2.28,7.86-4.56,11.78-6.84,4.79-2.78,9.58-5.56,14.38-8.34,5.27-3.06,10.55-6.12,15.82-9.18,5.3-3.08,10.6-6.15,15.9-9.23,4.94-2.87,9.88-5.74,14.82-8.6,4.18-2.43,8.36-4.85,12.53-7.28,3.02-1.75,6.04-3.5,9.06-5.26,1.42-.83,2.87-1.62,4.27-2.48.06-.04.12-.07.19-.11.96-.55.09-2.04-.87-1.48-.97.57-1.95,1.13-2.92,1.7-2.67,1.55-5.34,3.1-8,4.65-3.93,2.28-7.86,4.56-11.79,6.84-4.79,2.78-9.58,5.56-14.37,8.34-5.27,3.06-10.55,6.12-15.82,9.18-5.3,3.08-10.6,6.15-15.9,9.23-4.94,2.87-9.88,5.74-14.82,8.6-4.18,2.42-8.36,4.85-12.53,7.28-3.02,1.75-6.04,3.5-9.06,5.26-1.42.83-2.87,1.62-4.27,2.48-.06.04-.12.07-.19.11-.96.55-.09,2.04.87,1.48h0Z"/>
  <path d="M335.73,425.21c-.43-1.16-.87-2.32-1.3-3.49-1.17-3.14-2.34-6.27-3.51-9.41-1.69-4.53-3.38-9.06-5.07-13.59-2.02-5.41-4.03-10.82-6.05-16.23-2.12-5.69-4.24-11.37-6.36-17.06-2.03-5.44-4.05-10.87-6.08-16.3-1.73-4.65-3.47-9.31-5.2-13.96-1.22-3.27-2.44-6.55-3.66-9.82-.51-1.37-1.03-2.74-1.53-4.11-.64-1.76-1.47-3.45-2.53-5-1.11-1.62-2.44-3.09-4.09-4.16-1.94-1.27-4.17-2.23-6.27-3.23-.77-.37-1.55-.73-2.33-1.07-1-.43-1.88,1.05-.87,1.48.82.35,1.62.73,2.42,1.11,2.07.99,4.26,1.93,6.18,3.19,2.66,1.74,4.54,4.75,5.66,7.67.41,1.07.8,2.15,1.2,3.23,1.09,2.93,2.19,5.87,3.28,8.8,1.63,4.38,3.26,8.75,4.89,13.13,1.97,5.29,3.94,10.57,5.91,15.86,2.11,5.65,4.21,11.3,6.32,16.95,2.04,5.47,4.08,10.95,6.12,16.42,1.78,4.78,3.56,9.55,5.34,14.33,1.3,3.49,2.6,6.97,3.9,10.46.63,1.68,1.24,3.36,1.88,5.03.03.07.05.15.08.22.38,1.03,2.04.58,1.66-.46h0Z"/>
  <path d="M186.36,102.43c1.34.05,2.69.1,4.03.16,3.65.14,7.31.29,10.96.43,5.38.21,10.76.42,16.14.63,6.59.26,13.18.52,19.77.77,7.22.28,14.44.56,21.66.85,7.26.28,14.52.57,21.77.85,6.8.27,13.59.53,20.39.8,5.74.22,11.48.45,17.23.67,4.13.16,8.26.32,12.38.48,1.95.08,3.91.21,5.86.23.08,0,.16,0,.25,0,1.11.04,1.1-1.67,0-1.72-1.34-.05-2.69-.1-4.03-.16-3.65-.14-7.31-.29-10.96-.43-5.38-.21-10.76-.42-16.14-.63-6.59-.26-13.18-.52-19.77-.77-7.22-.28-14.44-.56-21.66-.85-7.26-.28-14.52-.57-21.78-.85-6.8-.27-13.59-.53-20.39-.8-5.74-.22-11.48-.45-17.23-.67-4.13-.16-8.26-.32-12.38-.48-1.95-.08-3.91-.21-5.86-.23-.08,0-.16,0-.25,0-1.11-.04-1.1,1.67,0,1.72h0Z"/>
  <path d="M511.4,91.92c-1.12-.19-2.24-.38-3.36-.57-3.04-.52-6.09-1.03-9.13-1.55-4.48-.76-8.95-1.52-13.43-2.28-5.49-.93-10.97-1.86-16.46-2.79-6.01-1.02-12.02-2.04-18.03-3.06-6.04-1.02-12.08-2.05-18.12-3.07-5.66-.96-11.32-1.92-16.97-2.88-4.78-.81-9.56-1.62-14.34-2.43-3.42-.58-6.85-1.16-10.27-1.74-1.63-.28-3.26-.56-4.9-.83-.07-.01-.14-.02-.21-.04-1.08-.18-1.55,1.47-.46,1.66,1.12.19,2.24.38,3.36.57,3.04.52,6.09,1.03,9.13,1.55,4.48.76,8.95,1.52,13.43,2.28,5.49.93,10.97,1.86,16.46,2.79,6.01,1.02,12.02,2.04,18.03,3.06,6.04,1.02,12.08,2.05,18.12,3.07,5.66.96,11.32,1.92,16.97,2.88,4.78.81,9.56,1.62,14.34,2.43,3.42.58,6.85,1.16,10.27,1.74,1.63.28,3.26.57,4.9.83.07.01.14.02.21.04,1.08.18,1.55-1.47.46-1.66h0Z"/>
  <path d="M287.31,251.58c-.18-3.92-.36-7.84-.55-11.76-.04-.93-.76-1.72-1.72-1.72-.9,0-1.76.79-1.72,1.72.18,3.92.36,7.84.55,11.76.04.93.76,1.72,1.72,1.72.9,0,1.76-.79,1.72-1.72h0Z"/>
  <path d="M317.74,94.43c.14-.41.29-.82.46-1.23-.06.14-.12.27-.17.41.57-1.34,1.31-2.61,2.19-3.76.25-.33.28-.95.17-1.32-.11-.4-.42-.83-.79-1.03-.4-.21-.88-.32-1.32-.17-.14.06-.27.12-.41.17-.26.15-.46.36-.62.62-1.25,1.62-2.18,3.46-2.83,5.4-.29.85.33,1.91,1.2,2.11.95.22,1.81-.29,2.11-1.2h0Z"/>
  <path d="M296,411.57c.22,2.52.44,5.04.66,7.56.08.89.73,1.76,1.72,1.72.86-.04,1.8-.76,1.72-1.72-.22-2.52-.44-5.04-.66-7.56-.08-.89-.73-1.76-1.72-1.72-.86.04-1.8.76-1.72,1.72h0Z"/>
  <path d="M296.94,422.6v2.52c0,.44.19.9.5,1.21s.79.52,1.21.5c.44-.02.9-.17,1.21-.5.31-.34.5-.75.5-1.21v-2.52c0-.44-.19-.9-.5-1.21s-.79-.52-1.21-.5c-.44.02-.9.17-1.21.5-.31.34-.5.75-.5,1.21h0Z"/>
  <path d="M251.3,375.79c.34,2.41.69,4.82,1.03,7.24.06.4.46.84.79,1.03.37.22.91.31,1.32.17.42-.13.82-.39,1.03-.79.23-.44.24-.84.17-1.32-.34-2.41-.69-4.82-1.03-7.24-.06-.4-.46-.83-.79-1.03-.37-.22-.91-.31-1.32-.17-.42.13-.82.39-1.03.79-.23.44-.24.84-.17,1.32h0Z"/>
  <path d="M253.1,386.37c.13,1.15.27,2.3.4,3.46,0,.24.04.46.15.66.07.21.19.4.36.55.3.3.79.52,1.21.5.44-.02.9-.17,1.21-.5.29-.31.55-.77.5-1.21-.13-1.15-.27-2.3-.4-3.46,0-.24-.04-.46-.15-.66-.07-.21-.19-.4-.36-.55-.3-.3-.79-.52-1.21-.5-.44.02-.91.17-1.21.5-.29.31-.55.77-.5,1.21h0Z"/>
  <path d="M195.06,357.24c.58,1.98,1.16,3.96,1.73,5.94.25.86,1.22,1.49,2.11,1.2.87-.28,1.47-1.19,1.2-2.11-.58-1.98-1.16-3.96-1.73-5.94-.25-.86-1.22-1.49-2.11-1.2-.87.28-1.47,1.19-1.2,2.11h0Z"/>
  <path d="M198.86,367.37c.31.74.63,1.47.94,2.21.11.2.26.36.44.48.17.15.36.25.58.31.23.07.46.08.68.03.23-.01.44-.08.64-.2.37-.24.69-.59.79-1.03.02-.15.04-.3.06-.46,0-.31-.08-.6-.23-.87-.31-.74-.63-1.47-.94-2.21-.11-.2-.26-.36-.44-.48-.17-.15-.36-.25-.58-.31-.23-.07-.46-.08-.68-.03-.23.01-.44.08-.64.2-.37.24-.69.59-.79,1.03-.02.15-.04.3-.06.46,0,.31.08.6.23.87h0Z"/>
  <path d="M237.13,334.85c-.72,1.79-1.45,3.58-2.17,5.37-.16.39-.03.98.17,1.32.21.36.62.7,1.03.79.44.1.93.08,1.32-.17.4-.26.61-.59.79-1.03.72-1.79,1.45-3.58,2.17-5.37.16-.39.03-.98-.17-1.32-.21-.36-.62-.7-1.03-.79-.44-.1-.93-.08-1.32.17-.4.26-.61.59-.79,1.03h0Z"/>
  <path d="M232.9,344.84c-1.32,2.63-2.36,5.41-3.05,8.28-.21.87.27,1.9,1.2,2.11.88.2,1.89-.27,2.11-1.2.32-1.34.71-2.66,1.18-3.95.12-.32.24-.63.36-.95.06-.16.13-.31.19-.47.08-.18.07-.18,0,0,.03-.07.06-.13.09-.2.28-.64.58-1.27.89-1.9.4-.8.24-1.9-.62-2.35-.78-.41-1.92-.24-2.35.62h0Z"/>
  <path d="M227.67,358.17c-.21.53-.42,1.05-.63,1.58-.07.23-.08.46-.03.68.01.23.08.44.2.64.11.2.26.36.44.48.17.15.36.25.58.31.15.02.3.04.46.06.31,0,.6-.08.87-.23.12-.09.23-.18.35-.27.21-.21.36-.47.44-.76.21-.53.42-1.05.63-1.58.07-.23.08-.46.03-.68-.01-.23-.08-.44-.2-.64-.11-.2-.26-.36-.44-.48-.17-.15-.36-.25-.58-.31-.15-.02-.3-.04-.46-.06-.31,0-.6.08-.87.23-.12.09-.23.18-.35.27-.21.21-.36.47-.44.76h0Z"/>
  <path d="M287.66,317.32c.21,1.89.25,3.79.13,5.69-.06.9.83,1.76,1.72,1.72.98-.04,1.65-.76,1.72-1.72.13-1.9.09-3.8-.12-5.69-.05-.47-.16-.87-.5-1.21-.3-.3-.79-.52-1.21-.5-.44.02-.9.17-1.21.5-.29.31-.55.77-.5,1.21h0Z"/>
  <path d="M286.82,307.16c.03.06.06.12.08.18-.06-.14-.12-.27-.17-.41.12.27.19.56.23.86-.02-.15-.04-.3-.06-.46.04.3.04.59,0,.89.02-.15.04-.3.06-.46-.01.1-.03.2-.06.3-.1.45-.06.92.17,1.32.11.2.26.36.44.48.17.15.36.25.58.31.44.1.93.08,1.32-.17.37-.24.69-.59.79-1.03.12-.52.18-1.07.12-1.61-.04-.33-.08-.67-.17-.99-.1-.33-.23-.64-.38-.95-.11-.2-.26-.36-.44-.48-.17-.15-.36-.25-.58-.31-.23-.07-.46-.08-.68-.03-.23.01-.44.08-.64.2-.37.24-.69.59-.79,1.03-.02.15-.04.3-.06.46,0,.31.08.6.23.87h0Z"/>
  <path d="M286.54,300.01v1.26c0,.24.04.46.15.66.07.21.19.4.36.55.16.17.34.29.55.36.2.11.43.16.66.15.15-.02.3-.04.46-.06.29-.08.54-.23.76-.44.09-.12.18-.23.27-.35.16-.27.23-.56.23-.87v-1.26c0-.24-.04-.46-.15-.66-.07-.21-.19-.4-.35-.55-.16-.17-.34-.29-.55-.35-.2-.11-.43-.16-.66-.15-.15.02-.3.04-.46.06-.29.08-.54.23-.76.44-.09.12-.18.23-.27.35-.16.27-.23.56-.23.87h0Z"/>
  <path d="M298.48,130.28c-2.51,6.54-4.34,13.31-5.47,20.22-.15.91.24,1.85,1.2,2.11.82.23,1.96-.28,2.11-1.2,1.13-6.91,2.97-13.69,5.47-20.22.33-.87-.37-1.88-1.2-2.11-.97-.27-1.78.33-2.11,1.2h0Z"/>
  <path d="M291.61,155.52c-.33,1.36-.65,2.73-.98,4.09-.11.44-.06.93.17,1.32.21.36.62.7,1.03.79.44.1.93.08,1.32-.17.37-.24.68-.59.79-1.03.33-1.36.65-2.73.98-4.09.11-.44.06-.93-.17-1.32-.21-.36-.62-.7-1.03-.79-.44-.1-.93-.08-1.32.17-.37.24-.68.59-.79,1.03h0Z"/>
  <path d="M289.16,166.25c-.13.73-.26,1.46-.38,2.19-.07.23-.08.46-.03.68.01.23.08.44.2.64.11.2.26.36.44.48.17.15.36.25.58.31.44.1.93.08,1.32-.17.36-.23.71-.59.79-1.03.13-.73.26-1.46.38-2.19.07-.23.08-.46.03-.68-.01-.23-.08-.44-.2-.64-.11-.2-.26-.36-.44-.48-.17-.15-.36-.25-.58-.31-.44-.1-.93-.08-1.32.17-.36.23-.71.59-.79,1.03h0Z"/>
  <path d="M159.03,103.96c.08-.11.15-.21.23-.31-.09.12-.18.23-.27.35.5-.65,1.08-1.23,1.73-1.73l-.35.27c.44-.34.91-.64,1.4-.9.37-.2.68-.63.79-1.03.11-.41.06-.96-.17-1.32-.24-.37-.59-.69-1.03-.79-.46-.1-.9-.05-1.32.17-1.6.85-2.93,2.09-3.98,3.56-.25.34-.28.93-.17,1.32.11.4.42.83.79,1.03.4.21.88.32,1.32.17.14-.06.27-.12.41-.17.26-.15.46-.36.62-.62h0Z"/>
  <path d="M174.32,97.89c.72.17,1.44.38,2.14.62.35.12.7.25,1.04.4-.4-.18.16.07.23.11.17.08.34.16.5.24.67.33,1.32.69,1.94,1.09.31.2.62.41.92.62.15.11.3.22.45.33-.34-.25.14.12.2.16.7.56,1.76.73,2.43,0,.58-.63.75-1.82,0-2.43-2.62-2.13-5.65-3.68-8.94-4.46-.87-.21-1.9.27-2.11,1.2-.2.88.26,1.89,1.2,2.11h0Z"/>
  <path d="M168.82,98.77h.32c.24,0,.46-.04.66-.15.21-.07.4-.19.55-.35.17-.16.29-.34.36-.55.11-.2.16-.43.15-.66-.02-.15-.04-.3-.06-.46-.08-.29-.23-.54-.44-.76-.12-.09-.23-.18-.35-.27-.27-.16-.56-.23-.87-.23h-.32c-.24,0-.46.04-.66.15-.21.07-.4.19-.55.36-.17.16-.29.34-.36.55-.11.2-.16.43-.15.66.02.15.04.3.06.46.08.29.23.54.44.76.12.09.23.18.35.27.27.16.56.23.87.23h0Z"/>
  <path d="M146.62,150.95v8.51c0,.9.79,1.76,1.72,1.72.93-.04,1.72-.75,1.72-1.72v-8.51c0-.9-.79-1.76-1.72-1.72-.93.04-1.72.75-1.72,1.72h0Z"/>
  <path d="M147.54,163.37c-.21.5-.29,1.03-.34,1.56-.05.53.02,1.08.13,1.59.05.22.16.42.31.58.12.19.28.33.48.44.2.13.41.19.64.2.23.05.46.04.68-.03.42-.13.82-.39,1.03-.79.06-.14.12-.27.17-.41.08-.3.08-.61,0-.91-.02-.1-.04-.21-.06-.32.02.15.04.3.06.46-.04-.32-.04-.64,0-.96-.02.15-.04.3-.06.46.04-.33.13-.65.26-.96.07-.23.08-.46.03-.68-.01-.23-.08-.44-.2-.64-.11-.2-.26-.36-.44-.48-.17-.15-.36-.25-.58-.31-.44-.1-.93-.08-1.32.17-.12.09-.23.18-.35.27-.21.21-.36.47-.44.76h0Z"/>
  <path d="M149.6,173.15c2.21,0,2.21-3.43,0-3.43s-2.21,3.43,0,3.43h0Z"/>
  <path class="cls-2" d="M147.95,199.01c-11.16-18.74-34.71-28.09-56.36-25.5-21.66,2.59-41.12,15.68-54.84,32.63-13.73,16.95-22.25,37.53-28.52,58.42-8.14,27.14-12.61,57.07-1.96,83.33,1.8-27.92,9.58-55.43,22.66-80.16,5.66-10.71,14.39-22.12,26.5-22.1,8.32.01,16.31,5.66,24.43,3.83,14.39-3.24,17.77-26.84,32.48-27.93,4.97-.37,9.62,2.18,14.39,3.62,4.77,1.44,10.87,1.35,13.67-2.77,1.5-2.2,1.66-5.03,2.64-7.51.99-2.47,3.62-4.81,6.08-3.8.31-4.62-.74-9.33-2.99-13.38l1.81,1.31Z"/>
  <path class="cls-2" d="M363.67,57.92c-11.31-13.36-10.44-31.5,2.03-43.79,5.58-5.5,12.88-9,20.41-11.19,8.95-2.61,18.41-3.5,27.69-2.6,33.97,3.29,61.1,29.23,82.53,55.8,8.49,10.52,16.91,22.35,17.27,35.86-11.24-5.5-18.63-16.38-26.91-25.76-21.29-24.12-51.47-40.21-83.36-44.43-8.18-1.08-18.26-.49-22.25,6.75-1.31,2.37-1.71,5.12-2.36,7.74-2.19,8.76-7.55,16.68-14.87,21.97l-.18-.36Z"/>
  <path class="cls-2" d="M185.64,97.9c2.23-12.67,12.5-22.91,24.43-27.71,11.93-4.8,25.28-4.85,38.01-3.05,31.1,4.4,59.86,19.23,85.64,37.15-17.36-12.12-38.73-16.71-59.46-21.02-15.45-3.21-31.17-6.43-46.89-5.03-15.72,1.39-31.72,8.09-40.69,21.07l-1.04-1.41Z"/>
  <path class="cls-10" d="M733.09,1116.58c-4.13,5.22-9.15,9.72-14.78,13.27,16.8,1.85,33.71,2.79,50.61,2.82-11.6-40.17-24.37-81.98-35.97-122.15h0c-69.54-219.35-102.59-342.35-108.12-393.65-1.03-9.61-6.68-38.53-25.21-68.82-12.8-20.92-33.33-38.51-57.65-41.71,3.06,15.36,4.8,27.9,5.82,36.5,2.23,18.72,2.04,31.68,9.89,34.2,4.43,1.42,9.44.55,13.66,2.49,5.14,2.36,7.64,8.11,9.7,13.37,8.16,20.83,16.33,41.67,24.49,62.5,9.71,24.79,19.48,49.75,24.39,75.92,8.73,46.46,8.37,53.92,19.69,93.93,7.55,26.68,15.45,45.06,24.22,66.23,55.48,133.86,27.03,76.31,46.31,121.91,6.38,15.09,12.52,28.55,9.68,45.2-1.58,9.25-3.63,14.01-2.97,23.43.61,8.68,4.55,16.72,7.64,24.86.62,1.63,1.22,3.36.98,5.09-.24,1.74-1.3,3.24-2.39,4.61Z"/>
</svg>