<?xml version="1.0" encoding="UTF-8"?>
<svg id="_圖層_1" data-name="圖層 1" xmlns="http://www.w3.org/2000/svg" viewBox="0 0 9122.85 552.94">
  <defs>
    <style>
      .cls-1 {
        fill: #ededc3;
      }

      .cls-2 {
        fill: #377464;
      }

      .cls-3 {
        fill: #8bca5e;
      }

      .cls-4 {
        fill: #17c690;
      }
    </style>
  </defs>
  <g>
    <path class="cls-4" d="M648.23,69.9c2.2-9.3.64-25.69-22.96-32.09-1.84,18.57,8.34,29.98,22.96,32.09Z"/>
    <path class="cls-1" d="M725.1,132.11h-167.85c33.95-30.94,105.63-62.99,167.85,0Z"/>
    <path class="cls-4" d="M654.99,79.98c.89-9.52,7.6-24.55,32.01-23.07-4.19,18.18-17.48,25.74-32.01,23.07Z"/>
    <path class="cls-2" d="M637,53.36c-2.59,1.49,12.69,27.1,12.69,27.1v23.47c0,1.41,3.48,1.4,3.48,0v-21.36s15.92-7.82,15.07-9.42c-.84-1.6-15.52,5.28-15.52,5.28,0,0-13.14-26.56-15.73-25.07Z"/>
  </g>
  <g>
    <path class="cls-4" d="M8962.5,68.41c2.2-9.3.64-25.69-22.96-32.09-1.84,18.57,8.34,29.98,22.96,32.09Z"/>
    <path class="cls-1" d="M9039.37,130.63h-167.85c33.95-30.94,105.63-62.99,167.85,0Z"/>
    <path class="cls-4" d="M8969.26,78.49c.89-9.52,7.6-24.55,32.01-23.07-4.19,18.18-17.48,25.74-32.01,23.07Z"/>
    <path class="cls-2" d="M8951.28,51.87c-2.59,1.49,12.69,27.1,12.69,27.1v23.47c0,1.41,3.48,1.4,3.48,0v-21.36s15.92-7.82,15.07-9.42c-.84-1.6-15.52,5.28-15.52,5.28,0,0-13.14-26.56-15.73-25.07Z"/>
  </g>
  <g>
    <path class="cls-4" d="M2754.98,80.85c2.2-9.3.64-25.69-22.96-32.09-1.84,18.57,8.34,29.98,22.96,32.09Z"/>
    <path class="cls-1" d="M2831.85,143.07h-167.85c33.95-30.94,105.63-62.99,167.85,0Z"/>
    <path class="cls-4" d="M2761.74,90.93c.89-9.52,7.6-24.55,32.01-23.07-4.19,18.18-17.48,25.74-32.01,23.07Z"/>
    <path class="cls-2" d="M2743.76,64.31c-2.59,1.49,12.69,27.1,12.69,27.1v23.47c0,1.41,3.48,1.4,3.48,0v-21.36s15.92-7.82,15.07-9.42c-.84-1.6-15.52,5.28-15.52,5.28,0,0-13.14-26.56-15.73-25.07Z"/>
  </g>
  <g>
    <path class="cls-4" d="M1403.86,58.4c-3.15-13.33-.92-36.82,32.9-45.98,2.64,26.61-11.95,42.97-32.9,45.98Z"/>
    <path class="cls-1" d="M1482.59,142.04h-167.85c33.95-30.94,105.63-62.99,167.85,0Z"/>
    <path class="cls-4" d="M1394.18,72.85c-1.28-13.64-10.89-35.18-45.87-33.06,6,26.06,25.06,36.89,45.87,33.06Z"/>
    <path class="cls-2" d="M1419.95,34.7c3.71,2.14-18.18,38.84-18.18,38.84v33.64c0,2.02-4.99,2-4.99-.01v-30.61s-22.81-11.2-21.6-13.5c1.21-2.3,22.23,7.57,22.23,7.57,0,0,18.83-38.06,22.54-35.93Z"/>
  </g>
  <g>
    <path class="cls-4" d="M3883.41,45.98c-3.15-13.33-.92-36.82,32.9-45.98,2.64,26.61-11.95,42.97-32.9,45.98Z"/>
    <path class="cls-1" d="M3962.13,129.62h-167.85c33.95-30.94,105.63-62.99,167.85,0Z"/>
    <path class="cls-4" d="M3873.72,60.43c-1.28-13.64-10.89-35.18-45.87-33.06,6,26.06,25.06,36.89,45.87,33.06Z"/>
    <path class="cls-2" d="M3899.5,22.28c3.71,2.14-18.18,38.84-18.18,38.84v33.64c0,2.02-4.99,2-4.99-.01v-30.61s-22.81-11.2-21.6-13.5c1.21-2.3,22.23,7.57,22.23,7.57,0,0,18.83-38.06,22.54-35.93Z"/>
  </g>
  <g>
    <path class="cls-4" d="M5247.84,77.08c2.2-9.3.64-25.69-22.96-32.09-1.84,18.57,8.34,29.98,22.96,32.09Z"/>
    <path class="cls-1" d="M5324.7,139.3h-167.85c33.95-30.94,105.63-62.99,167.85,0Z"/>
    <path class="cls-4" d="M5254.59,87.16c.89-9.52,7.6-24.55,32.01-23.07-4.19,18.18-17.48,25.74-32.01,23.07Z"/>
    <path class="cls-2" d="M5236.61,60.54c-2.59,1.49,12.69,27.1,12.69,27.1v23.47c0,1.41,3.48,1.4,3.48,0v-21.36s15.92-7.82,15.07-9.42c-.84-1.6-15.52,5.28-15.52,5.28,0,0-13.14-26.56-15.73-25.07Z"/>
  </g>
  <g>
    <path class="cls-4" d="M6376.26,56.89c-3.15-13.33-.92-36.82,32.9-45.98,2.64,26.61-11.95,42.97-32.9,45.98Z"/>
    <path class="cls-1" d="M6454.99,140.52h-167.85c33.95-30.94,105.63-62.99,167.85,0Z"/>
    <path class="cls-4" d="M6366.58,71.33c-1.28-13.64-10.89-35.18-45.87-33.06,6,26.06,25.06,36.89,45.87,33.06Z"/>
    <path class="cls-2" d="M6392.35,33.18c3.71,2.14-18.18,38.84-18.18,38.84v33.64c0,2.02-4.99,2-4.99-.01v-30.61s-22.81-11.2-21.6-13.5c1.21-2.3,22.23,7.57,22.23,7.57,0,0,18.83-38.06,22.54-35.93Z"/>
  </g>
  <g>
    <path class="cls-4" d="M7578.94,51.31c-3.15-13.33-.92-36.82,32.9-45.98,2.64,26.61-11.95,42.97-32.9,45.98Z"/>
    <path class="cls-1" d="M7657.67,134.94h-167.85c33.95-30.94,105.63-62.99,167.85,0Z"/>
    <path class="cls-4" d="M7569.26,65.75c-1.28-13.64-10.89-35.18-45.87-33.06,6,26.06,25.06,36.89,45.87,33.06Z"/>
    <path class="cls-2" d="M7595.03,27.6c3.71,2.14-18.18,38.84-18.18,38.84v33.64c0,2.02-4.99,2-4.99-.01v-30.61s-22.81-11.2-21.6-13.5c1.21-2.3,22.23,7.57,22.23,7.57,0,0,18.83-38.06,22.54-35.93Z"/>
  </g>
  <path class="cls-3" d="M9122.85,124.65v428.29H0V124.65c179.89,9.9,561.74-4.61,764.46,9.2,57.39,3.91,121.15,10.55,190.42,21.44,86.31,13.57,174.15,13.57,260.46.01,69.28-10.9,133.04-17.54,190.44-21.45,204.74-13.99,305.72,8.2,472.63-5.15,43.56-3.48,87.24-5.36,130.93-5.36h468.47c43.69,0,87.37,1.88,130.93,5.36,166.91,13.35,267.89-8.84,472.63,5.15,57.4,3.91,121.16,10.55,190.43,21.44,86.31,13.57,174.15,13.57,260.46.01,69.28-10.9,133.04-17.54,190.44-21.45,234.62-15.99,1038.21-43.56,1677.46,0,57.39,3.91,121.15,10.55,190.42,21.44,86.31,13.57,174.15,13.57,260.46.01,69.28-10.9,133.04-17.54,190.44-21.45,204.74-13.99,305.72,8.2,472.64-5.15,43.56-3.48,87.23-5.36,130.93-5.36h468.46c43.7,0,87.37,1.88,130.93,5.36,166.92,13.35,267.89-8.84,472.63,5.15,57.4,3.91,121.16,10.55,190.43,21.44,86.31,13.57,174.15,13.57,260.46.01,69.28-10.9,133.04-17.54,190.44-21.45,206.26-14.06,585.39.59,764.45-9.2Z"/>
</svg>