<?xml version="1.0" encoding="UTF-8"?>
<svg id="_圖層_1" data-name="圖層 1" xmlns="http://www.w3.org/2000/svg" viewBox="0 0 363.91 171.96">
  <defs>
    <style>
      .cls-1 {
        fill: #fff;
      }
    </style>
  </defs>
  <path class="cls-1" d="M57.56,17.03h4.36c7.18,0,11.96,2.54,14.34,7.64.78,1.24,1.17,3.54,1.17,6.9h-.24c0,.1.08.15.24.15-.33,3.3-1.24,6.93-2.74,10.92-1.24,2.71-2.76,5.48-4.55,8.32-.26.69-.65,1.03-1.17,1.03v.59c-2.58,4.28-5.38,7.96-8.42,11.06h.24c.26,0,2.76-1.21,7.49-3.62,5.02-1.76,8.97-3.38,11.84-4.85,3.33-1.73,7.52-3.75,12.58-6.07,2.38-1.21,6.17-2.84,11.36-4.89.82-.65,5.07-2.37,12.78-5.14,1.3-.85,3.28-1.57,5.92-2.15,1.73-.95,3.48-1.58,5.24-1.91,0-.29,1.37-.72,4.11-1.27,1.08-.59,1.84-.88,2.3-.88.78-.39,1.84-.77,3.18-1.13.26-.33,2.23-.95,5.92-1.86,1.34-.29,2.17-.59,2.5-.88.46,0,1.45-.29,2.99-.88,2.25-.36,3.77-.78,4.55-1.27.16,0,.24.05.24.15,1.96-.39,3.31-.73,4.06-1.03l.25.29c-.65.26-1.57.51-2.74.73,0,.26-1.06.59-3.18.98,0,.39-.23.59-.69.59h-.24v-.29c-.36.23-1.34.57-2.94,1.03-1.53.39-2.3.72-2.3.98l-.44-.1c-.49,0-1.4.28-2.74.83-1.83.59-2.74.98-2.74,1.17h-.44l-.44-.15c-.56.56-.95.83-1.18.83,0-.2-.15-.29-.44-.29-.46.26-.69.55-.69.88l-.69-.29c-.29.88-.98,1.32-2.06,1.32,0,.26-.38.39-1.13.39l-.24-.25-.44.1-.49-.1c-.75.75-1.65,1.13-2.69,1.13,0,.26-.46.46-1.37.59-1.11.59-2.1.91-2.99.98,0,.42-.91.82-2.74,1.17-1.21.36-1.81.6-1.81.73h.69v.25c-.91,0-1.6.29-2.06.88-1.24.36-2.76.93-4.55,1.71-.26,0-1.94.72-5.04,2.15l-.44-.15c-.1.33-2.99,1.68-8.66,4.06-1.96.95-3.25,1.42-3.87,1.42v-.15c-.36,0-.67.29-.93.88-3.56,1.73-5.91,2.73-7.05,2.99l.24.29c3.13-.55,5.48-.83,7.05-.83,3.65.39,5.48,1.24,5.48,2.55.16,0,.24.05.24.15,0,3.56-8.21,11.32-24.62,23.3-3.13,2.74-5.73,4.89-7.78,6.46,0,.23-1.44,1.53-4.31,3.92l-4.11,5.43c-.46,1.17-.69,1.89-.69,2.15,0,2.51,2.28,3.77,6.85,3.77h2.05c3.75,0,10.13-1.26,19.14-3.77,2.84-.72,6.79-2.01,11.85-3.87.42,0,7.11-2.2,20.07-6.61,4.31-1.6,7.42-2.56,9.35-2.89.49-.33,2.07-.9,4.75-1.71v-.15l.49.15h.44c0-.39.15-.59.44-.59.33.03.49.13.49.29v.44c-.46,0-1.14.25-2.06.73h-.25l.25.25c-3.2.65-4.8,1.14-4.8,1.47v.44c-.23,0-1,.33-2.3.98h-.2l-.69-.29-.49.15.25.29v.15c0,.16-.68.46-2.06.88-.13-.16-.2-.36-.2-.59-.43.39-.96.59-1.62.59l.24.29v.1c0,.2-1.37.78-4.11,1.76h-1.13c-.07.39-3.72,1.83-10.96,4.31-17.04,5.94-29.34,8.91-36.91,8.91-2.87,0-6.15-.67-9.84-2.01-1.63-1.34-2.46-2.35-2.5-3.03v-1.86c.65-3.17,6.43-9.01,17.33-17.52,3.36-2.54,5.04-3.95,5.04-4.21,3.13-2.02,6.09-4.36,8.86-7,3.65-2.71,6.77-5.87,9.35-9.5.46-1.04.68-1.81.68-2.3,0-.2-.15-.29-.44-.29h-.93c-5.42.33-12.4,2.14-20.95,5.43-.42.39-6.8,3.7-19.14,9.94,0,.26-1.37,1.08-4.11,2.45,0,.13-.69.75-2.06,1.86-3,3.46-9.54,8.55-19.63,15.27-9.59,6.3-17.41,9.45-23.45,9.45-3,0-5.21-1.04-6.61-3.13v-.15c0-.1.07-.15.2-.15-.29-.46-.44-.9-.44-1.32l.25-.24c0-.1-.08-.15-.25-.15.16-1.34.47-2.5.93-3.47l-.24-.29c.59-.46,1.13-1.4,1.62-2.84l.88-.73.25.29c-.26.29-.57,1.11-.93,2.45.16,0,.62.33,1.37.98v.15l-.44.44c.16.2.25.34.25.44-.46,0-.69,1.09-.69,3.28v.15c.33.23.7.82,1.12,1.76,0,.62.83,1.04,2.5,1.27,3.39,0,9.4-2.5,18.01-7.49,1.83-.98,2.74-1.6,2.74-1.86,2.81-1.53,5.69-3.54,8.66-6.02.2-.1,1.4-.96,3.62-2.59,3.13-2.45,5.5-4.5,7.1-6.17h-.25c-2.09.56-4.06.83-5.92.83-3.92,0-6.05-1.44-6.41-4.31v-.29c0-1.7,1.6-4,4.8-6.9,3.43-2.28,6.62-3.67,9.59-4.16.16.2.25.34.25.44-4.44,3-6.66,4.54-6.66,4.6-3.04,2.74-4.55,4.99-4.55,6.75v.59c.46,1.14.91,1.71,1.37,1.71h.69c4.93-.75,9.04-2.09,12.33-4.01l7.98-8.81c3.62-4.8,5.43-7.33,5.43-7.59,5.65-8.09,8.47-15.61,8.47-22.56,0-5.45-2.29-9.06-6.85-10.82-1.5-.46-3.17-.69-4.99-.69-6.36,0-13.88,2.01-22.56,6.02-6.43,3.26-11.75,6.72-15.96,10.38-5.32,5.09-7.98,8.83-7.98,11.21v.98c0,1.24.83,1.86,2.5,1.86h1.57c.33.03.49.13.49.29,0,.26-.77.51-2.3.73-3.52,0-5.5-1.11-5.92-3.33,0-3.26,2.89-7.42,8.66-12.48.81-1.01,4.01-3.36,9.59-7.05l4.31-2.3c1.08-.78,2.45-1.45,4.11-2.01,1.14-.88,3.95-1.89,8.42-3.04,0-.39,2.28-1.06,6.85-2.01.29.1.52.15.68.15,0-.23.98-.42,2.94-.59ZM131.87,83.46h.49v.15c0,.2-.16.29-.49.29v-.44ZM136.66,80.72h.25c.29.03.44.13.44.29v.15h-1.13v-.15c.03-.2.18-.29.44-.29Z"/>
  <path class="cls-1" d="M105.09,67.6h.59v.2c-.91,1.01-1.37,1.66-1.37,1.96h-1.18c0,.36-.2.75-.59,1.17l-.39-.2c-.36,0-.82.52-1.37,1.57-.82.52-1.34,1.04-1.57,1.57v.39l1.17-.59.2.39c-.62,1.04-1.08,1.57-1.37,1.57,0,.23-.52,1.27-1.57,3.13-.26.52-.39,1.24-.39,2.15,0,1.17,1.24,1.76,3.72,1.76,2.97,0,7.15-.78,12.53-2.35l1.76-.39v.59c0,.26-.13.39-.39.39l-1.17-.2c-.65.49-.98.88-.98,1.17v.2l-.59-.39h-.2c0,.56-2.15,1.34-6.46,2.35,0,.39-.52.59-1.57.59v-.2h-.78v.2h.39v.39h-.2l-.98-.2c0,.26-.13.39-.39.39h-.2c-.13,0-.2-.07-.2-.2-.13,0-.2.07-.2.2-3.04,0-5.19-1.5-6.46-4.5,0-.75-.07-1.21-.2-1.37,0-1.57,2.09-4.63,6.26-9.2,1.53-1.3,2.58-1.96,3.13-1.96.03.26.16.39.39.39h.39l-.39-.59.59-.39ZM100.2,73.08h.59v.39h-.59v-.39ZM103.33,71.12v.2c0,.16-.33.42-.98.78h-.2l-.2-.78h.2c.13,0,.2.07.2.2.42-.26.75-.39.98-.39ZM104.89,69.56h.39c0,.16-.33.49-.98.98h-.2v-.2c0-.2.26-.46.78-.78ZM118.99,59.57h.39c2.09.55,3.13,1.79,3.13,3.72-.95,2.74-3.43,5.42-7.44,8.03-2.09,1.31-3.65,1.96-4.7,1.96-1.8,0-3.04-.98-3.72-2.94.03-.26.16-.39.39-.39.69.39,1.34.59,1.96.59,2.67,0,6.2-2.35,10.57-7.05l.39-1.37v-.2l-3.92.78v-.39h-.39c-.91.56-1.37.95-1.37,1.17l-.39-.2h-.59c-.42.36-1.21.69-2.35.98,0,.13-.33.46-.98.98-.23-.13-.49-.2-.78-.2,0,.13-.07.33-.2.59.13,0,.2.07.2.2l-.98.59h-1.18c0,.33-.13.65-.39.98-.91-.16-1.37-.36-1.37-.59,2.28-1.6,3.79-2.71,4.5-3.33.42-.1,1.86-.88,4.31-2.35,1.37-.49,2.35-.95,2.94-1.37l1.96-.2ZM105.68,68.97v.59h-.39v-.2c.03-.26.16-.39.39-.39ZM105.87,68.38c.26.13.46.2.59.2,0,.26-.13.39-.39.39h-.39v-.2l.2-.39ZM107.24,67.6h.39c0,.26-.13.39-.39.39h-.39c.03-.26.16-.39.39-.39ZM109.59,66.03l.2.39-.59.39-.2-.39.59-.39Z"/>
  <path class="cls-1" d="M133.04,67.6h.59v.2c-.91,1.01-1.37,1.66-1.37,1.96h-1.18c0,.36-.2.75-.59,1.17l-.39-.2c-.36,0-.82.52-1.37,1.57-.82.52-1.34,1.04-1.57,1.57v.39l1.17-.59.2.39c-.62,1.04-1.08,1.57-1.37,1.57,0,.23-.52,1.27-1.57,3.13-.26.52-.39,1.24-.39,2.15,0,1.17,1.24,1.76,3.72,1.76,2.97,0,7.15-.78,12.53-2.35l1.76-.39v.59c0,.26-.13.39-.39.39l-1.17-.2c-.65.49-.98.88-.98,1.17v.2l-.59-.39h-.2c0,.56-2.15,1.34-6.46,2.35,0,.39-.52.59-1.57.59v-.2h-.78v.2h.39v.39h-.2l-.98-.2c0,.26-.13.39-.39.39h-.2c-.13,0-.2-.07-.2-.2-.13,0-.2.07-.2.2-3.04,0-5.19-1.5-6.46-4.5,0-.75-.07-1.21-.2-1.37,0-1.57,2.09-4.63,6.26-9.2,1.53-1.3,2.58-1.96,3.13-1.96.03.26.16.39.39.39h.39l-.39-.59.59-.39ZM128.14,73.08h.59v.39h-.59v-.39ZM131.27,71.12v.2c0,.16-.33.42-.98.78h-.2l-.2-.78h.2c.13,0,.2.07.2.2.42-.26.75-.39.98-.39ZM132.84,69.56h.39c0,.16-.33.49-.98.98h-.2v-.2c0-.2.26-.46.78-.78ZM146.94,59.57h.39c2.09.55,3.13,1.79,3.13,3.72-.95,2.74-3.43,5.42-7.44,8.03-2.09,1.31-3.65,1.96-4.7,1.96-1.8,0-3.04-.98-3.72-2.94.03-.26.16-.39.39-.39.69.39,1.34.59,1.96.59,2.67,0,6.2-2.35,10.57-7.05l.39-1.37v-.2l-3.92.78v-.39h-.39c-.91.56-1.37.95-1.37,1.17l-.39-.2h-.59c-.42.36-1.21.69-2.35.98,0,.13-.33.46-.98.98-.23-.13-.49-.2-.78-.2,0,.13-.07.33-.2.59.13,0,.2.07.2.2l-.98.59h-1.18c0,.33-.13.65-.39.98-.91-.16-1.37-.36-1.37-.59,2.28-1.6,3.79-2.71,4.5-3.33.42-.1,1.86-.88,4.31-2.35,1.37-.49,2.35-.95,2.94-1.37l1.96-.2ZM133.62,68.97v.59h-.39v-.2c.03-.26.16-.39.39-.39ZM133.82,68.38c.26.13.46.2.59.2,0,.26-.13.39-.39.39h-.39v-.2l.2-.39ZM135.19,67.6h.39c0,.26-.13.39-.39.39h-.39c.03-.26.16-.39.39-.39ZM137.54,66.03l.2.39-.59.39-.2-.39.59-.39Z"/>
  <path class="cls-1" d="M181.3,56.83c2.22,0,3.87,1.19,4.94,3.57v.68c0,2.81-2.38,6.53-7.15,11.16-.23,0-1.14.95-2.74,2.84l-2.59,1.96c-.33.39-1.52,1.22-3.57,2.5h-.2c-.26,0-.39-.11-.39-.34.13,0,.2-.07.2-.2h-.59c-.26.03-.39.15-.39.34.13,0,.2.07.2.2-.65.23-1.32.7-2.01,1.42h-.2v.2h.59v.34c-.13,0-.33.07-.59.2h-.98l-.2.34-.39-.2c-.59.13-.98.42-1.17.88l-.39-.15-.83.34.2.34v.34h-.39c0-.26-.33-.42-.98-.49-.36.07-.69.36-.98.88l.98.15c.03-.23.16-.34.39-.34h.2v.2c-.13.36-.52.54-1.17.54-.23,0-.56-.13-.98-.39-.52.13-1.06.2-1.62.2v.2h.39v.34c-.13,0-.33.05-.59.15-.13-.23-.2-.39-.2-.49-.46,0-1.44.29-2.94.88-.75.1-1.29.15-1.62.15-.26-.1-.46-.15-.59-.15,0,.1-.07.15-.2.15l-.2-.34v-.2c0-.23.65-.39,1.96-.49l3.57-1.08c3.65-1.67,6.9-3.38,9.74-5.14.75-.95,1.47-1.42,2.15-1.42,9.1-7.54,13.66-13.17,13.66-16.89,0-.69-.52-1.03-1.57-1.03-.23,0-.55-.13-.98-.39-.52.2-.78.38-.78.54l-1.03-.15c-.65.95-1.37,1.42-2.15,1.42h-.2l.2-.39v-.15h-.2l-.98.15v.39h.39v.34c-1.21.95-2.07,1.42-2.59,1.42v-.2c.1-.23.75-.64,1.96-1.22v-.54h-.2l-2.94,1.62c-.49.56-1.48,1.14-2.99,1.76-.39.55-1.39,1.32-2.99,2.3,0,.13-.59.6-1.76,1.42h-.59l-.2.34v.54c-.43,0-1.22.72-2.4,2.15v.34h.59v.15c0,.2-.26.44-.78.73l-.2-.34c.26,0,.39-.13.39-.39l-.39-.15h-.2c0,.46-.2.68-.59.68v.54l.59-.34.2.34c-3.36,2.81-5.4,4.88-6.12,6.22-3.66,4.44-5.97,7.16-6.95,8.17-.23.52-.75.93-1.57,1.22,0,1.08-.54,1.62-1.62,1.62l.2.34v.34c-.91.81-1.63,1.76-2.15,2.84-.26,0-.73.6-1.42,1.81-1.96,1.99-3.21,3.46-3.77,4.41-.16,0-2.14,2.25-5.92,6.75-.23,0-.55.36-.98,1.08-.85.75-2.5,2.64-4.94,5.68h-.44c-1.14-.46-1.79-.93-1.96-1.42v-.34c4.31-5.16,7.67-9.37,10.08-12.63,1.5-1.83,2.69-3.13,3.57-3.92.62-1.47,1.42-2.53,2.4-3.18,0-.39.59-1.16,1.76-2.3,0-.33.6-.86,1.81-1.62.42-.82,1.55-2.06,3.38-3.72.13-.36,1.37-1.71,3.72-4.06,1.66-1.73,5.63-6.53,11.89-14.39l1.62-1.22h.39c.23,0,.62.47,1.17,1.42h.39c.78-.72,1.3-1.08,1.57-1.08.23,0,.64-.36,1.22-1.08,3.1-2.12,4.75-3.18,4.94-3.18,2.74-1.66,5.32-2.61,7.73-2.84ZM163.24,69.6h.25v.2c0,.23-.15.34-.44.34l-.2-.34.39-.2ZM164.07,68.92h.2v.15c0,.23-.13.34-.39.34h-.2v-.15c.03-.23.16-.34.39-.34ZM165.83,67.3h.39v.2c0,.16-.26.33-.78.49l-.2-.34.59-.34ZM167.4,66.23h.24c0,.16-.21.34-.64.54v-.2c.07-.23.2-.34.39-.34ZM168.23,65.69h.2c0,.26-.13.39-.39.39h-.2c.03-.26.16-.39.39-.39ZM168.03,80.28h.78c0,.23-.13.34-.39.34s-.39-.11-.39-.34ZM169.4,64.66h.2v.49h-.2c-.26,0-.39-.11-.39-.34l.39-.15ZM170.77,63.93c0,.2-.26.44-.78.73h-.39v-.2c0-.23.39-.41,1.17-.54ZM172.78,76.36c0,.59-.47.88-1.42.88.13.2.2.42.2.69.2,0,.73-.34,1.62-1.03h.2v-.54h-.59ZM173.17,62.31v.2c0,.16-.39.46-1.17.88h-.44v-.54l1.62-.54ZM175.52,74.4v.34h.64v-.34h-.64ZM176.16,73.52v.68h.59c0-.23.26-.57.78-1.03v-.2h-.2c-.52.36-.91.54-1.17.54ZM177.53,59.33l-.2.34.39.2h.2v-.2c0-.23-.13-.34-.39-.34ZM178.51,71.76v.34c1.21-.88,1.81-1.53,1.81-1.96h-.2c-.2,0-.73.54-1.62,1.62ZM181.1,68.72l-.2.34v.2h.2c.26,0,.39-.11.39-.34l-.39-.2ZM182.28,67.11v.54c.26,0,.39-.11.39-.34l-.39-.2Z"/>
  <path class="cls-1" d="M188,107.78h.59v.2c-.26.33-.39.59-.39.78-.2,0-.39-.2-.59-.59.03-.26.16-.39.39-.39ZM191.52,106.22c0,.13.07.2.2.2,0,.46-.52.78-1.57.98,0,.29-.33.49-.98.59v-.39c0-.49.78-.95,2.35-1.37ZM239.3,60.6v.2l.39-.2,1.37.98c-.1,1.17-.88,1.76-2.35,1.76-3.95,1.01-7.33,2.25-10.13,3.72-.26,0-1.63.72-4.11,2.15-7.47,3.98-11.83,8.03-13.07,12.14v.2c0,.23.46.42,1.37.59,2.15,0,6.51-1.57,13.07-4.7,6.88-3.46,14.49-7.9,22.81-13.31.69,0,1.27.46,1.76,1.37.26.03.39.16.39.39,0,.72-1.17,1.89-3.52,3.52l-6.8,5.87c-3.56,3.13-6.17,5.29-7.83,6.46l-1.91,1.96c-.26-.13-.46-.2-.59-.2v-.2l.39-.59h-.78c-.75.91-1.21,1.37-1.37,1.37v.2h.2c.78-.52,1.3-.78,1.57-.78l.2.39c-1.93,1.83-3.3,2.74-4.11,2.74v-.39h-.39c-.88.78-1.53,1.17-1.96,1.17l.2.39c0,.26-.13.39-.39.39l-.39-.2c-.52.59-.78.91-.78.98h.2c.59-.39,1.04-.59,1.37-.59v.39l-3.92,2.94-.39-.2.2-.39v-.2c0-.26-.13-.39-.39-.39-.65.72-2.01,1.63-4.06,2.74-.1.39-.88.91-2.35,1.57,0,.13-.06.33-.2.59l-.39-.2h-.2c-.75.91-1.4,1.44-1.96,1.57-.26-.13-.46-.2-.59-.2,0,.62-1.04,1.27-3.13,1.96,0-.13-.05-.2-.15-.2,0,1.27-1.44,2.19-4.31,2.74-.98.75-2.15,1.4-3.53,1.96-.42.72-1.6,1.37-3.52,1.96,0,.39-.13.59-.39.59h-.2l-.39-.2c0,.2-.64.52-1.91.98-.26,0-.39-.13-.39-.39,2.64-1.63,4.85-2.81,6.61-3.52,3.85-2.42,6.71-4.11,8.57-5.09.68-.59,1.47-1.04,2.35-1.37,1.08-1.01,3.43-2.58,7.05-4.7,1.08-1.17,1.92-1.76,2.55-1.76.23.13.41.2.54.2l-.34-.59,9.54-7.44c4.41-3.82,6.61-5.84,6.61-6.07-.52,0-3.05,1.31-7.59,3.92-6.92,3.52-11.86,5.29-14.83,5.29-1.21-.29-2.38-1.01-3.52-2.15,0-.29-.2-.69-.59-1.17v-1.37c0-1.5,1.57-3.85,4.7-7.05,4.6-3.62,7.39-5.51,8.37-5.68,6.17-3.62,11.5-5.78,16.01-6.46,0-.16.46-.29,1.37-.39ZM217.47,93.1h.39c-.98,1.04-1.7,1.57-2.15,1.57l-.2-.39c.13,0,.78-.39,1.96-1.17ZM219.03,92.32v.2c0,.2-.2.39-.59.59h-.39v-.39c.33,0,.65-.13.98-.39ZM220.75,89.97c0,.26-.2.39-.59.39v.2h.98v-.2c0-.26-.13-.39-.39-.39ZM221.53,89.58v.2c.06.26.2.39.39.39l.2-.39v-.39c-.23.13-.42.2-.59.2ZM225.25,87.03h.59v.2c0,.26-.13.39-.39.39h-.2v-.59ZM230.34,82.33h.59c.26,0,.39-.13.39-.39h-.59c-.26.03-.39.16-.39.39ZM235.38,78.22c.03.26.16.39.39.39h.2v-.39h-.59Z"/>
  <path class="cls-1" d="M277.33,57.42h.39c.91,0,1.7.72,2.35,2.15,0,1.44-1.04,3.26-3.13,5.48h-.2l.2.39c-.2,0-.39.2-.59.59.2,0,.39.2.59.59,0,.23-.85,1.14-2.54,2.74h-.2l-.39-.2v.59l-.98-.2c-1.14.78-1.73,1.31-1.76,1.57v.39h.2c1.04-.65,1.57-1.11,1.57-1.37l.39-.2h.2v.39c0,.13-1.04,1.04-3.13,2.74h-.39v-.39h-.59v.2c0,.26.2.39.59.39v.2c0,.26-.13.39-.39.39h-.2l-.78-.59c0,.16-.98,1.08-2.94,2.74v.2h.2c.13,0,.52-.26,1.18-.78h.2c0,.16-.72.88-2.15,2.15h-.2c0-.13-.07-.33-.2-.59-.26.13-.46.2-.59.2v.39h.39v.2c0,.23-.46.62-1.37,1.17h-.59v-.39c-.23.13-.49.2-.78.2v.59l.59-.39h.2v.59c-.29,0-1.79,1.04-4.5,3.13-.33,0-1.57.65-3.72,1.96l-2.94.59c-3.26-.46-4.89-1.83-4.89-4.11v-.59c0-1.76,1.44-4.44,4.31-8.03,0-.26.46-.72,1.37-1.37,0-.46.72-1.17,2.15-2.15,0-.29,2.22-2.12,6.66-5.48,2.94-1.44,5.68-2.67,8.22-3.72,2.12-.39,3.36-.59,3.72-.59h.98c.13,0,.46.33.98.98v.59c0,.26-1.96.85-5.88,1.76-5.06,2.28-9.04,4.83-11.94,7.64-2.25,1.86-4.21,4.08-5.87,6.66-1.04,1.6-1.76,3.23-2.15,4.89.16.65.36.98.59.98,2.32,0,5.91-1.63,10.77-4.9l8.42-6.66,1.17-.59-.2-.39,3.92-3.52,4.7-5.87.2-1.37c-.91-.46-1.57-.91-1.96-1.37l.78-.59ZM270.28,70.34v.39h.39c.2,0,.39-.2.59-.59h-.39c-.26.13-.46.2-.59.2ZM275.17,66.42l.2.39v.59c-.16,0-.68.33-1.57.98v.39h.39c.26,0,.91-.72,1.96-2.15h.2c0-.26-.13-.39-.39-.39-.23.13-.49.2-.78.2ZM279.48,62.9h.2v.2c-.62.91-1.01,1.37-1.18,1.37h-.2v-.2c.65-.91,1.04-1.37,1.17-1.37ZM279.87,61.14c.26.03.39.16.39.39,0,.26-.13.39-.39.39v-.78Z"/>
  <path class="cls-1" d="M293.43,56.05c1.17.95,1.76,1.6,1.76,1.96-1.4,2.97-5.25,8.45-11.55,16.45-2.71,3.66-4.21,5.48-4.5,5.48-.75,0-1.99,1.44-3.72,4.31.52,0,.78.13.78.39l-.39.2c-.23-.13-.49-.2-.78-.2-.13.39-.52.59-1.17.59h-.2v-.39c0-1.04,2.74-5.22,8.22-12.53,4.83-6.33,7.24-9.72,7.24-10.18.36-.36,1.6-2.38,3.72-6.07h.59ZM276.79,82.87h.39v.2c-.26.59-.52.91-.78.98v-.39c.26-.33.39-.59.39-.78ZM278.75,80.32l.2.39c-.42.91-.95,1.57-1.57,1.96h-.2v-.2c.42-.91.81-1.37,1.17-1.37,0-.52.13-.78.39-.78ZM278.94,79.15v.39h.2c.26-.07.52-.39.78-.98h-.39c-.2,0-.39.2-.59.59ZM281.29,76.02h.2c.26-.13.46-.2.59-.2v-.39c-.52.2-.78.39-.78.59ZM298.32,41.95l1.57,1.57h.2l1.76-.98h.39c.39,0,.59.26.59.78,0,1.76-1.11,3-3.33,3.72h-1.37c-1.17-.98-1.76-1.83-1.76-2.54v-.98c.52-1.04,1.17-1.57,1.96-1.57Z"/>
  <path class="cls-1" d="M323.29,56.24c2.35.59,3.52,1.57,3.52,2.94-.36,2.48-.82,3.72-1.37,3.72l.2.39c-.1.85-.88,2.48-2.35,4.89-.65.75-.98,1.34-.98,1.76h-.2l-.59-.39v.2l.2,1.17c-.88,1.17-1.4,1.76-1.57,1.76-.23-.13-.49-.2-.78-.2v.98l.59-.39.2.39c-.33,0-.59.46-.78,1.37-.33,0-.52.26-.59.78h-1.17v.39c.52,0,.78.07.78.2-.39.59-.59.98-.59,1.17h-.2c-.13,0-.2-.06-.2-.2-.78.16-1.17.49-1.17.98l-.78-.2h-.2v.2c.13,0,.33.07.59.2,0,.95-.78,2.06-2.35,3.33-.78.62-1.17,1.14-1.17,1.57h-.59v-.2c0-.55.98-2.51,2.94-5.87l4.31-7.05,2.74-4.89c.55-.91,1.27-2.68,2.15-5.29v-1.17c-.65,0-.98-.13-.98-.39.13,0,.2-.07.2-.2h-.39c0,.39-.26.72-.78.98l-.98-.2c-.13.49-.65.82-1.57.98v.39h-.2l-.39-.2c0,.91-.78,1.37-2.35,1.37v.2h.78v.39h-.59l-.59-.39h-.2c0,.33-.13.65-.39.98.13.26.2.46.2.59h-.2l-.59-.39c-.26,0-.65.33-1.17.98-.39,0-.85.39-1.37,1.17h.39c0-.39.26-.59.78-.59v.2c0,.29-.65.56-1.96.78-.46.91-.98,1.37-1.57,1.37l.2.39v.59c0,.26-.13.39-.39.39h-.2v-.59c-1.79,1.5-2.71,2.35-2.74,2.54h.78v.2c0,.33-1.17,1.5-3.52,3.52h-.2l.39-.59v-.2h-.2c-.91.68-1.37,1.27-1.37,1.76.39,0,.59.13.59.39-1.89,1.89-4.57,5.09-8.03,9.59l-1.37.39c-1.57-.85-2.35-1.57-2.35-2.15,1.5-3.04,4.24-8.13,8.22-15.27.95-1.53,2.77-5.06,5.48-10.57l.59-.39c.23,0,.88.52,1.96,1.57v.59c-1.14,2.84-3.56,7.41-7.25,13.71v.78c.36,0,2.19-1.76,5.48-5.29.16,0,.62-.46,1.37-1.37,2.41-2.22,3.79-3.33,4.11-3.33,1.17-1.17,2.09-1.96,2.74-2.35.39-.72,2.35-2.09,5.87-4.11,1.37-.52,2.41-.78,3.13-.78ZM299.99,74.06v.2c.2,0,.39-.2.59-.59h-.2c-.26.03-.39.16-.39.39ZM306.25,70.73v.2c.52-.2.78-.39.78-.59h-.39c-.26.03-.39.16-.39.39ZM316.24,62.31l.2.39-.39.2-.2-.39.39-.2ZM316.24,78.95h.2v.39c0,.26-.13.39-.39.39l-.2-.39c.03-.26.16-.39.39-.39ZM318.2,75.04h.2c.26,0,.46-.46.59-1.37h-.2c-.29,0-.49.46-.59,1.37ZM323.09,66.62v.2c.2,0,.39-.2.59-.59h-.2c-.26.03-.39.16-.39.39Z"/>
  <path class="cls-1" d="M301.11,107.78h.59v.2c-.26.33-.39.59-.39.78-.2,0-.39-.2-.59-.59.03-.26.16-.39.39-.39ZM304.64,106.22c0,.13.07.2.2.2,0,.46-.52.78-1.57.98,0,.29-.33.49-.98.59v-.39c0-.49.78-.95,2.35-1.37ZM352.41,60.6v.2l.39-.2,1.37.98c-.1,1.17-.88,1.76-2.35,1.76-3.95,1.01-7.33,2.25-10.13,3.72-.26,0-1.63.72-4.11,2.15-7.47,3.98-11.83,8.03-13.07,12.14v.2c0,.23.46.42,1.37.59,2.15,0,6.51-1.57,13.07-4.7,6.88-3.46,14.49-7.9,22.81-13.31.69,0,1.27.46,1.76,1.37.26.03.39.16.39.39,0,.72-1.17,1.89-3.52,3.52l-6.8,5.87c-3.56,3.13-6.17,5.29-7.83,6.46l-1.91,1.96c-.26-.13-.46-.2-.59-.2v-.2l.39-.59h-.78c-.75.91-1.21,1.37-1.37,1.37v.2h.2c.78-.52,1.3-.78,1.57-.78l.2.39c-1.93,1.83-3.3,2.74-4.11,2.74v-.39h-.39c-.88.78-1.53,1.17-1.96,1.17l.2.39c0,.26-.13.39-.39.39l-.39-.2c-.52.59-.78.91-.78.98h.2c.59-.39,1.04-.59,1.37-.59v.39l-3.92,2.94-.39-.2.2-.39v-.2c0-.26-.13-.39-.39-.39-.65.72-2.01,1.63-4.06,2.74-.1.39-.88.91-2.35,1.57,0,.13-.07.33-.2.59l-.39-.2h-.2c-.75.91-1.4,1.44-1.96,1.57-.26-.13-.46-.2-.59-.2,0,.62-1.04,1.27-3.13,1.96,0-.13-.05-.2-.15-.2,0,1.27-1.44,2.19-4.31,2.74-.98.75-2.15,1.4-3.52,1.96-.42.72-1.6,1.37-3.52,1.96,0,.39-.13.59-.39.59h-.2l-.39-.2c0,.2-.64.52-1.91.98-.26,0-.39-.13-.39-.39,2.64-1.63,4.85-2.81,6.61-3.52,3.85-2.42,6.71-4.11,8.57-5.09.69-.59,1.47-1.04,2.35-1.37,1.08-1.01,3.43-2.58,7.05-4.7,1.08-1.17,1.92-1.76,2.54-1.76.23.13.41.2.54.2l-.34-.59,9.54-7.44c4.41-3.82,6.61-5.84,6.61-6.07-.52,0-3.05,1.31-7.59,3.92-6.92,3.52-11.86,5.29-14.83,5.29-1.21-.29-2.38-1.01-3.52-2.15,0-.29-.2-.69-.59-1.17v-1.37c0-1.5,1.57-3.85,4.7-7.05,4.6-3.62,7.39-5.51,8.37-5.68,6.17-3.62,11.5-5.78,16.01-6.46,0-.16.46-.29,1.37-.39ZM330.58,93.1h.39c-.98,1.04-1.7,1.57-2.15,1.57l-.2-.39c.13,0,.78-.39,1.96-1.17ZM332.14,92.32v.2c0,.2-.2.39-.59.59h-.39v-.39c.33,0,.65-.13.98-.39ZM333.86,89.97c0,.26-.2.39-.59.39v.2h.98v-.2c0-.26-.13-.39-.39-.39ZM334.64,89.58v.2c.07.26.2.39.39.39l.2-.39v-.39c-.23.13-.42.2-.59.2ZM338.36,87.03h.59v.2c0,.26-.13.39-.39.39h-.2v-.59ZM343.45,82.33h.59c.26,0,.39-.13.39-.39h-.59c-.26.03-.39.16-.39.39ZM348.49,78.22c.03.26.16.39.39.39h.2v-.39h-.59Z"/>
</svg>