<?xml version="1.0" encoding="UTF-8"?>
<svg id="_圖層_1" data-name="圖層 1" xmlns="http://www.w3.org/2000/svg" viewBox="0 0 184.59 60.46">
  <defs>
    <style>
      .cls-1 {
        fill: #3278cc;
      }
    </style>
  </defs>
  <path class="cls-1" d="M44.73,45.98l-14.49,14.49L0,30.23,30.24,0l14.47,14.47c-.48.15-.94.32-1.4.52-15.34,6.51-12.26,26.56,1.41,30.99Z"/>
  <path class="cls-1" d="M60.48,30.23s-8.12,8.05-8.19,8.08c-13.26,5.3-14.82-21.18-.1-16.28.05.02,8.28,8.2,8.29,8.2Z"/>
  <path class="cls-1" d="M108.2,36.77c-.28.15-.58.29-.9.42-.66.28-1.39.42-2.18.42-1.04,0-2-.2-2.88-.58-.88-.39-1.64-.92-2.28-1.58-.64-.67-1.14-1.46-1.51-2.36-.36-.91-.54-1.88-.54-2.91s.18-2,.54-2.9c.36-.89.86-1.67,1.51-2.33.64-.66,1.4-1.18,2.28-1.56.88-.38,1.84-.57,2.88-.57.78,0,1.48.11,2.1.33.24.08.47.19.71.31l2.5-6.45c-.25-.1-.51-.2-.77-.29-.67-.23-1.39-.42-2.15-.55-.76-.14-1.56-.2-2.4-.2-1.98,0-3.84.37-5.58,1.11-1.74.74-3.25,1.75-4.55,3.03-1.3,1.28-2.32,2.79-3.07,4.52-.75,1.73-1.13,3.59-1.13,5.57s.38,3.84,1.13,5.58c.75,1.74,1.77,3.25,3.07,4.55,1.3,1.3,2.81,2.32,4.55,3.07,1.74.75,3.6,1.13,5.58,1.13,1.7,0,3.21-.25,4.55-.74.48-.17.93-.36,1.36-.57l-2.83-6.42Z"/>
  <path class="cls-1" d="M137.26,17.05h-21.31l-2.48,6.39s.09,0,.14,0h8.29v20.64h7.03v-20.64h5.93l2.48-6.39s-.05,0-.08,0Z"/>
  <path class="cls-1" d="M160.94,17.05v15.88c0,2.18-.32,4-.96,5.48-.64,1.48-1.5,2.66-2.58,3.56-1.08.9-2.34,1.55-3.76,1.94-1.52.42-4.06.42-5.58-.01-1.43-.4-2.68-1.06-3.76-1.97-1.08-.91-1.94-2.11-2.58-3.59-.64-1.48-.96-3.28-.96-5.42,0,0,0-15.8,0-15.88h7.23c0,.08.01,17.4.01,17.4,0,.15.22,2.62,2.88,2.62,1.45,0,2.65-1.23,2.85-2.62,0-.02,0,.02,0,0v-17.4h7.21Z"/>
  <path class="cls-1" d="M84.51,44.08s5.77,0,6.03,0l-10.77-27.71s0,0,0,0h0c-.46,0-5.53,0-6.01,0h0s0,0,0,0l-10.77,27.71c.27,0,6.03,0,6.03,0l2.18-5.63h11.12l2.18,5.63ZM73.69,32.06l3.08-7.94,3.08,7.94h-6.16Z"/>
  <path class="cls-1" d="M165.51,40.19l2.54-6.54h0s0,0,0,0c5.7,7.05,12.39,3.68,9.22.56-.7-.69-6.36-3.73-6.67-3.92-11.01-6.85.91-20.45,13.95-11.62l-2.36,6.07c-7.1-5.9-10.54-1.03-7.58.66.5.29,5.13,3.09,5.18,3.13,12.46,7.65-1.93,24.02-14.29,11.66Z"/>
</svg>